<svg width="16" height="18" viewBox="0 0 16 18" fill="none" xmlns="http://www.w3.org/2000/svg">
<path d="M14 6.75L12.5038 15.2595C12.4427 15.607 12.2611 15.9219 11.9909 16.1488C11.7207 16.3757 11.3791 16.5 11.0263 16.5H4.97375C4.62091 16.5 4.27935 16.3757 4.00912 16.1488C3.73889 15.9219 3.55729 15.607 3.49625 15.2595L2 6.75M14.75 4.5H10.5313M10.5313 4.5V3C10.5313 2.60218 10.3732 2.22064 10.0919 1.93934C9.81061 1.65804 9.42908 1.5 9.03125 1.5H6.96875C6.57093 1.5 6.1894 1.65804 5.90809 1.93934C5.62679 2.22064 5.46875 2.60218 5.46875 3V4.5M10.5313 4.5H5.46875M1.25 4.5H5.46875" stroke="#FF2020" stroke-width="1.5" stroke-linecap="round" stroke-linejoin="round"/>
</svg>
