<svg width="35" height="17" viewBox="0 0 35 17" fill="none" xmlns="http://www.w3.org/2000/svg">
<path d="M21.3054 8.7608L22.0567 12.2688C22.2632 13.2287 22.7519 14.105 23.4599 14.7851C24.168 15.4653 25.0632 15.9183 26.0305 16.0861L29.1993 16.638C30.3825 16.8437 31.5996 16.5906 32.6027 15.9303C33.6057 15.2699 34.3193 14.252 34.598 13.0839C35.6221 8.78435 33.8785 3.99417 29.3492 2.49538C26.3697 1.50918 22.4104 0.644831 17.6691 0.626544C12.9168 0.607519 8.91853 1.42517 5.89469 2.36349C1.33497 3.78261 -0.528234 8.54351 0.440104 12.8786C0.699567 14.0407 1.39241 15.06 2.37742 15.7288C3.36242 16.3977 4.56542 16.6657 5.74119 16.4782L8.95501 15.9655C9.92604 15.8119 10.8289 15.3713 11.5474 14.7003C12.2659 14.0293 12.7672 13.1587 12.9868 12.2004L13.7889 8.70729C15.0216 8.40706 16.285 8.25151 17.5536 8.24377C18.8215 8.26173 20.0823 8.4358 21.3076 8.76204L21.3054 8.7608Z" fill="white"/>
</svg>
