<svg width="19" height="18" viewBox="0 0 19 18" fill="none" xmlns="http://www.w3.org/2000/svg">
<path d="M15.0233 7.6709C14.6383 8.04673 14.4183 8.58757 14.4733 9.16507C14.5558 10.1551 15.4633 10.8792 16.4533 10.8792H18.25V12.2084C18.25 14.9584 16.4166 16.7917 13.6666 16.7917H5.41665C2.66665 16.7917 0.833313 14.9584 0.833313 12.2084V5.79175C0.833313 3.29841 2.33665 1.55674 4.67415 1.26341C4.91248 1.22674 5.15998 1.20841 5.41665 1.20841H13.6666C13.905 1.20841 14.1341 1.21757 14.3541 1.25423C16.7191 1.52923 18.25 3.28008 18.25 5.79175V7.12092H16.3433C15.83 7.12092 15.3625 7.32257 15.0233 7.6709Z" stroke="#292D32" stroke-width="1.375" stroke-linecap="round" stroke-linejoin="round"/>
</svg>
