<svg width="21" height="15" viewBox="0 0 21 15" fill="none" xmlns="http://www.w3.org/2000/svg">
<path d="M0.428589 2.5C0.428589 1.83696 0.691981 1.20107 1.16082 0.732233C1.62966 0.263392 2.26555 0 2.92859 0H17.9286C18.5916 0 19.2275 0.263392 19.6964 0.732233C20.1652 1.20107 20.4286 1.83696 20.4286 2.5V8.75H0.428589V2.5ZM14.8036 3.75C14.6378 3.75 14.4789 3.81585 14.3616 3.93306C14.2444 4.05027 14.1786 4.20924 14.1786 4.375V5.625C14.1786 5.79076 14.2444 5.94973 14.3616 6.06694C14.4789 6.18415 14.6378 6.25 14.8036 6.25H17.3036C17.4693 6.25 17.6283 6.18415 17.7455 6.06694C17.8627 5.94973 17.9286 5.79076 17.9286 5.625V4.375C17.9286 4.20924 17.8627 4.05027 17.7455 3.93306C17.6283 3.81585 17.4693 3.75 17.3036 3.75H14.8036ZM0.428589 11.25V12.5C0.428589 13.163 0.691981 13.7989 1.16082 14.2678C1.62966 14.7366 2.26555 15 2.92859 15H17.9286C18.5916 15 19.2275 14.7366 19.6964 14.2678C20.1652 13.7989 20.4286 13.163 20.4286 12.5V11.25H0.428589Z" fill="#001B3B"/>
</svg>
