<svg width="28" height="28" viewBox="0 0 28 28" fill="none" xmlns="http://www.w3.org/2000/svg">
<path fill-rule="evenodd" clip-rule="evenodd" d="M13.9072 0.279465C21.5879 0.279465 27.8144 6.32362 27.8144 13.7795C27.8144 21.2353 21.5879 27.2795 13.9072 27.2795C6.22647 27.2795 0 21.2353 0 13.7795C0 6.32362 6.22647 0.279465 13.9072 0.279465ZM13.9072 1.85222C20.693 1.85296 26.1933 7.1933 26.1928 13.7804C26.1923 20.3674 20.6911 25.707 13.9054 25.7067C7.1196 25.7065 1.6188 20.3665 1.6188 13.7795C1.6188 10.616 2.91363 7.58206 5.21818 5.34525C7.52272 3.10843 10.6483 1.85195 13.9072 1.85222ZM9.50766 7.92384C9.07781 7.91887 8.66385 8.08143 8.35847 8.37514C8.0531 8.66885 7.88181 9.06917 7.88295 9.48647C7.88295 10.3575 8.61036 11.0636 9.50766 11.0636C10.405 11.0636 11.1324 10.3575 11.1324 9.48647C11.1335 9.06917 10.9622 8.66885 10.6569 8.37514C10.3515 8.08143 9.93752 7.91887 9.50766 7.92384ZM23.1753 16.1048C22.4348 19.9895 18.5724 23.2328 13.9055 23.2328C9.27576 23.2328 5.43598 20.0367 4.65196 16.196C4.49307 15.2375 5.30178 15.0113 6.06354 15.1902C8.61189 15.9055 11.2547 16.2534 13.9072 16.223C16.5538 16.2527 19.1905 15.9059 21.7335 15.1936C22.4741 15.0113 23.2671 15.2172 23.1753 16.1048ZM20.6612 16.6448C20.5889 16.6718 20.5156 16.6921 20.4415 16.7157C20.4339 16.7191 20.6786 16.6415 20.6713 16.6448C18.4724 17.2325 16.1993 17.5176 13.9187 17.492C11.197 17.492 8.76293 17.1983 7.08781 16.6145C5.87336 16.2635 6.10631 17.6506 6.95986 18.0758C9.14348 19.0408 11.5192 19.5271 13.9183 19.5001C16.7721 19.5001 19.315 18.8555 20.9947 18.0218C21.7895 17.5257 21.9466 16.196 20.6612 16.6448ZM18.3158 7.92384C17.8859 7.91887 17.4719 8.08142 17.1665 8.37512C16.8611 8.66882 16.6897 9.06914 16.6907 9.48647C16.6822 10.0555 16.99 10.5849 17.4962 10.8718C18.0025 11.1587 18.6287 11.1587 19.135 10.8718C19.6413 10.5849 19.9491 10.0555 19.9405 9.48647C19.9416 9.0692 19.7702 8.66893 19.4649 8.37524C19.1595 8.08156 18.7456 7.91896 18.3158 7.92384Z" fill="#A7A7A7"/>
</svg>
