<svg width="21" height="20" viewBox="0 0 21 20" fill="none" xmlns="http://www.w3.org/2000/svg">
<g id="vuesax/linear/eye-slash">
<g id="eye-slash">
<path id="Vector" d="M12.6968 8.13349L8.60687 12.2234C8.08149 11.698 7.75818 10.9786 7.75818 10.1784C7.75818 8.57804 9.05143 7.28479 10.6518 7.28479C11.452 7.28479 12.1714 7.6081 12.6968 8.13349Z" stroke="#292D32" stroke-width="1.21242" stroke-linecap="round" stroke-linejoin="round"/>
<path id="Vector_2" d="M15.3561 5.14291C13.9416 4.07598 12.325 3.49402 10.6519 3.49402C7.79863 3.49402 5.13938 5.17525 3.28841 8.08506C2.56096 9.22474 2.56096 11.1404 3.28841 12.28C3.92695 13.2823 4.67057 14.1472 5.47886 14.8423" stroke="#292D32" stroke-width="1.21242" stroke-linecap="round" stroke-linejoin="round"/>
<path id="Vector_3" d="M7.75818 16.265C8.67962 16.653 9.65764 16.8631 10.6518 16.8631C13.5051 16.8631 16.1643 15.1819 18.0153 12.2721C18.7427 11.1324 18.7427 9.21677 18.0153 8.07709C17.7485 7.65678 17.4576 7.26073 17.1585 6.88892" stroke="#292D32" stroke-width="1.21242" stroke-linecap="round" stroke-linejoin="round"/>
<path id="Vector_4" d="M13.4889 10.7444C13.2788 11.8841 12.3492 12.8136 11.2096 13.0238" stroke="#292D32" stroke-width="1.21242" stroke-linecap="round" stroke-linejoin="round"/>
<path id="Vector_5" d="M8.60689 12.2233L2.56902 18.2611" stroke="#292D32" stroke-width="1.21242" stroke-linecap="round" stroke-linejoin="round"/>
<path id="Vector_6" d="M18.7347 2.0957L12.6968 8.13357" stroke="#292D32" stroke-width="1.21242" stroke-linecap="round" stroke-linejoin="round"/>
</g>
</g>
</svg>
