<svg width="20" height="20" viewBox="0 0 20 20" fill="none" xmlns="http://www.w3.org/2000/svg">
<g id="vuesax/linear/eye">
<g id="eye">
<path id="Vector" d="M12.8415 10.1784C12.8415 11.7788 11.5483 13.0721 9.94786 13.0721C8.34747 13.0721 7.05421 11.7788 7.05421 10.1784C7.05421 8.57804 8.34747 7.28479 9.94786 7.28479C11.5483 7.28479 12.8415 8.57804 12.8415 10.1784Z" stroke="#292D32" stroke-width="1.21242" stroke-linecap="round" stroke-linejoin="round"/>
<path id="Vector_2" d="M9.94785 16.8632C12.8011 16.8632 15.4603 15.1819 17.3113 12.2721C18.0388 11.1324 18.0388 9.2168 17.3113 8.07713C15.4603 5.16731 12.8011 3.48608 9.94785 3.48608C7.09462 3.48608 4.43537 5.16731 2.5844 8.07713C1.85695 9.2168 1.85695 11.1324 2.5844 12.2721C4.43537 15.1819 7.09462 16.8632 9.94785 16.8632Z" stroke="#292D32" stroke-width="1.21242" stroke-linecap="round" stroke-linejoin="round"/>
</g>
</g>
</svg>
