<svg width="16" height="16" viewBox="0 0 16 16" fill="none" xmlns="http://www.w3.org/2000/svg">
<path d="M10.3867 7.99995C10.3867 9.31995 9.32002 10.3866 8.00002 10.3866C6.68002 10.3866 5.61336 9.31995 5.61336 7.99995C5.61336 6.67995 6.68002 5.61328 8.00002 5.61328C9.32002 5.61328 10.3867 6.67995 10.3867 7.99995Z" stroke="white" stroke-linecap="round" stroke-linejoin="round"/>
<path d="M7.99997 13.5133C10.3533 13.5133 12.5466 12.1266 14.0733 9.72665C14.6733 8.78665 14.6733 7.20665 14.0733 6.26665C12.5466 3.86665 10.3533 2.47998 7.99997 2.47998C5.64664 2.47998 3.45331 3.86665 1.92664 6.26665C1.32664 7.20665 1.32664 8.78665 1.92664 9.72665C3.45331 12.1266 5.64664 13.5133 7.99997 13.5133Z" stroke="white" stroke-linecap="round" stroke-linejoin="round"/>
</svg>
