<svg width="346" height="346" viewBox="0 0 346 346" fill="none" xmlns="http://www.w3.org/2000/svg">
<path d="M125.48 207.171C125.48 207.171 118.803 202.514 115.737 203.358C112.671 204.202 108.741 208.513 108.741 208.513C108.741 208.513 116.519 206.271 118.865 206.742C121.056 207.052 123.268 207.195 125.48 207.171Z" fill="#E0E0E0"/>
<path d="M127.729 208.852C126.754 211.053 125.079 212.887 124.138 215.081C123.067 217.643 123.049 220.525 124.089 223.101C125.817 221.171 126.993 218.812 127.494 216.271C127.983 213.921 128.245 211.529 128.276 209.129L127.729 208.852Z" fill="#E0E0E0"/>
<path d="M126.705 208.292C127.01 207.392 119.453 207.787 117.017 210.7C114.581 213.613 112.173 216.783 114.249 224.139C114.249 224.139 118.809 216.167 118.809 216.285C118.809 216.402 126.096 210.05 126.705 208.292Z" fill="#E0E0E0"/>
<path d="M126.761 208.188C126.069 208.458 132.926 210.548 136.096 210.804C137.832 211.002 139.591 210.725 141.182 210.001C141.182 210.001 136.58 204.375 126.761 208.188Z" fill="#E0E0E0"/>
<path d="M161.451 237.121C161.451 237.121 164.758 235.737 165.692 236.706C166.627 237.674 170.44 242.698 174.059 243.01C174.059 243.01 170.751 235.979 167.755 234.844C165.782 234.097 161.451 237.121 161.451 237.121Z" fill="#E0E0E0"/>
<path d="M162.302 236.74C162.302 236.74 162.17 234.256 160.918 232.948C159.665 231.64 155.174 230.754 155.174 230.754C156.081 232.185 157.191 233.476 158.468 234.588C159.656 235.455 160.943 236.177 162.302 236.74Z" fill="#E0E0E0"/>
<path d="M162.302 236.595C162.302 236.595 159.997 236.595 158.371 239.439C157.288 241.392 156.486 243.489 155.991 245.667C156.129 245.425 160.336 243.591 161.444 241.252C162.109 239.794 162.404 238.194 162.302 236.595Z" fill="#E0E0E0"/>
<path d="M162.821 236.595C162.821 236.595 163.236 242.075 164.163 243.01C165.09 243.944 166.44 247.348 166.44 247.348C166.44 247.348 168.516 242.387 167.367 240.013C166.218 237.64 162.821 236.595 162.821 236.595Z" fill="#E0E0E0"/>
<path d="M142.739 247.182C142.476 247.577 137.203 251.687 136.379 253.68C135.556 255.673 136.248 258.718 136.379 259.645C136.511 260.573 141.147 258.448 141.915 254.871C142.43 252.339 142.705 249.765 142.739 247.182Z" fill="#E0E0E0"/>
<path d="M143.777 244.103C143.777 244.76 143.853 251.258 145.562 253.528C146.999 255.262 148.623 256.831 150.406 258.206C150.406 258.206 151.527 249.992 149.161 247.452C147.675 245.903 145.823 244.751 143.777 244.103Z" fill="#E0E0E0"/>
<path d="M142.995 245.217C142.607 245.127 137.812 244.67 135.528 247.404C134.085 249.179 132.889 251.141 131.971 253.237C131.971 253.237 139.223 249.639 140.552 248.047C141.881 246.456 142.995 245.217 142.995 245.217Z" fill="#E0E0E0"/>
<path d="M146.296 242.242C146.898 241.829 147.606 241.6 148.336 241.581C149.065 241.563 149.784 241.756 150.406 242.138C152.558 243.48 156.143 248.698 156.143 248.698C156.143 248.698 151.756 248.428 149.472 246.214C148.196 245.079 147.122 243.736 146.296 242.242Z" fill="#E0E0E0"/>
<path d="M143.175 243.051C143.175 243.051 140.407 240.684 138.269 240.159C136.13 239.633 129.916 241.183 129.916 241.183C132.038 242.616 134.589 243.276 137.141 243.051C141.452 242.677 143.175 243.051 143.175 243.051Z" fill="#E0E0E0"/>
<path d="M133.944 267.112C133.944 267.112 131.951 270.96 133.944 273.084C135.936 275.208 137.002 279.45 137.002 279.45C137.002 279.45 140.462 276.129 138.718 272.42C137.7 270.208 136.035 268.357 133.944 267.112Z" fill="#E0E0E0"/>
<path d="M130.788 267.209C130.255 267.479 126.809 272.115 126.546 275.43C126.283 278.745 126.013 284.426 126.546 284.052C127.079 283.678 130.92 280.073 131.978 276.627C133.037 273.181 130.788 267.209 130.788 267.209Z" fill="#E0E0E0"/>
<path d="M129.452 266.849C128.927 266.981 123.916 266.053 121.1 269.617C119.139 272.34 117.493 275.277 116.194 278.371C116.194 278.371 123.487 274.641 125.19 272.593C126.892 270.544 129.452 266.849 129.452 266.849Z" fill="#E0E0E0"/>
<path d="M157.914 260.483C157.914 260.483 156.399 264.994 157.914 268.973C158.781 271.281 159.865 273.501 161.153 275.603C161.153 275.603 163.395 267.645 161.942 265.52C160.489 263.396 157.914 260.483 157.914 260.483Z" fill="#E0E0E0"/>
<path d="M158.745 260.005C159.278 260.503 165.499 269.43 169.727 270.226C173.955 271.022 170.384 269.887 170.384 269.887C170.384 269.887 169.056 263.873 167.16 261.382C165.263 258.891 158.745 260.005 158.745 260.005Z" fill="#E0E0E0"/>
<path d="M157.776 259.846C157.776 259.846 162.364 256.663 164.156 255.853C165.949 255.043 171.886 256.109 171.886 256.109C171.886 256.109 164.696 259.86 162.966 259.5C161.236 259.14 157.797 260.635 157.797 260.635" fill="#E0E0E0"/>
<path d="M173.747 216.437C173.747 216.437 169.775 220.651 170.287 223.945C170.668 226.14 171.238 228.298 171.99 230.394L173.734 224.602L173.747 216.437Z" fill="#E0E0E0"/>
<path d="M174.287 215.593C174.287 215.593 173.367 222.049 175.207 224.679C177.048 227.308 179.553 232.291 179.816 231.924C180.079 231.557 183.899 228.104 181.138 223.232C179.406 220.24 177.074 217.639 174.287 215.593Z" fill="#E0E0E0"/>
<path d="M172.952 216.734C172.952 216.734 166.599 214.894 165.686 217.925C164.772 220.956 164.004 223.585 164.004 223.585C165.349 222.18 166.854 220.938 168.488 219.883C170.037 218.923 171.528 217.872 172.952 216.734Z" fill="#E0E0E0"/>
<path d="M144.462 218.444L144.981 217.994C146.483 216.714 150.863 213.191 153.077 213.731C155.267 214.351 157.409 215.13 159.485 216.063C159.485 216.063 149.887 221.046 144.462 218.444Z" fill="#E0E0E0"/>
<path d="M145.749 218.485C145.749 218.008 142.863 217.24 140.31 219.869C137.756 222.499 137.369 224.125 137.369 224.125C137.369 224.125 145.569 223.032 145.749 218.485Z" fill="#E0E0E0"/>
<path d="M145.32 219.018C145.32 219.018 142.4 222.374 144.628 225.668C146.856 228.962 148.78 232.124 148.78 232.124C149.468 229.994 149.468 227.702 148.78 225.571C147.98 223.218 146.812 221.006 145.32 219.018Z" fill="#E0E0E0"/>
<path d="M156.212 227.377C156.081 226.575 157.139 220.001 148.441 220.651H147.645C147.645 220.651 151.797 227.363 152.759 229.474C153.33 230.911 154.256 232.18 155.451 233.162C156.475 234.083 156.344 228.18 156.212 227.377Z" fill="#E0E0E0"/>
<path d="M157.894 260.192C157.948 259.164 157.792 258.137 157.435 257.172C157.078 256.207 156.528 255.325 155.818 254.58C155.686 254.435 155.492 254.289 155.319 254.372C155.265 254.407 155.217 254.453 155.181 254.506C155.144 254.56 155.118 254.62 155.105 254.684C154.79 255.905 154.964 257.201 155.589 258.296C156.221 259.374 157.015 260.35 157.942 261.188" fill="#E0E0E0"/>
<path d="M133.383 266.275C131.806 263.408 129.327 261.141 126.332 259.825C126.153 259.726 125.947 259.685 125.743 259.708C125.594 259.754 125.463 259.846 125.368 259.97C125.272 260.093 125.218 260.243 125.21 260.4C125.201 261.054 125.449 261.685 125.902 262.157C127.82 264.662 130.622 266.338 133.736 266.842" fill="#E0E0E0"/>
<path d="M168.232 256.566C168.232 256.566 167.789 256.566 166.987 256.69C165.862 256.839 164.761 257.125 163.706 257.542C162.143 258.164 160.67 258.993 159.326 260.005C157.696 261.269 156.152 262.64 154.704 264.109C151.541 267.188 148.752 270.039 146.822 272.184C145.86 273.257 145.092 274.136 144.566 274.752L143.95 275.444C143.811 275.603 143.735 275.686 143.721 275.679C143.771 275.58 143.831 275.487 143.901 275.402C144.033 275.236 144.22 274.98 144.469 274.669C144.967 274.032 145.707 273.125 146.656 272.032C148.552 269.845 151.32 266.953 154.482 263.88C155.937 262.396 157.498 261.02 159.153 259.763C160.526 258.747 162.033 257.925 163.63 257.32C164.708 256.919 165.834 256.665 166.98 256.566C167.288 256.548 167.598 256.548 167.907 256.566C168.015 256.554 168.124 256.554 168.232 256.566Z" fill="#E0E0E0"/>
<path d="M143.555 273.776C143.507 273.811 142.988 272.911 141.86 271.7C140.393 270.127 138.592 268.903 136.59 268.117C134.588 267.331 132.435 267.005 130.29 267.16C128.643 267.271 127.653 267.576 127.639 267.52C127.858 267.411 128.091 267.332 128.331 267.285C128.969 267.116 129.619 267 130.276 266.939C132.462 266.718 134.669 267.021 136.715 267.823C138.76 268.624 140.586 269.901 142.04 271.548C142.482 272.041 142.88 272.571 143.23 273.132C143.365 273.333 143.474 273.549 143.555 273.776Z" fill="#E0E0E0"/>
<path d="M145.265 218.395C145.271 218.46 145.271 218.525 145.265 218.589C145.265 218.727 145.265 218.914 145.216 219.143C145.168 219.648 145.099 220.36 145.009 221.267C144.822 223.108 144.552 225.779 144.254 229.08C143.673 235.674 142.981 244.816 142.995 254.926C143.009 265.036 143.735 274.177 144.247 280.779C144.517 284.066 144.732 286.737 144.884 288.606C144.953 289.512 145.009 290.225 145.05 290.73C145.05 290.958 145.05 291.145 145.085 291.284C145.094 291.348 145.094 291.413 145.085 291.477C145.067 291.416 145.056 291.354 145.05 291.29C145.05 291.145 145.05 290.965 144.988 290.737C144.932 290.232 144.856 289.519 144.766 288.612C144.58 286.772 144.317 284.101 144.026 280.8C143.458 274.198 142.711 265.057 142.642 254.926C142.573 244.795 143.334 235.654 144.026 229.059C144.351 225.758 144.656 223.094 144.877 221.253C144.992 220.33 145.082 219.625 145.147 219.136L145.23 218.582C145.231 218.518 145.243 218.455 145.265 218.395Z" fill="#E0E0E0"/>
<path d="M165.097 236.193C164.794 236.274 164.483 236.323 164.17 236.339C163.575 236.401 162.71 236.519 161.651 236.685C156.119 237.574 150.792 239.449 145.922 242.221C144.988 242.747 144.247 243.196 143.735 243.522C143.482 243.704 143.211 243.859 142.926 243.985C143.158 243.775 143.408 243.586 143.673 243.418C144.157 243.065 144.891 242.587 145.811 242.034C150.655 239.147 156.03 237.264 161.617 236.498C162.689 236.359 163.554 236.276 164.156 236.249C164.468 236.203 164.783 236.184 165.097 236.193Z" fill="#E0E0E0"/>
<path d="M143.625 233.259C143.589 233.144 143.562 233.026 143.542 232.906C143.493 232.637 143.438 232.297 143.362 231.882C143.286 231.342 143.18 230.806 143.043 230.277C142.884 229.661 142.767 228.941 142.497 228.201C142.372 227.82 142.248 227.419 142.116 227.004C141.985 226.588 141.798 226.173 141.632 225.73C141.306 224.845 140.85 223.945 140.393 222.962C139.319 220.929 138.051 219.003 136.608 217.212C133.923 213.995 130.799 211.172 127.328 208.825C126.684 208.347 126.055 207.988 125.522 207.628C124.989 207.268 124.512 206.998 124.138 206.77L123.245 206.216C123.139 206.159 123.04 206.092 122.948 206.015C123.064 206.049 123.176 206.098 123.28 206.161L124.193 206.652C124.595 206.86 125.079 207.123 125.619 207.469C126.159 207.815 126.802 208.161 127.466 208.624C130.992 210.937 134.154 213.762 136.85 217.004C138.308 218.812 139.58 220.762 140.649 222.824C141.106 223.724 141.515 224.648 141.874 225.592C142.033 226.042 142.227 226.457 142.344 226.886C142.462 227.315 142.594 227.71 142.711 228.097C142.916 228.796 143.084 229.505 143.216 230.221C143.343 230.754 143.433 231.295 143.486 231.841C143.535 232.263 143.576 232.602 143.604 232.872C143.631 232.999 143.638 233.13 143.625 233.259Z" fill="#E0E0E0"/>
<path d="M174.744 216.132C174.64 216.196 174.528 216.248 174.412 216.285L173.436 216.651C172.585 216.956 171.36 217.419 169.865 218.035C165.963 219.599 162.158 221.392 158.468 223.405C154.789 225.44 151.235 227.693 147.825 230.152C146.51 231.093 145.465 231.875 144.753 232.429L143.922 233.059C143.828 233.136 143.726 233.203 143.618 233.259C143.618 233.259 143.701 233.162 143.881 233.003L144.676 232.311C145.368 231.73 146.393 230.927 147.694 229.945C154.462 224.897 161.895 220.808 169.782 217.793C171.291 217.219 172.55 216.783 173.388 216.513L174.384 216.202C174.501 216.166 174.622 216.143 174.744 216.132Z" fill="#E0E0E0"/>
<path d="M156.378 321.143H131.397L128.788 290.626H159.305L156.378 321.143Z" fill="#E0E0E0"/>
<path d="M161.333 290.626H126.857V295.318H161.333V290.626Z" fill="#E0E0E0"/>
<path d="M161.111 295.332C161.111 295.415 153.396 295.491 143.894 295.491C134.393 295.491 126.671 295.415 126.671 295.332C126.671 295.249 134.379 295.173 143.894 295.173C153.409 295.173 161.111 295.242 161.111 295.332Z" fill="#EBEBEB"/>
<path d="M266.178 321.6L287.394 321.767L287.604 294.987L266.388 294.821L266.178 321.6Z" fill="#EBEBEB"/>
<path d="M279.298 295.788L278.918 321.718L275.568 321.69L276.288 295.761L279.298 295.788Z" fill="#FAFAFA"/>
<path d="M254.199 295.595L266.372 295.685L287.588 295.851L266.344 298.646L266.164 321.621L253.999 321.524L254.199 295.595Z" fill="#E0E0E0"/>
<path d="M260.822 295.643L260.337 321.572L256.732 321.545L257.32 295.615L260.822 295.643Z" fill="#FAFAFA"/>
<path d="M270.454 287.754C270.454 287.913 270.108 288.086 269.458 288.246C267.868 288.594 266.237 288.713 264.614 288.599C264.254 288.599 263.873 288.529 263.486 288.467C263.067 288.411 262.653 288.323 262.247 288.204C261.982 288.125 261.727 288.016 261.486 287.879C261.16 287.693 260.882 287.432 260.676 287.118C260.458 286.769 260.338 286.367 260.33 285.955C260.327 285.652 260.362 285.35 260.434 285.056C260.622 284.135 260.893 283.234 261.244 282.364C261.452 281.876 261.712 281.412 262.019 280.98C262.18 280.761 262.356 280.553 262.545 280.357C262.753 280.141 262.985 279.951 263.237 279.789C263.531 279.602 263.857 279.471 264.199 279.402C264.561 279.319 264.937 279.319 265.299 279.402C265.839 279.554 266.336 279.829 266.752 280.205C267.882 281.16 268.821 282.32 269.52 283.623C269.993 284.483 270.309 285.42 270.454 286.391C270.537 287.083 270.454 287.478 270.302 287.519C269.956 287.595 269.458 286.232 268.108 284.516C267.324 283.525 266.406 282.647 265.382 281.907C265.204 281.754 264.994 281.645 264.766 281.589C264.728 281.578 264.687 281.578 264.648 281.589C264.585 281.613 264.524 281.646 264.469 281.685C264.371 281.755 264.281 281.834 264.199 281.921C264.092 282.04 263.993 282.164 263.901 282.294C263.698 282.587 263.526 282.9 263.389 283.229C263.091 283.969 262.846 284.73 262.656 285.505C262.625 285.614 262.604 285.725 262.593 285.837H262.531C262.455 285.837 262.434 285.879 262.483 285.837L262.566 285.775C262.583 285.797 262.604 285.816 262.628 285.831C262.723 285.895 262.825 285.949 262.932 285.99C263.241 286.1 263.555 286.195 263.873 286.273C264.206 286.363 264.565 286.433 264.849 286.495C265.486 286.626 266.095 286.716 266.655 286.792C267.783 286.945 268.731 287.042 269.375 287.166C270.018 287.291 270.454 287.588 270.454 287.754Z" fill="#E0E0E0"/>
<path d="M270.018 287.948C269.963 287.609 271.548 287.111 274.025 286.384C275.44 285.976 276.827 285.477 278.177 284.889C278.499 284.76 278.804 284.59 279.084 284.384C279.18 284.308 279.222 284.232 279.208 284.239C279.194 284.246 279.208 284.336 279.208 284.287C279.17 284.16 279.119 284.037 279.056 283.921C278.959 283.706 278.855 283.499 278.751 283.284C278.561 282.888 278.346 282.505 278.108 282.135C277.895 281.803 277.642 281.498 277.354 281.229C277.217 281.108 277.074 280.995 276.925 280.89C276.804 280.806 276.674 280.736 276.537 280.682C276.342 280.593 276.123 280.571 275.914 280.62C275.635 280.712 275.379 280.86 275.16 281.056C274.062 281.976 273.087 283.034 272.26 284.204C270.842 286.232 270.468 287.81 270.115 287.761C269.956 287.761 269.838 287.305 269.894 286.53C270.005 285.428 270.317 284.356 270.814 283.367C271.539 281.887 272.523 280.549 273.721 279.416C274.149 278.996 274.66 278.671 275.222 278.461C275.899 278.243 276.629 278.255 277.298 278.495C277.608 278.606 277.905 278.75 278.184 278.924C278.935 279.421 279.573 280.07 280.059 280.827C280.359 281.284 280.623 281.763 280.848 282.26L281.16 282.952C281.306 283.262 281.411 283.59 281.471 283.928C281.547 284.402 281.464 284.889 281.236 285.312C281.041 285.656 280.772 285.951 280.447 286.177C280 286.474 279.513 286.707 279.001 286.869C277.497 287.411 275.937 287.785 274.35 287.983C271.707 288.349 270.074 288.253 270.018 287.948Z" fill="#EBEBEB"/>
<path d="M250.343 295.551L281.531 295.796L281.6 286.932L250.413 286.687L250.343 295.551Z" fill="#E0E0E0"/>
<path d="M261.811 295.637L290.002 295.858L290.071 286.994L261.88 286.773L261.811 295.637Z" fill="#EBEBEB"/>
<path d="M281.416 286.938L281.215 295.844L277.928 295.775L278.156 286.917L281.416 286.938Z" fill="#FAFAFA"/>
<path d="M258.054 286.799L257.735 295.629L254.123 295.602L254.317 286.73L258.054 286.799Z" fill="#FAFAFA"/>
<path d="M289.666 321.676L301.686 321.77L301.805 306.595L289.785 306.5L289.666 321.676Z" fill="#EBEBEB"/>
<path d="M297.089 307.054L296.875 321.745L294.979 321.732L295.387 307.04L297.089 307.054Z" fill="#FAFAFA"/>
<path d="M282.869 306.944L289.768 306.992L301.788 307.089L289.754 308.674L289.65 321.69L282.758 321.635L282.869 306.944Z" fill="#E0E0E0"/>
<path d="M286.619 306.971L286.35 321.662L284.301 321.649L284.633 306.957L286.619 306.971Z" fill="#FAFAFA"/>
<path d="M292.079 302.501C292.079 302.722 291.29 302.992 289.913 303.11C289.068 303.178 288.217 303.108 287.395 302.902C286.997 302.796 286.651 302.55 286.419 302.21C286.276 301.989 286.199 301.733 286.197 301.47C286.193 301.283 286.214 301.097 286.26 300.916C286.366 300.386 286.521 299.867 286.723 299.366C286.847 299.083 287 298.814 287.18 298.563C287.382 298.287 287.636 298.052 287.927 297.871C288.116 297.75 288.327 297.667 288.548 297.629C288.77 297.591 288.996 297.598 289.214 297.65C289.542 297.746 289.845 297.914 290.1 298.141C290.755 298.697 291.293 299.377 291.685 300.141C292.335 301.456 292.239 302.383 292.031 302.418C291.823 302.452 291.463 301.726 290.688 300.785C290.237 300.245 289.719 299.766 289.145 299.359C289.061 299.288 288.962 299.239 288.855 299.214C288.836 299.222 288.82 299.234 288.806 299.248C288.698 299.334 288.604 299.437 288.529 299.553C288.421 299.709 288.328 299.876 288.253 300.051C288.091 300.462 287.957 300.882 287.851 301.311L287.817 301.463H287.706H287.616C287.561 301.463 287.568 301.463 287.616 301.463C287.66 301.434 287.699 301.399 287.734 301.359H287.768C287.81 301.391 287.857 301.417 287.907 301.435C288.583 301.657 289.278 301.819 289.983 301.92C291.235 302.113 292.079 302.259 292.079 302.501Z" fill="#E0E0E0"/>
<path d="M291.83 302.612C291.789 302.356 292.681 302.01 294.065 301.56C294.855 301.307 295.629 301.009 296.384 300.667C296.548 300.602 296.702 300.514 296.84 300.404C296.882 300.349 296.882 300.404 296.84 300.404C296.81 300.459 296.796 300.521 296.799 300.584C296.716 300.418 296.633 300.252 296.557 300.079C296.451 299.865 296.333 299.657 296.204 299.456C296.095 299.286 295.964 299.13 295.816 298.992C295.706 298.882 295.577 298.79 295.436 298.723C295.375 298.687 295.304 298.675 295.235 298.688C295.103 298.722 294.982 298.789 294.882 298.882C294.269 299.381 293.718 299.953 293.242 300.584C292.418 301.677 292.142 302.542 291.858 302.508C291.574 302.473 291.436 301.442 292.107 299.934C292.51 299.065 293.071 298.279 293.761 297.615C294.024 297.353 294.34 297.15 294.688 297.02C295.124 296.875 295.595 296.875 296.031 297.02C296.221 297.092 296.404 297.182 296.577 297.29C296.732 297.387 296.878 297.499 297.013 297.622C297.279 297.86 297.512 298.133 297.705 298.432C297.882 298.701 298.037 298.983 298.169 299.276L298.349 299.664C298.437 299.861 298.502 300.068 298.543 300.28C298.593 300.605 298.534 300.938 298.377 301.228C298.252 301.452 298.077 301.644 297.865 301.788C297.596 301.975 297.303 302.122 296.993 302.224C296.124 302.527 295.223 302.724 294.308 302.812C292.806 302.965 291.872 302.847 291.83 302.612Z" fill="#E0E0E0"/>
<path d="M280.696 306.914L298.369 307.053L298.409 302.029L280.736 301.89L280.696 306.914Z" fill="#E0E0E0"/>
<path d="M287.195 306.959L303.166 307.085L303.205 302.061L287.234 301.935L287.195 306.959Z" fill="#EBEBEB"/>
<path d="M298.287 302.037L298.176 307.082L296.314 307.047L296.446 302.023L298.287 302.037Z" fill="#FAFAFA"/>
<path d="M285.056 301.961L284.876 306.964L282.827 306.943L282.938 301.92L285.056 301.961Z" fill="#FAFAFA"/>
<path d="M121.017 29.4169H29.41V181.048H121.017V29.4169Z" fill="#E0E0E0"/>
<path d="M117.972 29.4169H26.3652V181.048H117.972V29.4169Z" fill="#EBEBEB"/>
<path d="M114.069 32.4963H30.2681V177.975H114.069V32.4963Z" fill="#FAFAFA"/>
<path d="M97.7519 51.3948H46.2187V159.07H97.7519V51.3948Z" fill="#EBEBEB"/>
<path d="M46.2187 120.969C46.101 110.914 55.1455 101.094 65.1034 99.6895C69.8505 98.9975 74.9021 99.9594 79.3378 98.1394C87.2612 94.894 89.7801 84.3686 97.7519 81.2477L98.1118 159.07H46.2118L46.2187 120.969Z" fill="#E0E0E0"/>
<path d="M324.714 321.78C324.714 321.884 256.476 321.967 172.315 321.967C88.1539 321.967 19.9019 321.884 19.9019 321.78C19.9019 321.676 88.1262 321.6 172.315 321.6C256.504 321.6 324.714 321.683 324.714 321.78Z" fill="#263238"/>
<path d="M299.345 59.9341H150.628V250.165H299.345V59.9341Z" fill="white"/>
<path d="M231.315 260.538C231.313 261.742 230.955 262.919 230.285 263.92C229.614 264.921 228.662 265.7 227.549 266.16C226.436 266.619 225.211 266.739 224.03 266.502C222.849 266.266 221.765 265.685 220.914 264.832C220.064 263.98 219.485 262.894 219.251 261.712C219.018 260.531 219.14 259.306 219.602 258.194C220.064 257.082 220.846 256.132 221.848 255.464C222.85 254.796 224.028 254.44 225.232 254.441C226.032 254.441 226.824 254.599 227.563 254.906C228.302 255.212 228.973 255.662 229.538 256.228C230.103 256.794 230.551 257.466 230.856 258.206C231.161 258.946 231.317 259.738 231.315 260.538Z" fill="#455A64"/>
<path d="M293.014 223.848C292.779 223.848 292.546 223.802 292.329 223.712C292.112 223.621 291.915 223.489 291.749 223.323C291.583 223.156 291.451 222.959 291.362 222.741C291.273 222.524 291.227 222.291 291.228 222.056L291.297 87.0051C291.297 86.7701 291.344 86.5374 291.434 86.3203C291.524 86.1033 291.656 85.9061 291.823 85.7403C291.989 85.5744 292.187 85.443 292.404 85.3537C292.622 85.2644 292.855 85.2189 293.09 85.2198C293.563 85.2216 294.016 85.4103 294.35 85.7447C294.685 86.0791 294.873 86.5322 294.875 87.0051L294.792 222.056C294.793 222.29 294.748 222.523 294.659 222.74C294.57 222.957 294.439 223.154 294.274 223.32C294.109 223.487 293.913 223.619 293.696 223.71C293.48 223.8 293.248 223.847 293.014 223.848Z" fill="#E0E0E0"/>
<path d="M256.137 75.4972C256.137 75.601 242.338 75.6702 225.322 75.6633C208.306 75.6563 194.507 75.5664 194.507 75.4695C194.507 75.3726 208.306 75.2965 225.322 75.3034C242.338 75.3103 256.137 75.428 256.137 75.4972Z" fill="#263238"/>
<path d="M165.077 78.9295H165.277H165.831L167.858 78.8741L167.796 78.9433C167.796 78.4866 167.796 77.9953 167.796 77.4625C167.796 77.1926 167.796 76.9365 167.796 76.6113C167.829 76.4454 167.914 76.2943 168.038 76.1798C168.162 76.0654 168.32 75.9935 168.488 75.9747C168.82 75.9747 169.104 75.9747 169.464 75.9747C169.656 76.0014 169.832 76.0967 169.959 76.243C170.086 76.3892 170.156 76.5766 170.156 76.7705C170.156 77.4625 170.156 78.1545 170.156 78.9226L170.052 78.8188H172.619L172.509 78.9295C172.509 77.8984 172.509 76.8535 172.509 75.7325C172.509 75.4626 172.509 75.1858 172.509 74.9159C172.498 74.7959 172.46 74.68 172.397 74.5769C172.335 74.4739 172.25 74.3863 172.149 74.3208L171.028 73.2136L169.948 72.1479C169.775 71.968 169.595 71.795 169.422 71.6289C169.249 71.4628 169.104 71.276 168.896 71.2345C168.798 71.2099 168.696 71.207 168.597 71.2261C168.498 71.2453 168.404 71.2859 168.322 71.3452C168.17 71.4697 167.997 71.6566 167.845 71.8088L166.876 72.66C166.295 73.262 165.686 73.8156 165.25 74.3277C165.125 74.6296 165.082 74.9589 165.125 75.2827C165.125 75.601 165.125 75.8985 165.125 76.1892C165.125 76.7358 165.125 77.2202 165.125 77.6424C165.125 78.0645 165.125 78.3344 165.125 78.5766C165.135 78.6894 165.135 78.8028 165.125 78.9157C165.116 78.8121 165.116 78.7078 165.125 78.6042C165.125 78.3551 165.125 78.0506 165.125 77.6908V76.2168C165.125 75.9262 165.125 75.6217 165.125 75.2965V74.7913C165.125 74.6017 165.175 74.4155 165.27 74.2516C165.748 73.6634 166.315 73.1513 166.897 72.5285L167.81 71.5943C167.967 71.422 168.134 71.258 168.308 71.103C168.414 71.0225 168.537 70.967 168.668 70.9407C168.799 70.9143 168.933 70.9177 169.063 70.9507C169.308 71.0389 169.524 71.1948 169.685 71.4005L170.211 71.9126L171.298 72.9783L172.419 74.0855C172.541 74.1707 172.643 74.2819 172.717 74.4111C172.791 74.5403 172.836 74.6843 172.848 74.8328C172.848 75.1096 172.848 75.3795 172.848 75.6563C172.848 76.7497 172.848 77.8223 172.848 78.8534V78.9641H172.737H170.17H170.066V78.888C170.066 78.1406 170.066 77.4278 170.066 76.7358C170.071 76.5901 170.022 76.4475 169.929 76.3353C169.836 76.223 169.705 76.1489 169.561 76.1269C169.27 76.1269 168.917 76.1269 168.633 76.1269C168.502 76.1391 168.377 76.1936 168.279 76.2821C168.18 76.3706 168.113 76.4884 168.087 76.6182C168.087 76.8743 168.087 77.1787 168.087 77.4348V78.9779H168.025H165.949H165.416L165.077 78.9295Z" fill="#263238"/>
<path d="M282.772 72.051C282.752 72.03 282.725 72.0176 282.696 72.0164H276.641H274.343L274.302 71.6704L274.205 70.9784C274.202 70.9545 274.19 70.9324 274.173 70.916C274.155 70.8996 274.132 70.8899 274.108 70.8885H272.427C272.295 70.8885 272.205 70.8885 272.205 70.9992C272.205 71.1099 272.295 71.1099 272.427 71.1099H273.963L274.821 77.7393C274.822 77.752 274.825 77.7644 274.831 77.7758C274.837 77.7873 274.844 77.7975 274.854 77.8058C274.864 77.8142 274.875 77.8205 274.887 77.8246C274.899 77.8286 274.912 77.8302 274.925 77.8292H279.866H281.72C281.879 77.8292 281.955 77.8292 281.955 77.7254C281.955 77.6216 281.879 77.6147 281.72 77.6078L275.091 77.5178L274.939 76.3483L281.9 76.4383C281.924 76.4388 281.948 76.4307 281.967 76.4156C281.986 76.4004 281.999 76.3791 282.004 76.3553L282.516 73.5873L282.793 72.0925C282.789 72.0772 282.782 72.063 282.772 72.051ZM274.378 72.2033L282.461 72.314L281.769 76.1892H276.807H274.932L274.378 72.2033Z" fill="#263238"/>
<path d="M276.8 79.4001C276.759 79.2187 276.659 79.0558 276.516 78.9364C276.408 78.8493 276.279 78.7914 276.143 78.7684C276.006 78.7454 275.865 78.758 275.734 78.8049C275.573 78.8626 275.434 78.9686 275.335 79.1086C275.236 79.2486 275.183 79.4157 275.183 79.5869C275.183 79.7581 275.236 79.9252 275.335 80.0652C275.434 80.2052 275.573 80.3112 275.734 80.3689C275.823 80.4012 275.917 80.4176 276.011 80.4173C276.194 80.4179 276.372 80.3569 276.516 80.2443C276.666 80.1328 276.769 79.9703 276.807 79.7876C276.818 79.7234 276.818 79.658 276.807 79.5938C276.812 79.5292 276.809 79.4642 276.8 79.4001ZM275.817 80.0921C275.713 80.0531 275.623 79.9831 275.56 79.8916C275.496 79.8001 275.462 79.6914 275.462 79.58C275.462 79.4686 275.496 79.3599 275.56 79.2683C275.623 79.1768 275.713 79.1069 275.817 79.0679C275.879 79.0581 275.942 79.0581 276.004 79.0679C276.124 79.0693 276.24 79.108 276.336 79.1786C276.438 79.2549 276.513 79.3615 276.551 79.4831C276.555 79.5222 276.555 79.5617 276.551 79.6007V79.58C276.558 79.6188 276.558 79.6588 276.551 79.6976C276.513 79.8192 276.438 79.9258 276.336 80.0021C276.262 80.065 276.172 80.107 276.076 80.124C275.98 80.141 275.881 80.1324 275.79 80.099L275.817 80.0921Z" fill="#263238"/>
<path d="M281.201 79.4347C281.168 79.2538 281.069 79.0913 280.924 78.9779C280.817 78.8884 280.689 78.8285 280.552 78.8042C280.415 78.7799 280.273 78.7921 280.142 78.8395C279.981 78.8972 279.842 79.0032 279.743 79.1432C279.644 79.2832 279.591 79.4503 279.591 79.6215C279.591 79.7927 279.644 79.9598 279.743 80.0998C279.842 80.2398 279.981 80.3458 280.142 80.4035C280.231 80.4358 280.325 80.4522 280.419 80.4519C280.602 80.4525 280.78 80.3915 280.924 80.2789C281.074 80.1674 281.177 80.0049 281.215 79.8222C281.225 79.758 281.225 79.6926 281.215 79.6284C281.221 79.5635 281.217 79.498 281.201 79.4347ZM280.225 80.1267C280.122 80.0849 280.034 80.0131 279.972 79.9205C279.911 79.8279 279.878 79.7189 279.879 79.6077C279.88 79.4967 279.915 79.3886 279.98 79.2982C280.044 79.2078 280.135 79.1395 280.239 79.1025C280.301 79.0927 280.364 79.0927 280.426 79.1025C280.546 79.1039 280.662 79.1426 280.758 79.2132C280.826 79.2619 280.882 79.325 280.923 79.398C280.964 79.471 280.988 79.552 280.994 79.6353C281.001 79.6742 281.001 79.7141 280.994 79.753C280.958 79.8755 280.882 79.9826 280.779 80.0575C280.706 80.1121 280.62 80.1476 280.529 80.1609C280.439 80.1742 280.346 80.1648 280.26 80.1336L280.225 80.1267Z" fill="#263238"/>
<path d="M195.974 216.817H193.497V215.641H199.85V216.817H197.365V223.128H195.981L195.974 216.817Z" fill="#0560FA"/>
<path d="M206.396 219.855V223.128H205.06V220.056C205.06 219.039 204.555 218.547 203.676 218.547C203.453 218.534 203.229 218.571 203.022 218.654C202.814 218.737 202.628 218.866 202.475 219.03C202.323 219.194 202.209 219.39 202.142 219.603C202.074 219.816 202.055 220.042 202.085 220.264V223.156H200.749V215.212H202.085V218.098C202.335 217.852 202.633 217.661 202.96 217.536C203.288 217.411 203.638 217.355 203.988 217.371C205.379 217.35 206.396 218.132 206.396 219.855Z" fill="#0560FA"/>
<path d="M212.88 219.779V223.128H211.614V222.436C211.406 222.708 211.132 222.921 210.818 223.057C210.504 223.192 210.161 223.246 209.821 223.212C208.513 223.212 207.69 222.519 207.69 221.495C207.69 220.471 208.334 219.8 210.064 219.8H211.544V219.71C211.544 218.928 211.074 218.471 210.119 218.471C209.495 218.463 208.886 218.662 208.389 219.039L207.863 218.063C208.573 217.579 209.42 217.337 210.278 217.371C211.925 217.35 212.88 218.132 212.88 219.779ZM211.544 221.343V220.651H210.16C209.254 220.651 209.005 220.99 209.005 221.412C209.005 221.834 209.413 222.201 210.098 222.201C210.398 222.225 210.698 222.155 210.957 222.001C211.216 221.848 211.421 221.618 211.544 221.343Z" fill="#0560FA"/>
<path d="M220.215 219.855V223.128H218.88V220.056C218.88 219.039 218.374 218.547 217.496 218.547C217.272 218.533 217.047 218.569 216.839 218.652C216.63 218.734 216.443 218.863 216.29 219.027C216.137 219.191 216.022 219.387 215.954 219.601C215.886 219.815 215.867 220.041 215.897 220.264V223.156H214.589V217.44H215.862V218.181C216.111 217.909 216.417 217.695 216.758 217.557C217.099 217.418 217.467 217.357 217.835 217.378C219.205 217.35 220.215 218.132 220.215 219.855Z" fill="#0560FA"/>
<path d="M224.25 220.679L223.253 221.62V223.128H221.917V215.212H223.253V220.001L226.021 217.433H227.668L225.281 219.835L227.889 223.149H226.263L224.25 220.679Z" fill="#0560FA"/>
<path d="M237.024 217.413L234.346 223.585C233.827 224.886 233.1 225.281 232.145 225.281C231.589 225.291 231.048 225.105 230.616 224.755L231.149 223.772C231.416 224.021 231.766 224.162 232.131 224.166C232.602 224.166 232.886 223.938 233.142 223.378L233.239 223.149L230.74 217.413H232.124L233.924 221.641L235.73 217.413H237.024Z" fill="#0560FA"/>
<path d="M237.225 220.271C237.202 219.664 237.362 219.064 237.683 218.549C238.005 218.034 238.472 217.626 239.027 217.379C239.581 217.132 240.197 217.056 240.795 217.161C241.393 217.266 241.946 217.548 242.383 217.97C242.819 218.391 243.12 218.934 243.246 219.528C243.372 220.122 243.317 220.74 243.089 221.303C242.862 221.865 242.471 222.347 241.967 222.686C241.463 223.025 240.87 223.206 240.262 223.205C239.866 223.227 239.47 223.167 239.099 223.028C238.727 222.89 238.388 222.676 238.103 222.401C237.818 222.125 237.592 221.794 237.441 221.427C237.29 221.061 237.216 220.667 237.225 220.271ZM241.965 220.271C241.947 219.94 241.833 219.622 241.637 219.355C241.44 219.088 241.17 218.885 240.86 218.77C240.549 218.656 240.212 218.634 239.889 218.709C239.567 218.783 239.273 218.951 239.045 219.191C238.816 219.43 238.663 219.731 238.604 220.057C238.544 220.383 238.582 220.719 238.711 221.024C238.841 221.328 239.057 221.588 239.332 221.772C239.608 221.955 239.931 222.054 240.262 222.056C240.495 222.062 240.726 222.02 240.941 221.931C241.156 221.843 241.35 221.71 241.511 221.542C241.671 221.373 241.794 221.173 241.873 220.954C241.951 220.735 241.982 220.502 241.965 220.271Z" fill="#0560FA"/>
<path d="M250.13 217.413V223.128H248.857V222.402C248.629 222.664 248.346 222.872 248.027 223.011C247.709 223.15 247.363 223.216 247.016 223.205C245.549 223.205 244.553 222.402 244.553 220.679V217.413H245.888V220.499C245.888 221.537 246.387 222.028 247.231 222.028C247.452 222.038 247.673 221.998 247.878 221.912C248.082 221.827 248.265 221.697 248.414 221.532C248.563 221.368 248.673 221.173 248.738 220.96C248.803 220.748 248.82 220.525 248.788 220.305V217.413H250.13Z" fill="#0560FA"/>
<path d="M251.639 222.367C251.64 222.256 251.663 222.146 251.707 222.043C251.752 221.941 251.816 221.849 251.897 221.772C251.977 221.695 252.073 221.635 252.177 221.596C252.281 221.557 252.393 221.539 252.504 221.544C252.613 221.544 252.721 221.565 252.822 221.607C252.922 221.649 253.014 221.71 253.091 221.787C253.168 221.864 253.229 221.956 253.271 222.056C253.313 222.157 253.334 222.265 253.334 222.374C253.334 222.483 253.313 222.591 253.271 222.692C253.229 222.793 253.168 222.884 253.091 222.961C253.014 223.038 252.922 223.1 252.822 223.141C252.721 223.183 252.613 223.205 252.504 223.205C252.391 223.209 252.279 223.191 252.174 223.151C252.069 223.111 251.973 223.05 251.892 222.972C251.811 222.893 251.747 222.799 251.703 222.695C251.66 222.591 251.638 222.48 251.639 222.367ZM251.708 215.641H253.272L253.009 220.644H251.943L251.708 215.641Z" fill="#0560FA"/>
<path d="M242.456 103.523L240.435 132.172C240.279 134.426 239.274 136.536 237.622 138.078C235.971 139.619 233.795 140.476 231.536 140.476C230.315 140.477 229.106 140.227 227.986 139.741C226.865 139.256 225.856 138.545 225.021 137.654C224.186 136.763 223.543 135.709 223.132 134.559C222.72 133.409 222.55 132.187 222.63 130.968C222.81 128.241 222.969 126.013 222.969 126.013C222.969 126.013 216.049 124.934 215.952 118.007C215.904 114.007 216.596 104.928 217.191 97.9388C217.385 95.6724 218.423 93.5615 220.099 92.0237C221.775 90.4859 223.968 89.6334 226.242 89.6348H230.436C232.145 89.7358 233.816 90.1779 235.352 90.9351C236.887 91.6924 238.255 92.7494 239.375 94.0438C240.496 95.3382 241.345 96.8439 241.874 98.4719C242.404 100.1 242.601 101.817 242.456 103.523Z" fill="#FFBE9D"/>
<path d="M222.969 125.979C226.16 125.965 229.281 125.041 231.965 123.314C231.965 123.314 229.744 128.352 222.824 127.729L222.969 125.979Z" fill="#EB996E"/>
<path d="M218.485 104.554C218.61 104.679 219.364 104.125 220.423 104.132C221.482 104.139 222.27 104.665 222.388 104.534C222.506 104.402 222.319 104.243 221.98 103.994C221.517 103.677 220.97 103.508 220.409 103.509C219.855 103.509 219.315 103.683 218.866 104.008C218.541 104.264 218.43 104.492 218.485 104.554Z" fill="#263238"/>
<path d="M227.979 107.509C227.977 107.767 228.076 108.015 228.254 108.201C228.433 108.387 228.677 108.497 228.934 108.506C229.06 108.514 229.186 108.498 229.305 108.457C229.424 108.417 229.534 108.354 229.628 108.271C229.723 108.188 229.8 108.087 229.856 107.974C229.911 107.861 229.944 107.738 229.952 107.613C229.955 107.355 229.857 107.105 229.678 106.919C229.5 106.732 229.255 106.624 228.997 106.616C228.871 106.606 228.744 106.621 228.624 106.661C228.504 106.7 228.394 106.764 228.299 106.847C228.204 106.93 228.127 107.032 228.072 107.146C228.017 107.259 227.985 107.383 227.979 107.509Z" fill="#263238"/>
<path d="M218.471 107.509C218.469 107.767 218.568 108.015 218.746 108.201C218.925 108.387 219.169 108.497 219.426 108.506C219.552 108.515 219.679 108.499 219.799 108.459C219.919 108.419 220.03 108.356 220.125 108.273C220.22 108.19 220.298 108.089 220.354 107.976C220.41 107.862 220.443 107.739 220.45 107.613C220.452 107.355 220.354 107.107 220.175 106.921C219.997 106.735 219.753 106.625 219.495 106.616C219.369 106.606 219.242 106.621 219.122 106.661C219.002 106.7 218.89 106.763 218.795 106.847C218.7 106.93 218.622 107.031 218.566 107.145C218.511 107.259 218.478 107.383 218.471 107.509Z" fill="#263238"/>
<path d="M228.768 104.693C228.893 104.824 229.647 104.271 230.706 104.271C231.765 104.271 232.554 104.81 232.671 104.679C232.789 104.547 232.602 104.388 232.256 104.139C231.798 103.819 231.251 103.65 230.692 103.655C230.138 103.654 229.598 103.828 229.149 104.153C228.824 104.402 228.713 104.637 228.768 104.693Z" fill="#263238"/>
<path d="M224.983 112.976C224.422 112.8 223.84 112.695 223.253 112.665C222.983 112.665 222.727 112.581 222.679 112.395C222.656 112.115 222.719 111.835 222.859 111.592L223.668 109.516C224.782 106.568 225.592 104.146 225.467 104.098C225.343 104.049 224.346 106.409 223.232 109.357C222.962 110.083 222.706 110.775 222.464 111.433C222.292 111.76 222.24 112.137 222.319 112.498C222.359 112.595 222.42 112.681 222.498 112.751C222.576 112.82 222.668 112.871 222.769 112.9C222.92 112.939 223.076 112.96 223.232 112.962C223.813 113.041 224.401 113.045 224.983 112.976Z" fill="#263238"/>
<path d="M228.118 113.716C227.945 113.716 227.945 114.858 226.955 115.682C225.966 116.505 224.734 116.374 224.727 116.533C224.72 116.692 224.997 116.761 225.516 116.775C226.194 116.784 226.853 116.554 227.377 116.125C227.879 115.712 228.204 115.122 228.284 114.478C228.36 113.993 228.194 113.709 228.118 113.716Z" fill="#263238"/>
<path d="M228.837 100.838C228.941 101.122 230.007 100.99 231.253 101.136C232.498 101.281 233.515 101.627 233.681 101.371C233.751 101.247 233.578 100.97 233.169 100.679C232.628 100.329 232.011 100.113 231.37 100.049C230.732 99.9707 230.084 100.047 229.481 100.271C229.052 100.471 228.789 100.7 228.837 100.838Z" fill="#263238"/>
<path d="M218.326 101.336C218.513 101.579 219.246 101.336 220.125 101.336C221.004 101.336 221.758 101.503 221.924 101.247C222.001 101.122 221.883 100.88 221.558 100.651C221.12 100.378 220.61 100.24 220.094 100.256C219.578 100.272 219.078 100.441 218.658 100.741C218.347 100.97 218.243 101.219 218.326 101.336Z" fill="#263238"/>
<path d="M240.124 108.727C240.242 108.672 244.885 107.343 244.733 112.056C244.58 116.768 239.854 115.661 239.854 115.516C239.854 115.37 240.124 108.727 240.124 108.727Z" fill="#FFBE9D"/>
<path d="M241.356 113.779C241.356 113.779 241.439 113.834 241.57 113.903C241.763 113.995 241.984 114.007 242.186 113.938C242.499 113.755 242.758 113.492 242.934 113.176C243.111 112.859 243.199 112.501 243.19 112.139C243.215 111.733 243.152 111.327 243.003 110.948C242.967 110.793 242.893 110.648 242.788 110.527C242.683 110.407 242.55 110.314 242.401 110.256C242.306 110.229 242.204 110.236 242.113 110.275C242.023 110.314 241.948 110.383 241.902 110.471C241.84 110.602 241.868 110.692 241.84 110.699C241.812 110.706 241.743 110.623 241.785 110.422C241.816 110.307 241.884 110.205 241.979 110.132C242.116 110.044 242.28 110.007 242.442 110.028C242.635 110.074 242.812 110.168 242.958 110.301C243.105 110.434 243.215 110.602 243.28 110.789C243.466 111.206 243.549 111.662 243.522 112.118C243.459 113.073 242.947 113.952 242.255 114.125C242.127 114.159 241.992 114.163 241.862 114.138C241.731 114.113 241.608 114.059 241.501 113.979C241.363 113.889 241.342 113.786 241.356 113.779Z" fill="#EB996E"/>
<path d="M242.754 108.561C242.304 108.531 241.854 108.624 241.453 108.83C241.052 109.036 240.715 109.347 240.477 109.73C240.166 110.422 240.103 111.177 239.785 111.848C239.664 112.2 239.429 112.502 239.117 112.706C238.804 112.909 238.433 113.001 238.062 112.969C237.817 112.892 237.596 112.751 237.423 112.562C237.249 112.372 237.128 112.14 237.072 111.889C236.975 111.384 236.975 110.865 237.072 110.36C237.356 108.146 237.82 105.952 237.91 103.724C238.093 101.489 237.612 99.2499 236.526 97.2883C235.356 95.3922 233.204 93.9944 230.99 94.1743C229.516 94.2919 228.166 95.06 226.706 95.2607C225.835 95.3764 224.949 95.2919 224.116 95.0137C223.283 94.7355 222.524 94.2709 221.897 93.6553C221.738 93.503 220.997 93.0117 220.997 93.0117C221.02 92.4853 221.193 91.9763 221.495 91.5447C224.402 88.8666 229.626 88.0847 233.46 89.0812C235.409 89.5587 237.231 90.4556 238.797 91.7093C240.364 92.963 241.639 94.5434 242.532 96.3402C244.179 99.9317 243.695 104.928 242.781 108.561" fill="#263238"/>
<path d="M216.43 96.6862C216.792 97.3838 217.33 97.9752 217.99 98.4023C218.65 98.8293 219.41 99.0774 220.194 99.1221C221.765 99.1852 223.334 98.9504 224.817 98.4301C227.151 97.8489 229.536 97.4967 231.938 97.3782C232.173 97.3782 232.45 97.3783 232.574 97.1845C232.699 96.9907 232.477 96.6032 232.235 96.4164C230.159 94.7971 225.177 93.8006 222.547 93.6968C221.235 93.6083 219.922 93.8577 218.734 94.421C217.545 94.9843 216.521 95.8428 215.759 96.9146" fill="#263238"/>
<path d="M217.108 96.88C218.529 95.5607 220.341 94.7418 222.27 94.548C228.263 94.0359 238.09 95.8766 243.245 106.194C243.82 104.417 244.183 102.577 244.324 100.714C244.324 99.3297 243.48 90.915 234.851 88.2577C234.851 88.2577 221.841 83.296 217.108 96.88Z" fill="#0560FA"/>
<g opacity="0.4">
<path opacity="0.4" d="M217.108 96.88C218.621 95.2854 220.697 94.3444 222.893 94.2573C228.249 94.0151 238.387 96.4717 243.245 106.194C243.82 104.417 244.183 102.577 244.324 100.714C244.324 99.3297 243.48 90.915 234.851 88.2577C234.851 88.2577 221.841 83.296 217.108 96.88Z" fill="black"/>
</g>
<path d="M242.442 104.713C239.854 100.34 235.972 97.3713 231.82 94.7625C227.668 92.1536 220.748 89.5656 215.973 88.3061C214.565 87.841 213.074 87.6829 211.6 87.8425C210.864 87.9361 210.169 88.235 209.595 88.7049C209.021 89.1748 208.591 89.7968 208.354 90.4997C207.898 92.2989 211.088 95.0669 212.582 96.1534C214.048 97.1328 215.565 98.0315 217.129 98.8453C217.129 98.8453 217.087 95.5029 222.423 94.8247C229.668 93.9113 242.657 104.9 242.442 104.713Z" fill="#0560FA"/>
<path d="M232.761 91.7108C229.704 89.9923 226.232 89.1495 222.727 89.2749C223.224 89.1194 223.743 89.0469 224.263 89.0604C226.789 88.98 229.288 89.5876 231.495 90.8181C231.963 91.0449 232.39 91.3464 232.761 91.7108Z" fill="white"/>
<path d="M268.531 204.611C268.531 204.707 250.815 204.791 228.962 204.791C207.109 204.791 189.393 204.707 189.393 204.611C189.393 204.514 207.109 204.431 228.962 204.431C250.815 204.431 268.531 204.514 268.531 204.611Z" fill="#263238"/>
<path d="M195.144 147.991L184.958 152.593L169.152 139.708L164.308 147.32C164.308 147.32 173.304 157.734 176.647 161.278C179.989 164.821 182.183 166.703 184.833 166.364C187.484 166.025 202.472 158.952 202.472 158.952C202.472 158.952 198.929 148.434 195.144 147.991Z" fill="#FFBE9D"/>
<path d="M151.804 133.21C151.804 133.21 153.79 134.705 155.091 134.594C156.392 134.483 161.319 134.476 161.672 134.504C162.025 134.532 166.834 137.141 166.834 137.141L170.35 140.518L164.814 148.185C164.814 148.185 163.907 147.14 163.284 147.216C162.662 147.292 155.084 146.649 153.942 146.261C152.801 145.874 151.34 145.645 150.96 144.946C150.579 144.247 150.496 143.742 151.541 142.87C151.541 142.87 150.157 141.784 151.154 140.441C151.154 140.441 149.576 139.286 150.143 138.22C150.143 138.22 149.251 137.853 149.105 137.286C149.039 136.693 149.06 136.094 149.168 135.507L151.43 134.815C151.43 134.815 150.766 133.999 151.804 133.21Z" fill="#FFBE9D"/>
<path d="M150.918 134.94C150.918 134.94 151.022 134.898 151.209 134.843C151.483 134.752 151.766 134.694 152.053 134.67C152.505 134.691 152.937 134.859 153.285 135.148C153.512 135.329 153.679 135.575 153.763 135.853C153.847 136.131 153.844 136.428 153.755 136.705C153.705 136.852 153.625 136.986 153.518 137.1C153.412 137.213 153.283 137.302 153.14 137.362C152.902 137.461 152.653 137.533 152.399 137.576L151.181 137.826C150.811 137.936 150.425 137.985 150.039 137.971C150.38 137.787 150.746 137.657 151.126 137.583L152.323 137.251C152.78 137.141 153.278 137.037 153.416 136.559C153.48 136.348 153.48 136.123 153.417 135.912C153.354 135.7 153.232 135.512 153.063 135.369C152.777 135.116 152.424 134.953 152.046 134.898C151.775 134.895 151.505 134.914 151.237 134.954C151.029 135.002 150.918 134.975 150.918 134.94Z" fill="#EB996E"/>
<path d="M153.755 136.94C153.755 136.94 153.935 136.857 154.281 136.788C154.774 136.688 155.274 136.632 155.776 136.622C156.545 136.586 157.306 136.782 157.963 137.182C158.372 137.442 158.666 137.848 158.786 138.317C158.846 138.578 158.823 138.851 158.721 139.099C158.62 139.346 158.444 139.557 158.219 139.701C157.768 139.899 157.279 139.998 156.786 139.992L155.485 140.095L153.292 140.248C152.616 140.324 151.936 140.34 151.257 140.296C151.918 140.132 152.592 140.03 153.271 139.992L155.458 139.763L156.759 139.639C157.197 139.638 157.632 139.553 158.039 139.39C158.203 139.288 158.331 139.139 158.408 138.962C158.485 138.785 158.506 138.589 158.468 138.4C158.365 138.013 158.117 137.681 157.776 137.473C157.175 137.093 156.48 136.892 155.769 136.891C154.537 136.857 153.762 137.016 153.755 136.94Z" fill="#EB996E"/>
<path d="M158.468 139.708C158.468 139.708 158.606 139.708 158.752 139.922C158.848 140.065 158.911 140.228 158.934 140.398C158.956 140.569 158.939 140.742 158.883 140.905C158.792 141.141 158.649 141.352 158.464 141.525C158.28 141.697 158.059 141.826 157.818 141.902C157.26 142.063 156.682 142.14 156.101 142.13C153.714 142.241 151.825 142.704 151.797 142.6C153.162 142.065 154.614 141.784 156.081 141.77C156.628 141.78 157.175 141.72 157.707 141.59C157.909 141.534 158.097 141.435 158.259 141.302C158.421 141.168 158.554 141.003 158.648 140.815C158.703 140.686 158.731 140.547 158.731 140.407C158.731 140.267 158.703 140.128 158.648 139.999C158.51 139.784 158.413 139.736 158.468 139.708Z" fill="#EB996E"/>
<path d="M166.281 141.043C165.982 141.247 165.642 141.379 165.284 141.431C164.435 141.621 163.559 141.661 162.696 141.549C161.834 141.431 161 141.162 160.233 140.753C159.651 140.434 159.347 140.151 159.375 140.116C161.5 141.231 163.951 141.56 166.295 141.043H166.281Z" fill="#EB996E"/>
<path d="M158.392 137.507C158.44 137.417 158.932 137.59 159.541 137.507C160.15 137.424 160.592 137.168 160.655 137.251C160.717 137.334 160.309 137.791 159.582 137.867C158.856 137.943 158.337 137.583 158.392 137.507Z" fill="#EB996E"/>
<path d="M157.852 145.071C157.888 144.698 157.999 144.337 158.179 144.009C158.359 143.681 158.603 143.392 158.897 143.161C159.408 142.608 160.117 142.28 160.869 142.248C160.269 142.601 159.694 142.994 159.146 143.424C158.677 143.942 158.244 144.492 157.852 145.071Z" fill="#EB996E"/>
<path d="M141.438 164.973H171.491L177.069 208.929H135.563L141.438 164.973Z" fill="#0560FA"/>
<path d="M171.491 164.973H174.972L185.228 208.929H177.069L171.491 164.973Z" fill="#0560FA"/>
<path opacity="0.3" d="M171.491 164.973H174.972L185.228 208.929H177.069L171.491 164.973Z" fill="black"/>
<path d="M154.704 142.116C154.704 142.116 154.793 142.068 154.946 142.116C155.167 142.179 155.356 142.326 155.472 142.524C155.564 142.671 155.621 142.838 155.638 143.011C155.655 143.184 155.631 143.359 155.568 143.521C155.417 143.91 155.126 144.228 154.752 144.413C154.274 144.628 153.753 144.73 153.23 144.711L153.361 144.621C152.967 145.375 152.496 145.714 152.461 145.666C152.427 145.618 152.773 145.216 153.084 144.49L153.119 144.413H153.216C153.693 144.399 154.164 144.291 154.6 144.095C154.907 143.956 155.153 143.71 155.292 143.403C155.347 143.285 155.375 143.156 155.375 143.026C155.375 142.896 155.347 142.767 155.292 142.649C155.05 142.206 154.69 142.171 154.704 142.116Z" fill="#EB996E"/>
<path d="M149.071 166.89C149.064 166.591 149.087 166.291 149.14 165.997C149.202 165.43 149.32 164.613 149.486 163.589C149.811 161.561 150.365 158.745 151.008 155.714C151.652 152.683 152.247 149.88 152.641 147.867C152.821 146.912 152.98 146.116 153.098 145.479C153.136 145.182 153.206 144.89 153.306 144.607C153.312 144.906 153.289 145.205 153.236 145.5C153.174 146.074 153.057 146.884 152.89 147.908C152.565 149.936 152.012 152.752 151.361 155.79C150.711 158.828 150.129 161.624 149.735 163.637C149.555 164.585 149.396 165.388 149.278 166.018C149.242 166.315 149.173 166.608 149.071 166.89Z" fill="#0560FA"/>
<path d="M164.938 167.333C164.801 167.005 164.69 166.667 164.606 166.322C164.405 165.63 164.142 164.661 163.831 163.554C163.187 161.194 162.329 157.928 161.395 154.316C160.461 150.704 159.644 147.396 159.063 145.043C158.8 143.901 158.572 142.967 158.371 142.227C158.275 141.885 158.21 141.535 158.177 141.182C158.315 141.509 158.426 141.847 158.51 142.192C158.71 142.884 158.973 143.853 159.285 144.96C159.928 147.32 160.786 150.586 161.72 154.205C162.655 157.824 163.471 161.091 164.046 163.464L164.738 166.288C164.836 166.629 164.904 166.979 164.938 167.333Z" fill="#0560FA"/>
<path d="M185.228 208.929C184.708 208.649 184.223 208.31 183.781 207.918C182.916 207.261 181.705 206.327 180.446 205.282L179.795 204.749L180.058 204.707C179.249 205.925 178.522 206.998 177.982 207.752C177.725 208.179 177.418 208.574 177.069 208.929C177.254 208.47 177.486 208.032 177.761 207.621C178.238 206.832 178.93 205.739 179.733 204.514L179.837 204.348L179.996 204.472L180.647 204.998C181.934 206.05 183.089 207.012 183.913 207.725C184.39 208.081 184.83 208.485 185.228 208.929Z" fill="#263238"/>
<path d="M173.318 164.973C173.415 164.973 174.972 173.817 176.778 184.764C178.584 195.711 179.996 204.597 179.892 204.611C179.789 204.624 178.238 195.767 176.432 184.819C174.626 173.872 173.221 164.987 173.318 164.973Z" fill="#263238"/>
<path d="M173.249 177.45C173.033 177.694 172.802 177.925 172.557 178.142C171.854 178.746 171.086 179.271 170.267 179.705C168.968 180.401 167.566 180.882 166.115 181.131C164.187 181.478 162.204 181.362 160.329 180.792C159.231 180.447 158.233 179.839 157.423 179.02C156.527 178.129 155.967 176.956 155.838 175.699C155.786 175.02 155.894 174.338 156.155 173.709C156.416 173.08 156.822 172.522 157.34 172.08C157.886 171.61 158.567 171.326 159.285 171.27C160.02 171.219 160.755 171.372 161.409 171.713C162.069 172.044 162.648 172.517 163.104 173.097C163.567 173.715 163.899 174.422 164.08 175.173C164.433 176.682 164.433 178.252 164.08 179.761C163.418 182.956 161.767 185.861 159.361 188.065C158.143 189.183 156.737 190.078 155.209 190.708C153.732 191.342 152.127 191.617 150.524 191.511C148.964 191.389 147.475 190.811 146.24 189.85C145.038 188.935 144.223 187.601 143.957 186.113C143.692 184.695 143.979 183.23 144.759 182.017C145.117 181.434 145.622 180.956 146.223 180.632C146.825 180.307 147.502 180.148 148.185 180.169C148.514 180.201 148.834 180.298 149.125 180.455C149.416 180.612 149.673 180.825 149.88 181.083C150.263 181.547 150.527 182.098 150.648 182.688C150.845 183.83 150.708 185.005 150.254 186.072C149.472 187.884 148.118 189.391 146.4 190.362C145.106 191.082 143.703 191.587 142.248 191.857C141.333 192.032 140.409 192.148 139.48 192.203C139.168 192.203 138.926 192.238 138.788 192.238H138.545H138.788L139.48 192.168C140.398 192.082 141.31 191.943 142.213 191.753C143.635 191.462 145.002 190.946 146.261 190.224C147.928 189.262 149.235 187.782 149.984 186.01C150.411 184.989 150.535 183.867 150.344 182.778C150.242 182.215 150.005 181.685 149.652 181.235C149.467 181.008 149.239 180.821 148.982 180.683C148.724 180.545 148.441 180.46 148.15 180.432C147.522 180.418 146.902 180.571 146.353 180.875C145.803 181.179 145.344 181.623 145.022 182.162C144.289 183.307 144.022 184.688 144.275 186.023C144.531 187.429 145.307 188.687 146.448 189.546C147.631 190.459 149.055 191.008 150.545 191.123C153.596 191.359 156.703 189.926 159.077 187.76C161.423 185.618 163.037 182.793 163.693 179.685C164.035 178.228 164.035 176.712 163.693 175.256C163.524 174.561 163.218 173.907 162.793 173.332C162.368 172.779 161.827 172.326 161.208 172.004C160.609 171.693 159.937 171.552 159.264 171.595C158.616 171.636 157.996 171.877 157.492 172.287C157.014 172.697 156.64 173.214 156.399 173.796C156.159 174.378 156.059 175.009 156.108 175.637C156.226 176.828 156.751 177.943 157.596 178.792C158.365 179.583 159.315 180.175 160.364 180.515C162.199 181.088 164.143 181.218 166.038 180.896C167.473 180.662 168.862 180.207 170.156 179.546C170.975 179.129 171.75 178.628 172.467 178.052C172.716 177.865 172.889 177.699 173.021 177.595C173.089 177.534 173.166 177.485 173.249 177.45Z" fill="white"/>
<path d="M215.786 134.525H210.368C208.624 135.141 194.556 147.105 194.556 147.105L202.507 159.603L212.818 153.576L215.786 134.525Z" fill="#455A64"/>
<path d="M210.368 134.525L222.34 129.978C222.34 129.978 224.09 133.653 229.419 132.864C234.747 132.075 241.037 128.324 241.037 128.324C241.037 128.324 250.213 133.563 252.926 135.75C255.639 137.936 250.739 183.719 250.739 183.719L249.514 197.441C249.514 197.441 250.476 198.133 250.476 200.5C250.476 202.867 250.566 204.431 250.566 204.431H203.137C203.137 204.431 201.981 198.929 202.853 196.743C203.495 195.221 204.271 193.76 205.171 192.376L205.912 171.229L206.175 152.351L210.368 134.525Z" fill="#455A64"/>
<path d="M252.926 135.75C252.926 135.75 256.753 136.829 257.888 142.504C259.023 148.178 258.808 169.851 258.808 169.851L237.439 165.222C237.439 165.222 240.332 156.129 240.332 155.534C240.332 154.939 246.214 140.261 246.421 139.95C246.629 139.639 252.926 135.75 252.926 135.75Z" fill="#455A64"/>
<path d="M205.815 143.438C205.912 143.438 206.05 147.223 206.119 151.901C206.188 156.579 206.161 160.364 206.064 160.364C205.967 160.364 205.828 156.579 205.759 151.908C205.69 147.237 205.711 143.438 205.815 143.438Z" fill="#263238"/>
<path d="M243.017 145.472C243.022 145.724 242.994 145.975 242.934 146.22C242.864 146.704 242.74 147.396 242.574 148.247C242.235 149.949 241.716 152.295 241.037 154.856C240.359 157.416 239.653 159.7 239.121 161.367C238.844 162.191 238.615 162.855 238.429 163.312C238.359 163.555 238.257 163.788 238.124 164.004C238.154 163.754 238.212 163.508 238.297 163.27C238.449 162.724 238.636 162.066 238.865 161.291C239.349 159.631 240.006 157.326 240.678 154.766C241.349 152.205 241.909 149.88 242.311 148.192L242.788 146.192C242.828 145.942 242.905 145.7 243.017 145.472Z" fill="#263238"/>
<path d="M241.01 145.009C241.111 146.463 241.095 147.923 240.961 149.375C240.94 150.83 240.804 152.281 240.553 153.714C240.443 152.262 240.46 150.803 240.601 149.354C240.619 147.897 240.756 146.444 241.01 145.009Z" fill="#263238"/>
<path d="M235.681 152.171C232.627 152.411 229.559 152.411 226.505 152.171C228.028 151.989 229.562 151.929 231.093 151.991C232.625 151.929 234.159 151.989 235.681 152.171Z" fill="white"/>
<path d="M211.191 183.283L234.837 180.439L238.567 165.464L251.791 168.329C251.791 168.329 246.56 189.089 241.169 191.123C235.778 193.158 209.102 189.739 209.102 189.739L211.191 183.283Z" fill="#FFBE9D"/>
<path d="M210.23 183.11C208.949 182.569 207.631 182.123 206.285 181.775C205.192 181.615 203.898 181.858 203.573 182.384L197.22 186.086C197.22 186.086 192.507 185.636 192.058 186.695C192.058 186.695 189.047 185.837 188.563 186.446C188.563 186.446 187.055 186.937 187.304 187.629C187.553 188.321 192.992 190.231 192.992 190.231L200.445 190.992C200.445 190.992 203.289 189.449 204.465 189.324C205.601 189.32 206.735 189.41 207.856 189.594C207.759 189.594 212.216 190.099 212.216 190.099C212.216 190.099 213.122 189.124 213.489 186.439C213.856 183.754 213.489 183.193 213.489 183.193L210.23 183.11Z" fill="#FFBE9D"/>
<path d="M207.067 186.522C207.067 186.522 206.866 186.522 206.604 186.342C206.341 186.162 206.112 185.712 205.697 185.428C205.442 185.298 205.165 185.213 204.88 185.179C204.503 185.137 204.148 184.98 203.863 184.729C203.552 184.433 203.355 184.036 203.31 183.608C203.278 183.378 203.298 183.143 203.367 182.92C203.437 182.698 203.554 182.493 203.711 182.321C204.022 182.024 204.401 181.809 204.815 181.696C205.23 181.582 205.666 181.574 206.085 181.671C206.745 181.825 207.358 182.138 207.87 182.584C208.21 182.873 208.527 183.188 208.818 183.525C209.019 183.761 209.116 183.899 209.102 183.92C209.088 183.941 208.583 183.449 207.718 182.785C207.218 182.399 206.639 182.129 206.022 181.996C205.656 181.915 205.275 181.926 204.913 182.026C204.551 182.126 204.219 182.313 203.946 182.57C203.725 182.849 203.614 183.2 203.636 183.555C203.657 183.91 203.81 184.245 204.064 184.494C204.514 184.965 205.296 184.833 205.815 185.186C206.334 185.539 206.444 186.01 206.673 186.21C206.901 186.411 207.081 186.494 207.067 186.522Z" fill="#EB996E"/>
<path d="M203.123 185.29C203.123 185.345 202.763 185.325 202.258 185.553C201.607 185.934 200.924 186.258 200.216 186.522C199.453 186.611 198.68 186.55 197.94 186.342C197.633 186.316 197.328 186.272 197.026 186.21C197.319 186.07 197.649 186.029 197.967 186.093C198.683 186.215 199.411 186.241 200.133 186.169C200.922 185.968 201.593 185.477 202.209 185.318C202.825 185.158 203.137 185.248 203.123 185.29Z" fill="#EB996E"/>
<path d="M203.282 188.266C203.154 188.382 203.006 188.476 202.846 188.542C202.43 188.759 201.991 188.928 201.538 189.047C200.035 189.411 198.478 189.5 196.943 189.31C196.057 189.2 195.213 189.061 194.445 188.951C193.747 188.892 193.06 188.738 192.404 188.494C192.141 188.372 191.926 188.164 191.795 187.906C191.701 187.71 191.67 187.49 191.705 187.276C191.781 186.909 192.009 186.826 192.009 186.847C192.009 186.868 191.864 186.985 191.843 187.29C191.84 187.505 191.905 187.716 192.029 187.891C192.154 188.067 192.331 188.198 192.535 188.266C193.18 188.456 193.844 188.575 194.514 188.618L196.999 188.951C198.497 189.135 200.014 189.083 201.497 188.798C202.611 188.549 203.254 188.224 203.282 188.266Z" fill="#EB996E"/>
<path d="M238.74 186.487C238.291 185.471 237.777 184.484 237.204 183.532C236.532 182.646 235.807 181.803 235.031 181.006C236.051 181.542 236.905 182.346 237.501 183.332C238.198 184.249 238.627 185.341 238.74 186.487Z" fill="#EB996E"/>
<path d="M62.4253 268.205L61.5188 314.403L72.7085 315.6L80.3966 268.565L74.3554 260.967L62.4253 268.205Z" fill="#FFBE9D"/>
<path d="M74.0786 313.317V314.071C74.0786 314.071 86.8114 319.358 86.9152 321.78L61.5258 321.358V312.902C63.476 313.834 65.5983 314.352 67.7587 314.423C69.9192 314.495 72.071 314.118 74.0786 313.317Z" fill="#0560FA"/>
<path d="M61.5188 321.358L61.6365 319.33L85.9326 320.479C85.9326 320.479 87.0536 320.991 86.9083 321.78L61.5188 321.358Z" fill="#263238"/>
<path d="M57.8028 127.065C57.6159 124.934 56.3427 122.782 54.3428 122.138L51.9969 123.48C50.7784 124.089 49.8213 125.118 49.3023 126.377C48.7833 127.636 48.7376 129.041 49.1735 130.331C47.6802 131.267 46.6175 132.756 46.2169 134.472C45.8164 136.188 46.1106 137.993 47.0353 139.493C45.5129 140.185 44.8624 142.054 44.8901 143.728C44.9177 145.403 45.4575 147.029 45.5821 148.697C45.6997 149.984 45.5821 151.292 45.8173 152.565C45.8951 153.21 46.1302 153.825 46.5019 154.357C46.8736 154.889 47.3704 155.322 47.9487 155.617C48.5977 155.823 49.2933 155.834 49.9482 155.647C50.6031 155.46 51.1882 155.083 51.6301 154.565C52.4872 153.501 53.0225 152.214 53.1733 150.856C53.803 146.988 52.9795 142.953 53.9553 139.154C54.6025 137.119 55.4196 135.143 56.398 133.245C57.263 131.293 57.9827 129.189 57.8028 127.065Z" fill="#263238"/>
<path d="M56.6748 126.788C55.3412 126.778 54.0347 126.411 52.8912 125.725C51.7477 125.038 50.8092 124.058 50.1732 122.886C49.5373 121.714 49.2273 120.392 49.2754 119.06C49.3235 117.727 49.728 116.431 50.4468 115.308C50.6365 114.951 50.9344 114.662 51.298 114.484C52.0799 114.173 52.9034 114.81 53.5055 115.405L57.8858 119.668" fill="#263238"/>
<path d="M56.7994 121.321C53.5124 119.764 50.9243 116.076 49.9693 112.568C49.0144 109.059 50.1146 101.952 51.0558 98.4439C52.2114 94.1673 53.9899 99.6687 55.4431 100.119C55.8671 100.281 56.2457 100.543 56.5469 100.883C56.848 101.222 57.0628 101.63 57.173 102.07C57.3887 102.955 57.4565 103.869 57.3737 104.776C57.18 110.312 56.9885 115.827 56.7994 121.321Z" fill="#263238"/>
<path d="M65.2072 86.4585C70.7017 83.5036 75.1166 85.2475 77.2618 86.9221C79.407 88.5967 80.7218 91.1571 81.4899 93.766C82.2581 96.3748 82.6179 99.0875 83.2545 101.738C83.6493 103.261 83.9338 104.81 84.1057 106.374C84.4171 108.637 84.3133 112.685 83.1577 114.678C82.1713 116.58 80.7484 118.221 79.0057 119.467C78.3137 119.903 77.5594 120.36 76.8051 120.117C76.2764 119.883 75.839 119.482 75.5595 118.976C69.5861 110.445 64.9017 101.081 61.6572 91.1848" fill="#263238"/>
<path d="M59.083 92.811L68.6049 88.9704L71.103 89.2472C76.7082 89.2472 80.6042 95.406 80.6664 99.9525C80.7287 104.997 80.6111 111.163 79.8291 114.886C78.2514 122.373 72.4178 123.045 72.4178 123.045C72.4178 123.045 72.487 125.086 72.5424 127.598C72.5688 128.668 72.378 129.732 71.9815 130.726C71.5851 131.72 70.9911 132.624 70.2357 133.382C69.4802 134.14 68.5788 134.737 67.5861 135.137C66.5933 135.536 65.5298 135.731 64.4598 135.708C62.3903 135.668 60.4187 134.82 58.9674 133.344C57.5161 131.868 56.7006 129.882 56.6956 127.812L56.571 95.3784C56.5926 94.7137 56.8625 94.0813 57.3276 93.606C57.7926 93.1307 58.419 92.8471 59.083 92.811Z" fill="#FFBE9D"/>
<path d="M78.2375 104.949C78.2267 105.201 78.118 105.439 77.9345 105.612C77.751 105.785 77.5072 105.88 77.2549 105.876C77.1314 105.88 77.0084 105.859 76.8931 105.814C76.7779 105.77 76.6727 105.703 76.5837 105.617C76.4947 105.531 76.4238 105.428 76.3751 105.315C76.3263 105.201 76.3008 105.079 76.2999 104.956C76.3107 104.703 76.4192 104.464 76.6025 104.29C76.7858 104.116 77.0296 104.019 77.2826 104.021C77.4064 104.019 77.5295 104.041 77.6448 104.086C77.7601 104.131 77.8653 104.199 77.9541 104.285C78.043 104.371 78.1138 104.475 78.1625 104.588C78.2111 104.702 78.2366 104.825 78.2375 104.949Z" fill="#263238"/>
<path d="M78.6735 102.527C78.5489 102.644 77.8431 102.07 76.8051 102.022C75.7671 101.973 74.9713 102.451 74.8606 102.319C74.7499 102.188 74.9436 102.035 75.2896 101.814C75.7544 101.522 76.2985 101.381 76.8466 101.413C77.3899 101.441 77.9104 101.639 78.3344 101.98C78.6389 102.243 78.7358 102.471 78.6735 102.527Z" fill="#263238"/>
<path d="M72.314 110.678C72.8729 110.537 73.4467 110.462 74.0233 110.457C74.2862 110.457 74.5423 110.409 74.5976 110.229C74.6309 109.953 74.5828 109.674 74.4592 109.426C74.2447 108.775 74.0163 108.083 73.7672 107.35C72.8192 104.409 72.1479 102.001 72.2656 101.966C72.3832 101.932 73.2482 104.277 74.1962 107.218C74.4246 107.91 74.6391 108.602 74.8467 109.294C74.9995 109.621 75.0314 109.991 74.9367 110.339C74.8928 110.431 74.8291 110.513 74.7502 110.577C74.6712 110.642 74.5789 110.688 74.48 110.713C74.3298 110.744 74.1763 110.755 74.0233 110.748C73.4529 110.8 72.8782 110.777 72.314 110.678Z" fill="#263238"/>
<path d="M72.4178 123.045C68.8618 122.918 65.4102 121.809 62.4461 119.841C62.4461 119.841 64.875 125.204 72.4663 124.878L72.4178 123.045Z" fill="#EB996E"/>
<path d="M71.6497 112.934C71.4727 112.651 71.2238 112.42 70.9284 112.265C70.633 112.109 70.3017 112.034 69.9681 112.049C69.7338 112.043 69.5014 112.093 69.2898 112.194C69.0783 112.295 68.8934 112.444 68.7502 112.63C68.6046 112.835 68.5201 113.077 68.5066 113.328C68.4932 113.579 68.5512 113.829 68.6741 114.048C68.8305 114.269 69.0483 114.44 69.3004 114.538C69.5526 114.636 69.828 114.659 70.0927 114.602C70.6053 114.463 71.0789 114.207 71.4767 113.855C71.6005 113.77 71.7063 113.662 71.7881 113.536C71.8211 113.325 71.7715 113.11 71.6497 112.934Z" fill="#EB996E"/>
<path d="M69.2 111.246C69.3661 111.246 69.3177 112.374 70.2449 113.225C71.1722 114.076 72.3763 114.014 72.3832 114.173C72.3901 114.332 72.0995 114.381 71.5943 114.367C70.93 114.343 70.2953 114.086 69.8021 113.64C69.3311 113.213 69.0435 112.621 68.9993 111.986C68.9993 111.509 69.1377 111.239 69.2 111.246Z" fill="#263238"/>
<path d="M78.5282 99.648C78.3344 99.8763 77.6286 99.5995 76.7636 99.5442C75.8986 99.4888 75.165 99.6203 75.0059 99.3643C74.9367 99.2397 75.0682 99.0113 75.3934 98.8037C75.8356 98.5559 76.3415 98.4453 76.8468 98.4859C77.352 98.5266 77.8338 98.7167 78.2306 99.0321C78.5282 99.2535 78.6112 99.5027 78.5282 99.648Z" fill="#263238"/>
<path d="M66.7296 104.886C66.7221 105.139 66.8144 105.385 66.9867 105.57C67.159 105.755 67.3972 105.865 67.6499 105.876C67.7729 105.887 67.8969 105.874 68.0146 105.837C68.1323 105.8 68.2414 105.739 68.3355 105.659C68.4296 105.579 68.5068 105.482 68.5626 105.371C68.6184 105.261 68.6516 105.141 68.6603 105.018C68.666 104.766 68.573 104.521 68.4011 104.336C68.2292 104.151 67.992 104.041 67.7399 104.028C67.6168 104.016 67.4924 104.029 67.3743 104.065C67.2562 104.102 67.1467 104.163 67.0523 104.243C66.958 104.323 66.8808 104.421 66.8254 104.532C66.7699 104.642 66.7373 104.763 66.7296 104.886Z" fill="#263238"/>
<path d="M64.7781 102.416C64.8958 102.547 65.6362 102.015 66.6811 102.028C67.7261 102.042 68.4804 102.575 68.5911 102.451C68.7018 102.326 68.5288 102.167 68.2035 101.918C67.7562 101.596 67.2184 101.424 66.6673 101.426C66.126 101.418 65.5957 101.58 65.1518 101.89C64.8266 102.118 64.7159 102.347 64.7781 102.416Z" fill="#263238"/>
<path d="M65.2279 99.1013C65.4079 99.3366 66.1345 99.1013 66.9995 99.1013C67.8645 99.1013 68.5911 99.2812 68.7641 99.0321C68.8402 98.9145 68.7225 98.6792 68.4111 98.4508C67.9882 98.1681 67.4872 98.0253 66.9787 98.0426C66.4704 98.0469 65.9755 98.2062 65.5601 98.4993C65.2556 98.7415 65.1518 98.956 65.2279 99.1013Z" fill="#263238"/>
<path d="M67.5115 88.1677C65.0964 87.192 61.4081 87.5242 59.339 89.095C57.2942 90.7445 55.9292 93.09 55.5053 95.6828C55.0278 98.2432 55.6645 102.028 56.3357 104.54C60.2386 99.5096 64.2591 93.7106 68.0236 88.576L67.5115 88.1677Z" fill="#263238"/>
<path d="M69.3523 85.8841C82.5833 84.0157 81.3585 104.021 81.3585 104.021C80.0367 96.6516 69.7813 88.9428 69.7813 88.9428L67.7053 88.5898L69.3523 85.8841Z" fill="#263238"/>
<path d="M57.3945 108.132C57.3945 107.571 56.8409 106.215 56.2873 106.097C54.8133 105.793 52.1353 105.779 51.9277 109.557C51.6302 114.699 56.8548 113.931 56.8755 113.786C56.8963 113.64 57.3046 110.076 57.3945 108.132Z" fill="#FFBE9D"/>
<path d="M56.1005 111.73C56.1005 111.73 56.0036 111.793 55.8513 111.855C55.6296 111.946 55.3811 111.946 55.1593 111.855C54.8346 111.623 54.5784 111.308 54.4177 110.942C54.257 110.577 54.1976 110.175 54.2459 109.779C54.2584 109.338 54.3695 108.905 54.5711 108.513C54.6269 108.357 54.7187 108.217 54.839 108.104C54.9593 107.991 55.1046 107.908 55.2631 107.862C55.3675 107.84 55.4762 107.856 55.57 107.906C55.6638 107.957 55.7365 108.039 55.7752 108.139C55.8375 108.284 55.7752 108.388 55.8237 108.395C55.8721 108.402 55.9413 108.319 55.9136 108.104C55.889 107.974 55.8235 107.855 55.7268 107.765C55.5915 107.652 55.4182 107.595 55.2424 107.606C55.0282 107.636 54.8253 107.72 54.6532 107.851C54.4811 107.982 54.3456 108.155 54.2597 108.353C54.018 108.776 53.8827 109.251 53.8653 109.737C53.8653 110.775 54.3151 111.772 55.0486 112.028C55.1835 112.078 55.3281 112.096 55.471 112.08C55.6139 112.064 55.7512 112.016 55.8721 111.938C56.052 111.855 56.1143 111.744 56.1005 111.73Z" fill="#EB996E"/>
<path d="M51.3464 95.8281C52.7745 92.3139 55.2451 89.3216 58.4256 87.2543C60.0543 86.0379 61.9541 85.2352 63.9616 84.9153C64.9654 84.7604 65.9917 84.848 66.9547 85.1706C67.9178 85.4932 68.7897 86.0416 69.4976 86.7699L69.8643 87.1436C67.5946 92.1882 65.9891 96.4579 63.062 101.15C61.9825 102.873 61.5188 108.762 61.2628 110.762C60.377 117.647 56.6056 120.595 56.6056 120.595C48.44 120.602 50.0316 99.3573 51.3464 95.8281Z" fill="#263238"/>
<path d="M55.36 119.785C55.0003 119.762 54.6514 119.653 54.3428 119.467C53.5599 119.085 52.8557 118.559 52.2668 117.917C51.6673 117.285 51.1971 116.542 50.8828 115.73C50.7253 115.407 50.647 115.051 50.6544 114.692C51.135 115.762 51.7539 116.765 52.4951 117.675C53.35 118.505 54.3138 119.215 55.36 119.785Z" fill="#455A64"/>
<path d="M54.3566 126.484C53.5884 126.433 52.8518 126.159 52.2371 125.696C51.6224 125.232 51.1565 124.6 50.8966 123.875C51.3914 124.413 51.9134 124.926 52.4605 125.411C53.071 125.805 53.7041 126.164 54.3566 126.484Z" fill="#455A64"/>
<path d="M50.9174 132.802C50.8412 132.864 50.3707 132.345 49.8655 131.646C49.3604 130.947 49.0282 130.331 49.1113 130.262C49.1943 130.193 49.6579 130.719 50.1631 131.418C50.6682 132.117 51.0004 132.746 50.9174 132.802Z" fill="#455A64"/>
<path d="M48.267 140.594C48.1909 140.656 47.8311 140.365 47.4574 139.936C47.0837 139.507 46.8415 139.113 46.9176 139.044C46.9937 138.974 47.3536 139.272 47.7273 139.701C48.1009 140.13 48.3431 140.524 48.267 140.594Z" fill="#455A64"/>
<path d="M49.824 107.475C50.135 107.262 50.4611 107.072 50.7997 106.907C51.118 106.734 51.4917 106.526 51.9415 106.215C52.3913 105.904 52.8965 105.668 53.4224 105.295C54.6878 104.466 55.899 103.558 57.0485 102.575C59.8689 100.165 62.2888 97.3225 64.2176 94.1535C65.0048 92.8613 65.7098 91.5208 66.3282 90.1399C66.6119 89.5586 66.8057 89.0119 67.0202 88.5345C67.2347 88.057 67.3662 87.6418 67.4838 87.2958C67.5908 86.9346 67.7274 86.5828 67.8921 86.2439C67.8289 86.6174 67.7363 86.9853 67.6153 87.3442C67.5009 87.7708 67.3646 88.1911 67.207 88.6037C67.034 89.0881 66.8541 89.6486 66.5842 90.2437C65.9882 91.6513 65.2945 93.0156 64.5082 94.3265C63.5402 95.9257 62.4506 97.4479 61.2489 98.8799C60.0268 100.298 58.6964 101.619 57.2699 102.831C56.0994 103.809 54.8623 104.703 53.5677 105.509C53.028 105.869 52.502 106.139 52.0522 106.395C51.6024 106.651 51.2011 106.845 50.8689 106.997C50.5342 107.184 50.1847 107.344 49.824 107.475Z" fill="#455A64"/>
<path d="M62.5638 101.309C62.5638 101.309 62.4461 101.503 62.1901 101.8C61.934 102.098 61.4981 102.492 61.0137 103.004C58.3055 105.564 55.0627 107.49 51.5194 108.644C50.9876 108.821 50.4472 108.971 49.9002 109.094C49.7023 109.153 49.4976 109.185 49.2912 109.191C49.992 108.892 50.7081 108.631 51.4364 108.409C53.1525 107.768 54.8102 106.981 56.3911 106.056C57.9669 105.12 59.4581 104.047 60.8476 102.852C61.9064 101.89 62.5222 101.267 62.5638 101.309Z" fill="#455A64"/>
<path d="M81.7667 107.883C81.8142 107.503 81.8858 107.126 81.9813 106.755C82.1789 105.737 82.2923 104.705 82.3203 103.669C82.4556 100.237 81.6029 96.8385 79.8634 93.8773C78.124 90.9161 75.571 88.5165 72.5078 86.9636C71.5878 86.4837 70.6295 86.081 69.6429 85.7596C69.2737 85.6593 68.9109 85.5368 68.5565 85.3928C68.5565 85.3928 68.6603 85.3928 68.854 85.4343C69.0478 85.4758 69.3246 85.5174 69.6844 85.6212C70.6962 85.8966 71.6789 86.2698 72.6185 86.7353C75.7678 88.2572 78.395 90.6792 80.1675 93.6946C81.9401 96.71 82.7784 100.183 82.5764 103.675C82.525 104.723 82.372 105.764 82.1197 106.783C82.0366 107.142 81.9328 107.419 81.8775 107.606C81.8537 107.703 81.8164 107.796 81.7667 107.883Z" fill="#455A64"/>
<path d="M143.092 154.662C142.919 154.887 142.807 155.154 142.767 155.435C142.727 155.716 142.76 156.003 142.863 156.267C143.098 156.706 143.454 157.069 143.888 157.312C144.586 156.6 145.161 155.777 145.59 154.877" fill="#EB996E"/>
<path d="M140.089 153.783C139.865 153.96 139.691 154.19 139.582 154.453C139.473 154.716 139.433 155.002 139.466 155.285C139.582 155.769 139.837 156.209 140.199 156.551C141.052 156.035 141.814 155.383 142.455 154.62" fill="#EB996E"/>
<path d="M71.8435 130.968C71.8435 130.968 94.6034 148.877 98.7069 149.465C102.81 150.053 122.007 147.721 129.888 147.479L131.003 154.088C131.003 154.088 109.253 161.471 101.343 161.762C93.4339 162.053 88.8874 159.921 88.8874 159.921L74.0994 144.773L71.8435 130.968Z" fill="#FFBE9D"/>
<path d="M129.404 147.548C129.404 147.548 139.569 146.095 141.168 146.891C142.767 147.687 147.285 151.513 147.285 151.513C147.285 151.513 148.801 155.769 147.846 155.97C146.891 156.171 145.908 154.586 145.908 154.586L144.586 152.24L138.905 150.856L129.487 151.693L129.404 147.548Z" fill="#FFBE9D"/>
<path d="M131.003 154.088C131.148 154.268 134.781 156.018 136.628 155.97C138.476 155.921 140.587 154.475 142.164 154.697C143.742 154.918 147.05 155.174 147.451 154.6C147.678 154.366 147.805 154.053 147.805 153.728C147.805 153.402 147.678 153.09 147.451 152.856C146.912 152.344 144.247 151.839 142.324 151.32C141.294 151.084 140.323 150.639 139.473 150.012L128.283 151.244L127.646 154.704L131.003 154.088Z" fill="#FFBE9D"/>
<path d="M135.84 149.894C136.033 149.854 136.231 149.84 136.428 149.853C136.961 149.868 137.491 149.933 138.012 150.046C139.708 150.476 141.376 151.005 143.009 151.631C143.909 151.933 144.836 152.15 145.777 152.282C146.227 152.317 146.657 152.483 147.015 152.759C147.162 152.901 147.275 153.075 147.347 153.266C147.419 153.457 147.447 153.662 147.431 153.866C147.415 154.032 147.365 154.193 147.286 154.339C147.206 154.485 147.098 154.614 146.967 154.717C146.766 154.868 146.526 154.957 146.275 154.973C145.874 154.973 145.687 154.849 145.694 154.835C145.882 154.852 146.072 154.852 146.261 154.835C146.5 154.794 146.718 154.674 146.881 154.495C147.044 154.316 147.143 154.087 147.161 153.845C147.17 153.684 147.142 153.523 147.08 153.375C147.018 153.226 146.922 153.094 146.801 152.987C146.481 152.763 146.105 152.631 145.714 152.607C144.751 152.494 143.803 152.28 142.884 151.97C140.933 151.32 139.237 150.586 137.943 150.295C136.649 150.005 135.84 149.963 135.84 149.894Z" fill="#EB996E"/>
<path d="M143.168 152.005C142.55 151.893 141.978 151.604 141.521 151.174C140.711 150.538 140.255 149.79 140.331 149.79C140.407 149.79 140.974 150.309 141.715 150.911C142.455 151.513 143.244 151.908 143.168 152.005Z" fill="#EB996E"/>
<path d="M52.2322 266.69L31.6037 275.873L34.0879 286.889C34.0879 286.889 60.0241 279.153 68.508 277.437C76.9919 275.72 90.742 273.534 94.6241 265.299L52.2322 266.69Z" fill="#FFBE9D"/>
<path d="M36.0671 287.09L35.3751 287.284C35.3751 287.284 33.7143 300.805 31.4307 301.553L25.1058 277.264L33.1607 275.015C32.786 277.119 32.8507 279.278 33.3509 281.356C33.8511 283.434 34.7759 285.387 36.0671 287.09Z" fill="#0560FA"/>
<path d="M25.0781 277.264L27.0434 276.835L32.3856 300.273C32.3856 300.273 32.1988 301.477 31.403 301.553L25.0781 277.264Z" fill="#263238"/>
<path d="M94.548 265.617C94.4985 265.818 94.4265 266.013 94.3335 266.199C94.0673 266.73 93.7348 267.225 93.3439 267.673C91.8472 269.259 90.1323 270.624 88.2508 271.728C86.9544 272.496 85.5872 273.138 84.168 273.644C82.5372 274.2 80.876 274.662 79.1925 275.028C75.6771 275.914 71.8158 276.925 67.7676 277.997L47.0076 283.471L40.7242 285.104L39.0081 285.519C38.8089 285.576 38.6051 285.615 38.3991 285.637C38.5903 285.558 38.7869 285.494 38.9873 285.443L40.6896 284.973L46.9591 283.256C52.2599 281.817 59.5743 279.796 67.6776 277.679C71.7258 276.606 75.5872 275.603 79.1164 274.731C80.79 274.362 82.4418 273.9 84.0642 273.347C87.5211 272.145 90.6574 270.169 93.2332 267.569C93.7679 266.989 94.2112 266.331 94.548 265.617Z" fill="#EB996E"/>
<path d="M61.7818 177.152L62.2523 181.214C62.2523 181.214 55.104 194.715 55.104 201.974C55.104 209.233 51.8101 266.891 51.8101 266.891C51.8101 266.891 90.562 269.098 94.6518 265.313L98.7484 261.534L112.588 257.756L90.9634 178.868V174.64L61.7818 177.152Z" fill="#263238"/>
<path d="M88.2923 196.694C88.3146 196.747 88.3286 196.803 88.3338 196.86L88.4099 197.331C88.4722 197.774 88.5553 198.383 88.666 199.151C88.8943 200.763 89.2127 203.047 89.6071 205.849C90.4098 211.503 91.6139 219.295 93.1709 227.869C94.7279 236.443 96.3333 244.165 97.5651 249.743C98.181 252.511 98.6792 254.753 99.0391 256.344L99.4335 258.144C99.4681 258.331 99.5027 258.483 99.5235 258.607C99.5325 258.662 99.5325 258.718 99.5235 258.773C99.4991 258.725 99.4805 258.674 99.4681 258.621L99.3435 258.157C99.2259 257.722 99.0737 257.126 98.8799 256.379C98.4855 254.829 97.9388 252.587 97.2952 249.798C96.0012 244.262 94.3542 236.512 92.7903 227.931C91.2264 219.35 90.0777 211.544 89.3303 205.884C88.9566 203.054 88.6798 200.756 88.5068 199.165C88.4238 198.396 88.3615 197.781 88.3131 197.338C88.3131 197.144 88.3131 196.992 88.2715 196.86C88.2698 196.804 88.2768 196.748 88.2923 196.694Z" fill="#455A64"/>
<path d="M60.4601 203.919C60.5297 204.065 60.5853 204.218 60.6261 204.375C60.723 204.717 60.8545 205.16 61.0206 205.704C61.3666 206.901 61.851 208.555 62.4461 210.589C63.6709 214.707 65.4425 220.367 67.6015 226.554C69.7605 232.74 71.9196 238.276 73.5319 242.255C74.3347 244.214 74.9921 245.812 75.4626 246.968L75.9816 248.248C76.0442 248.397 76.0973 248.549 76.1408 248.705C76.0475 248.572 75.9708 248.428 75.9124 248.276L75.3311 247.023C74.8329 245.93 74.134 244.338 73.2966 242.352C71.622 238.394 69.4353 232.872 67.2624 226.678C65.0895 220.485 63.3665 214.797 62.2039 210.659C61.6226 208.583 61.1728 206.908 60.8822 205.739C60.7438 205.185 60.64 204.742 60.5569 204.396C60.5114 204.24 60.479 204.08 60.4601 203.919Z" fill="#455A64"/>
<path d="M92.3059 180.743C91.9233 180.824 91.5342 180.871 91.1433 180.882C90.396 180.958 89.3095 181.034 87.9601 181.117C85.2752 181.276 81.5522 181.422 77.4487 181.442C73.3451 181.463 69.6152 181.339 66.9233 181.2C65.5809 181.131 64.4944 181.062 63.7401 181C63.3493 180.988 62.9602 180.942 62.5776 180.861C62.967 180.836 63.3576 180.836 63.7471 180.861L66.9372 180.951C69.6221 181.027 73.3382 181.103 77.4417 181.089C81.5453 181.076 85.2613 180.965 87.9532 180.868L91.1364 180.75C91.5254 180.717 91.9165 180.714 92.3059 180.743Z" fill="#455A64"/>
<path d="M72.4663 128.062C72.2794 127.626 86.2094 138.732 87.9602 144.144C89.7109 149.555 90.0362 165.167 90.0362 165.167L91.0119 175.187L63.1727 177.152L62.4254 175.187L60.3494 169.602L57.5052 161.167C57.5052 161.167 50.6475 150.517 49.2843 145.943C47.5958 140.248 50.3984 134.414 50.3984 134.414L56.6887 127.328L72.4663 128.062Z" fill="#0560FA"/>
<path d="M56.6956 127.812C56.6956 127.812 55.1524 124.954 56.1004 123.702C56.8616 122.712 70.2518 123.958 72.9853 124.532C74.5907 124.878 72.9853 128.456 72.9853 128.456L56.6956 127.812Z" fill="#0560FA"/>
<g opacity="0.3">
<path opacity="0.3" d="M64.7159 141.306C65.8853 144.33 64.2315 153.707 63.9823 155.935C63.6642 158.161 63.1501 160.354 62.4461 162.489C62.1416 163.492 61.851 164.641 62.4461 165.519C63.3595 166.903 65.7123 166.53 66.8541 167.775C64.7147 168.768 62.3124 169.045 60.0033 168.564C59.5938 168.516 59.2119 168.333 58.9169 168.045C58.737 167.783 58.623 167.482 58.5847 167.166C57.8342 163.892 57.7238 160.504 58.2595 157.188C58.8615 153.901 62.0032 146.012 64.6467 143.936" fill="black"/>
</g>
<path d="M65.2072 145.451C64.9698 146.598 64.514 147.688 63.8647 148.662C63.3168 149.697 62.5661 150.61 61.6572 151.347C61.5811 151.278 62.5845 150.102 63.5602 148.475C64.5359 146.849 65.1034 145.41 65.2072 145.451Z" fill="#263238"/>
<path d="M72.9853 128.11C72.784 128.204 72.5691 128.264 72.3486 128.29C71.9334 128.38 71.3314 128.484 70.5771 128.587C66.6558 129.107 62.6731 128.914 58.82 128.02C58.0796 127.847 57.4914 127.681 57.09 127.549C56.8735 127.501 56.6658 127.419 56.4742 127.307C56.4742 127.252 57.3945 127.487 58.8754 127.771C60.799 128.137 62.746 128.369 64.702 128.463C66.6611 128.554 68.6241 128.51 70.5771 128.331C72.0511 128.2 72.9714 128.055 72.9853 128.11Z" fill="#263238"/>
<path d="M82.784 155.008C82.7217 155.008 82.9639 154.24 83.1507 153.001C83.6403 149.754 83.0521 146.436 81.4761 143.555C80.8741 142.455 80.3897 141.839 80.4381 141.798C80.4865 141.756 80.5973 141.929 80.8256 142.199C81.1494 142.585 81.441 142.997 81.6975 143.431C83.4335 146.317 84.0423 149.742 83.4068 153.05C83.3112 153.544 83.177 154.03 83.0054 154.503C82.9602 154.682 82.8853 154.853 82.784 155.008Z" fill="#263238"/>
<g opacity="0.3">
<path opacity="0.3" d="M64.356 128.587C62.0286 128.428 59.7159 128.099 57.436 127.605C60.6872 129.374 64.3969 130.119 68.079 129.743C69.4215 129.57 70.847 129.196 71.7189 128.179C69.6775 128.975 66.5428 128.781 64.356 128.587Z" fill="black"/>
</g>
<g opacity="0.3">
<path opacity="0.3" d="M80.0506 158.191C81.2938 156.877 82.2298 155.304 82.791 153.584C83.3523 151.864 83.5248 150.042 83.2961 148.247C83.6277 149.423 83.8023 150.638 83.8151 151.859C83.9629 153.265 83.618 154.679 82.8393 155.859C81.9882 157.029 81.4968 157.734 80.0713 158.191" fill="black"/>
</g>
<path d="M60.6607 135.224C59.9566 134.623 59.1392 134.17 58.2569 133.891C57.3746 133.612 56.4453 133.513 55.5239 133.599C54.6026 133.686 53.7079 133.956 52.8929 134.394C52.0779 134.833 51.3591 135.43 50.779 136.151C50.6821 136.276 50.5852 136.414 50.4953 136.545C49.049 138.711 45.0631 172.446 46.6547 176.488C48.2463 180.529 50.5506 180.245 50.5506 180.245C50.5506 180.245 60.986 180.128 68.4942 178.391C76.0024 176.654 84.3687 173.817 84.3687 173.817L82.9847 165.644C82.9847 165.644 64.6051 168.08 59.5535 167.506L61.4842 151.077C61.4842 151.077 65.8784 145.728 64.619 140.822C64.01 138.49 62.28 136.58 60.6607 135.224Z" fill="#FFBE9D"/>
<path d="M88.7767 160.627L92.9287 157.859L95.8974 155.354C95.9912 155.808 95.9899 156.277 95.8934 156.731C95.797 157.185 95.6074 157.614 95.3369 157.99C94.4165 159.374 92.8664 161.45 92.8664 161.45L88.7767 160.627Z" fill="#FFBE9D"/>
<path d="M94.9286 158.952C94.894 158.952 95.1639 158.634 95.4545 158.039C95.8391 157.213 95.9319 156.281 95.7175 155.396L95.9666 155.465L93.0118 157.991L92.7903 158.136L90.1884 159.873C89.4879 160.358 88.7627 160.806 88.0155 161.215C87.3522 161.628 86.6582 161.989 85.9395 162.295C86.557 161.81 87.2118 161.375 87.8979 160.994C88.5276 160.627 89.2334 160.136 90.0223 159.61L92.6035 157.859L92.8249 157.707L95.8074 155.223L96.0081 155.063L96.0565 155.299C96.2718 156.255 96.129 157.257 95.6552 158.115C95.5232 158.347 95.3653 158.563 95.1846 158.759C95.0185 158.897 94.9424 158.966 94.9286 158.952Z" fill="#EB996E"/>
<path d="M87.282 167.589C87.4204 167.312 98.2709 155.222 100.949 152.24C101.119 152.05 101.347 151.922 101.597 151.875C101.848 151.829 102.107 151.867 102.333 151.984C102.492 152.063 102.631 152.178 102.739 152.32C102.847 152.462 102.92 152.626 102.953 152.801C102.987 152.976 102.98 153.156 102.932 153.328C102.884 153.499 102.798 153.658 102.679 153.79L88.7836 169.242L87.282 167.589Z" fill="#263238"/>
<path d="M98.8315 162.309C99.2813 161.707 98.6169 160.523 98.001 160.198C97.3852 159.873 94.9286 161.229 94.9286 161.229L94.0428 161.312C94.0428 161.312 89.2749 160.343 89.1158 160.426C87.8751 160.961 86.7115 161.659 85.6558 162.502C85.1751 162.941 84.7603 163.447 84.424 164.004C84.0642 164.565 83.1715 165.478 81.0955 165.976L83.1161 174.19C83.1161 174.19 87.5518 173.145 87.884 173.138C88.2162 173.131 91.9322 172.841 92.4235 172.758C93.915 172.384 95.3233 171.733 96.5755 170.841C98.1671 169.658 97.4267 168.654 97.4267 168.654C99.0667 167.54 97.7865 166.433 97.7865 166.433L98.2502 165.644C98.9422 164.392 97.5582 163.7 97.5582 163.7C98.0184 163.27 98.4441 162.805 98.8315 162.309Z" fill="#FFBE9D"/>
<path d="M95.5375 164.855C95.5375 164.765 96.0289 164.53 96.6171 164.163C97.2053 163.796 97.6551 163.471 97.7243 163.513C97.7935 163.554 97.4267 164.059 96.7901 164.447C96.1534 164.834 95.5652 164.945 95.5375 164.855Z" fill="#EB996E"/>
<path d="M96.9285 167.09C96.8731 167.014 97.0392 166.779 97.3091 166.564C97.5789 166.35 97.8419 166.225 97.8973 166.295C97.9526 166.364 97.7865 166.599 97.5167 166.82C97.2468 167.042 96.9907 167.16 96.9285 167.09Z" fill="#EB996E"/>
<path d="M96.444 168.91C96.444 168.813 96.707 168.717 97.0322 168.592C97.3575 168.467 97.6274 168.364 97.6827 168.433C97.7381 168.502 97.5236 168.758 97.1499 168.903C96.7762 169.049 96.444 169 96.444 168.91Z" fill="#EB996E"/>
<path d="M94.9286 161.236C94.1139 161.469 93.2709 161.588 92.4235 161.589C91.5862 161.698 90.7419 161.744 89.8977 161.727C89.8977 161.617 90.9911 161.326 92.3959 161.229C93.2359 161.108 94.0891 161.111 94.9286 161.236Z" fill="#EB996E"/>
<path d="M59.7888 167.353C59.2749 168.215 58.6566 169.01 57.9481 169.72C57.3324 170.515 56.6212 171.23 55.8306 171.851C56.3552 170.995 56.9751 170.201 57.6782 169.485C58.297 168.695 59.0052 167.98 59.7888 167.353Z" fill="#EB996E"/>
<path d="M64.4529 145.043C64.4529 145.043 64.5013 144.676 64.5636 144.019C64.6622 143.095 64.6179 142.161 64.4321 141.251C64.068 139.767 63.3745 138.383 62.403 137.203C61.4315 136.023 60.2069 135.077 58.82 134.435C57.3035 133.72 55.5716 133.608 53.976 134.123C52.6544 134.5 51.5243 135.362 50.8136 136.539C50.3521 137.347 50.0183 138.223 49.824 139.134C49.7633 139.472 49.6824 139.808 49.5818 140.137C49.5818 140.137 49.5818 140.047 49.5818 139.867C49.5818 139.687 49.6233 139.438 49.6856 139.106C49.8091 138.168 50.0898 137.258 50.516 136.414C50.8401 135.828 51.2721 135.309 51.7893 134.885C52.3875 134.407 53.0674 134.041 53.7961 133.805C55.4783 133.242 57.3133 133.351 58.9169 134.11C60.3592 134.759 61.6308 135.734 62.6312 136.959C63.6316 138.184 64.3334 139.625 64.6813 141.168C64.8487 142.106 64.8487 143.067 64.6813 144.005C64.6429 144.262 64.5874 144.517 64.5152 144.766C64.5112 144.862 64.4901 144.955 64.4529 145.043Z" fill="#263238"/>
<path d="M115.778 112.339H87.4065C86.8592 112.35 86.3374 112.572 85.9503 112.959C85.5633 113.346 85.3411 113.868 85.3305 114.415V141.915C85.3322 142.469 85.5504 142.999 85.9384 143.394C86.3264 143.788 86.8533 144.015 87.4065 144.026H97.8557L101.932 149.804L105.475 144.026H115.778C116.057 144.031 116.334 143.979 116.592 143.875C116.85 143.77 117.084 143.615 117.281 143.418C117.478 143.221 117.634 142.987 117.738 142.729C117.842 142.47 117.894 142.194 117.889 141.915V114.45C117.894 114.171 117.842 113.895 117.738 113.637C117.634 113.379 117.478 113.144 117.281 112.947C117.084 112.75 116.85 112.595 116.592 112.49C116.334 112.386 116.057 112.335 115.778 112.339Z" fill="#FAFAFA"/>
<path d="M115.779 112.339C116.065 112.317 116.352 112.365 116.616 112.478C116.939 112.616 117.225 112.826 117.453 113.094C117.763 113.471 117.936 113.941 117.944 114.429C117.944 116.581 117.944 119.702 117.993 123.619C118.041 127.536 117.993 132.297 118.034 137.673C118.034 139.057 118.034 140.441 118.034 141.825C118.052 142.211 117.971 142.594 117.801 142.94C117.63 143.286 117.375 143.583 117.059 143.805C116.731 144.032 116.349 144.168 115.952 144.199C115.557 144.199 115.204 144.199 114.83 144.199H105.475L105.62 144.116L102.084 149.901L101.945 150.129L101.793 149.915L97.7035 144.13L97.8557 144.206H90.5274C89.3856 144.206 88.2923 144.206 87.1297 144.206C86.8279 144.169 86.5365 144.073 86.2727 143.922C86.0088 143.771 85.7779 143.569 85.5935 143.327C85.2368 142.848 85.067 142.255 85.116 141.659C85.116 139.454 85.116 137.281 85.116 135.141C85.116 130.871 85.116 126.754 85.116 122.823C85.116 120.865 85.116 118.948 85.116 117.086C85.116 116.159 85.116 115.239 85.116 114.318C85.1377 113.84 85.3111 113.381 85.6109 113.008C85.9107 112.635 86.3214 112.367 86.7837 112.242C87.2219 112.163 87.668 112.138 88.1123 112.166H91.8699H96.5271L110.589 112.222H114.415H115.405C115.518 112.215 115.631 112.215 115.744 112.222C115.744 112.222 115.633 112.222 115.405 112.222H114.415H110.589L96.5271 112.284H88.1469C87.7279 112.263 87.3079 112.289 86.8944 112.36C86.4941 112.467 86.1385 112.7 85.8796 113.023C85.6206 113.347 85.4719 113.745 85.4551 114.159V116.927C85.4551 118.789 85.4551 120.706 85.4551 122.664C85.4551 126.594 85.4551 130.712 85.4551 134.982V141.5C85.4067 142.017 85.5495 142.534 85.8564 142.953C86.0132 143.155 86.2082 143.323 86.4303 143.449C86.6523 143.575 86.8971 143.656 87.1505 143.687C88.2231 143.721 89.3856 143.687 90.5067 143.687H97.9249L97.9803 143.763L102.056 149.548H101.766L105.309 143.77L105.357 143.687H105.454L114.872 143.936C115.239 143.936 115.626 143.936 115.972 143.936C116.312 143.905 116.638 143.789 116.92 143.597C117.197 143.406 117.421 143.148 117.57 142.846C117.719 142.544 117.788 142.21 117.771 141.874C117.771 140.448 117.771 139.064 117.771 137.722C117.771 132.345 117.771 127.605 117.813 123.667C117.855 119.73 117.813 116.637 117.861 114.478C117.86 114.075 117.742 113.681 117.521 113.344C117.299 113.008 116.985 112.743 116.616 112.581C116.351 112.457 116.069 112.375 115.779 112.339Z" fill="#263238"/>
<path d="M106.347 132.4H106.153H105.592H103.516H96.5963H96.5409V132.345C96.4855 131.978 96.4302 131.591 96.3748 131.196C95.9112 127.84 95.496 124.844 95.2261 122.892L95.2676 122.934H93.4269H92.9356H92.7626H92.9356H93.42H95.2607H95.2953C95.579 124.892 95.9873 127.889 96.4925 131.238C96.5478 131.625 96.6032 132.02 96.6516 132.387L96.5893 132.324H103.509H105.585H106.146C106.215 132.343 106.282 132.368 106.347 132.4Z" fill="#263238"/>
<path d="M96.5271 132.601C96.5006 132.598 96.4758 132.586 96.457 132.567C96.4381 132.548 96.4262 132.524 96.4233 132.497L95.1223 123.121H92.9287C92.7349 123.121 92.6449 123.121 92.638 122.989C92.6311 122.858 92.7349 122.851 92.9287 122.844H93.42H95.3022C95.333 122.844 95.3627 122.855 95.3857 122.875C95.4087 122.896 95.4234 122.924 95.4268 122.955L96.7693 132.283L106.153 132.324C106.381 132.324 106.464 132.324 106.471 132.456C106.471 132.58 106.381 132.587 106.153 132.594H105.599H103.523H96.5409L96.5271 132.601Z" fill="#263238"/>
<path d="M96.3195 130.394H96.5132H97.0668H99.1428L106.326 130.359L106.263 130.414C106.478 129.203 106.706 127.895 106.955 126.539C107.08 125.847 107.198 125.155 107.315 124.505L107.378 124.581H98.9075H96.3956H98.9075L107.378 124.546H107.454V124.622C107.343 125.314 107.218 125.958 107.101 126.657C106.859 128.041 106.63 129.321 106.409 130.532V130.58H106.353H99.1705H97.0945H96.3471L96.3195 130.394Z" fill="#263238"/>
<path d="M96.3264 130.525C96.2915 130.525 96.2581 130.511 96.2334 130.487C96.2087 130.462 96.1949 130.428 96.1949 130.394C96.1949 130.276 96.3195 130.269 96.361 130.262H97.053H99.129L106.16 130.228L107.129 124.692L95.5237 124.65C95.4614 124.65 95.3368 124.65 95.3368 124.519C95.3368 124.387 95.4614 124.394 95.5167 124.387H96.3748H100.651H107.433C107.452 124.387 107.47 124.391 107.487 124.399C107.504 124.408 107.519 124.42 107.53 124.435C107.536 124.451 107.54 124.467 107.54 124.484C107.54 124.501 107.536 124.517 107.53 124.532L106.471 130.567C106.466 130.596 106.451 130.622 106.428 130.642C106.405 130.661 106.376 130.671 106.347 130.67L96.3125 130.629L96.3264 130.525Z" fill="#263238"/>
<path d="M99.0459 135.051C99.0229 134.976 99.0044 134.9 98.9906 134.822C98.9261 134.621 98.8003 134.444 98.6307 134.317C98.4931 134.217 98.3303 134.156 98.1604 134.142C97.9906 134.128 97.8201 134.161 97.6678 134.238C97.5155 134.314 97.3872 134.431 97.297 134.576C97.2069 134.72 97.1583 134.887 97.1568 135.058C97.1571 135.229 97.205 135.396 97.2951 135.541C97.3853 135.686 97.5141 135.804 97.6671 135.88C97.8201 135.956 97.9913 135.988 98.1615 135.972C98.3317 135.957 98.4942 135.894 98.6307 135.791C98.801 135.665 98.927 135.488 98.9906 135.286C99.0321 135.141 99.0321 135.051 99.0459 135.051C99.061 135.133 99.061 135.217 99.0459 135.3C98.9982 135.524 98.8733 135.725 98.693 135.867C98.516 136.015 98.2959 136.1 98.0659 136.111C97.836 136.122 97.6088 136.057 97.4187 135.928C97.2286 135.798 97.086 135.609 97.0125 135.391C96.939 135.173 96.9387 134.937 97.0115 134.719C97.0843 134.5 97.2263 134.311 97.4159 134.181C97.6056 134.051 97.8327 133.985 98.0627 133.996C98.2926 134.006 98.5131 134.091 98.6905 134.237C98.8679 134.384 98.9927 134.585 99.0459 134.809C99.0613 134.889 99.0613 134.971 99.0459 135.051Z" fill="#263238"/>
<path d="M97.8972 136.199C97.8215 136.19 97.7471 136.171 97.6758 136.144C97.4507 136.064 97.2555 135.918 97.1169 135.723C96.9782 135.529 96.9027 135.296 96.9008 135.058C96.9033 134.818 96.9789 134.585 97.1174 134.39C97.2558 134.194 97.4507 134.046 97.6758 133.964C97.8574 133.9 98.0522 133.883 98.2421 133.915C98.4321 133.946 98.611 134.025 98.7622 134.144C98.9646 134.307 99.106 134.534 99.1636 134.788C99.178 134.875 99.178 134.964 99.1636 135.051C99.1779 135.14 99.1779 135.231 99.1636 135.321C99.1049 135.601 98.941 135.849 98.7054 136.012C98.4699 136.176 98.1807 136.243 97.8972 136.199ZM98.1948 134.269C98.0613 134.251 97.9256 134.268 97.8004 134.317C97.6491 134.373 97.5187 134.474 97.4271 134.606C97.3354 134.739 97.2869 134.896 97.2883 135.058C97.2879 135.219 97.3368 135.376 97.4283 135.508C97.5199 135.64 97.6497 135.742 97.8004 135.798C97.9252 135.843 98.0589 135.857 98.1902 135.839C98.3215 135.821 98.4465 135.771 98.5546 135.694C98.7025 135.583 98.8114 135.428 98.866 135.251C98.866 135.178 98.8799 135.122 98.9075 135.085V135.023L98.866 134.857C98.8142 134.681 98.7045 134.527 98.5546 134.421C98.4519 134.333 98.3278 134.273 98.1948 134.248V134.269Z" fill="#263238"/>
<path d="M105.315 135.044C105.315 135.044 105.315 134.961 105.253 134.815C105.197 134.612 105.072 134.434 104.9 134.31C104.764 134.207 104.601 134.145 104.431 134.129C104.261 134.113 104.09 134.145 103.937 134.222C103.784 134.298 103.655 134.415 103.565 134.56C103.475 134.705 103.427 134.873 103.426 135.044C103.428 135.214 103.476 135.381 103.567 135.526C103.657 135.67 103.785 135.787 103.937 135.864C104.09 135.94 104.26 135.973 104.43 135.959C104.6 135.945 104.763 135.885 104.9 135.784C105.071 135.658 105.197 135.481 105.26 135.279C105.302 135.134 105.302 135.044 105.315 135.044C105.33 135.124 105.33 135.206 105.315 135.286C105.271 135.512 105.145 135.713 104.963 135.853C104.829 135.961 104.669 136.033 104.5 136.062C104.33 136.091 104.156 136.077 103.994 136.02C103.851 135.972 103.721 135.893 103.612 135.789C103.503 135.686 103.417 135.56 103.362 135.42C103.307 135.28 103.284 135.129 103.293 134.979C103.302 134.829 103.344 134.683 103.416 134.55C103.487 134.418 103.587 134.303 103.708 134.214C103.829 134.124 103.968 134.062 104.115 134.032C104.263 134.002 104.415 134.004 104.561 134.039C104.708 134.074 104.845 134.141 104.963 134.234C105.142 134.377 105.266 134.578 105.315 134.802C105.331 134.882 105.331 134.964 105.315 135.044Z" fill="#263238"/>
<path d="M104.167 136.193C104.092 136.18 104.018 136.161 103.945 136.137C103.72 136.058 103.524 135.91 103.386 135.715C103.248 135.52 103.174 135.286 103.174 135.047C103.174 134.808 103.248 134.575 103.386 134.38C103.524 134.184 103.72 134.037 103.945 133.957C104.127 133.892 104.322 133.874 104.512 133.906C104.702 133.937 104.881 134.017 105.032 134.137C105.235 134.296 105.374 134.522 105.426 134.774C105.444 134.863 105.444 134.955 105.426 135.044C105.44 135.133 105.44 135.224 105.426 135.314C105.365 135.593 105.2 135.838 104.965 136.001C104.73 136.164 104.443 136.232 104.16 136.193H104.167ZM104.492 134.248C104.359 134.232 104.224 134.246 104.098 134.29C103.991 134.33 103.894 134.392 103.814 134.473C103.734 134.553 103.671 134.65 103.632 134.757C103.592 134.864 103.576 134.978 103.584 135.091C103.592 135.205 103.624 135.315 103.679 135.415C103.733 135.515 103.809 135.602 103.9 135.671C103.991 135.739 104.095 135.787 104.207 135.812C104.318 135.836 104.433 135.836 104.544 135.813C104.655 135.789 104.76 135.741 104.852 135.674C105.003 135.565 105.112 135.409 105.163 135.231C105.18 135.176 105.194 135.121 105.205 135.065V135.009C105.205 134.975 105.205 134.912 105.163 134.843C105.112 134.665 105.003 134.509 104.852 134.4C104.745 134.323 104.622 134.27 104.492 134.248Z" fill="#263238"/>
<path d="M110.948 125.48C110.948 126.126 110.757 126.758 110.398 127.295C110.039 127.832 109.529 128.251 108.932 128.498C108.335 128.745 107.678 128.81 107.045 128.684C106.411 128.558 105.829 128.247 105.373 127.79C104.916 127.333 104.605 126.751 104.479 126.118C104.353 125.484 104.417 124.827 104.664 124.23C104.912 123.634 105.33 123.123 105.867 122.765C106.405 122.406 107.036 122.214 107.682 122.214C108.548 122.216 109.378 122.561 109.99 123.173C110.602 123.785 110.947 124.615 110.948 125.48Z" fill="#0560FA"/>
<path d="M105.814 125.55L106.298 125.058L107.246 125.896L109.094 124.117L109.551 124.602L107.177 126.837L105.814 125.55Z" fill="white"/>
</svg>
