<svg width="17" height="16" viewBox="0 0 17 16" fill="none" xmlns="http://www.w3.org/2000/svg">
<g id="akar-icons:google-contained-fill" clip-path="url(#clip0_205_5292)">
<path id="Vector" fill-rule="evenodd" clip-rule="evenodd" d="M8.5 0C4.08133 0 0.5 3.582 0.5 8C0.5 12.418 4.08133 16 8.5 16C12.918 16 16.5 12.418 16.5 8C16.5 3.582 12.918 0 8.5 0ZM8.59333 12.6787C6.01467 12.6787 3.92667 10.5853 3.92667 8C3.92667 5.41467 6.01467 3.32133 8.59333 3.32133C9.85333 3.32133 10.9067 3.786 11.7147 4.54067L10.3987 5.85933V5.85667C9.90867 5.38867 9.28733 5.14867 8.59333 5.14867C7.05333 5.14867 5.802 6.45267 5.802 7.99733C5.802 9.54067 7.05333 10.8487 8.59333 10.8487C9.99067 10.8487 10.9413 10.0473 11.1373 8.94733H8.59333V7.12267H12.9833C13.042 7.436 13.0733 7.76267 13.0733 8.10533C13.0733 10.7787 11.2887 12.6787 8.59333 12.6787Z" fill="#EC8000"/>
</g>
<defs>
<clipPath id="clip0_205_5292">
<rect width="16" height="16" fill="white" transform="translate(0.5)"/>
</clipPath>
</defs>
</svg>
