<svg width="37" height="36" viewBox="0 0 37 36" fill="none" xmlns="http://www.w3.org/2000/svg">
<path d="M18.6088 33.4236C19.8347 33.4236 20.8284 32.4299 20.8284 31.204C20.8284 29.9781 19.8347 28.9844 18.6088 28.9844C17.383 28.9844 16.3892 29.9781 16.3892 31.204C16.3892 32.4299 17.383 33.4236 18.6088 33.4236Z" stroke="#3A3A3A" stroke-width="0.918466" stroke-miterlimit="10"/>
<path d="M18.6088 24.545C19.8347 24.545 20.8284 23.5513 20.8284 22.3254C20.8284 21.0995 19.8347 20.1058 18.6088 20.1058C17.383 20.1058 16.3892 21.0995 16.3892 22.3254C16.3892 23.5513 17.383 24.545 18.6088 24.545Z" stroke="#3A3A3A" stroke-width="0.918466" stroke-miterlimit="10"/>
<path d="M20.8284 13.447C20.8284 13.886 20.6983 14.3152 20.4544 14.6802C20.2105 15.0452 19.8638 15.3297 19.4582 15.4977C19.0526 15.6657 18.6064 15.7096 18.1758 15.624C17.7452 15.5383 17.3497 15.3269 17.0393 15.0165C16.7289 14.7061 16.5175 14.3106 16.4318 13.88C16.3462 13.4495 16.3902 13.0032 16.5582 12.5976C16.7261 12.192 17.0106 11.8454 17.3757 11.6015C17.7407 11.3576 18.1698 11.2274 18.6088 11.2274C19.1975 11.2274 19.7621 11.4612 20.1783 11.8775C20.5946 12.2938 20.8284 12.8583 20.8284 13.447Z" stroke="#3A3A3A" stroke-width="0.918466" stroke-miterlimit="10"/>
<path d="M18.6088 6.78828C19.8347 6.78828 20.8284 5.79452 20.8284 4.56866C20.8284 3.34279 19.8347 2.34903 18.6088 2.34903C17.383 2.34903 16.3892 3.34279 16.3892 4.56866C16.3892 5.79452 17.383 6.78828 18.6088 6.78828Z" stroke="#3A3A3A" stroke-width="0.918466" stroke-miterlimit="10"/>
<path d="M27.4872 24.545C28.7131 24.545 29.7068 23.5513 29.7068 22.3254C29.7068 21.0995 28.7131 20.1058 27.4872 20.1058C26.2613 20.1058 25.2676 21.0995 25.2676 22.3254C25.2676 23.5513 26.2613 24.545 27.4872 24.545Z" stroke="#3A3A3A" stroke-width="0.918466" stroke-miterlimit="10"/>
<path d="M27.4872 15.6666C28.7131 15.6666 29.7068 14.6729 29.7068 13.447C29.7068 12.2211 28.7131 11.2274 27.4872 11.2274C26.2613 11.2274 25.2676 12.2211 25.2676 13.447C25.2676 14.6729 26.2613 15.6666 27.4872 15.6666Z" stroke="#3A3A3A" stroke-width="0.918466" stroke-miterlimit="10"/>
<path d="M27.4872 6.78828C28.7131 6.78828 29.7068 5.79452 29.7068 4.56866C29.7068 3.34279 28.7131 2.34903 27.4872 2.34903C26.2613 2.34903 25.2676 3.34279 25.2676 4.56866C25.2676 5.79452 26.2613 6.78828 27.4872 6.78828Z" stroke="#3A3A3A" stroke-width="0.918466" stroke-miterlimit="10"/>
<path d="M9.7302 24.545C10.9561 24.545 11.9498 23.5513 11.9498 22.3254C11.9498 21.0995 10.9561 20.1058 9.7302 20.1058C8.50433 20.1058 7.51057 21.0995 7.51057 22.3254C7.51057 23.5513 8.50433 24.545 9.7302 24.545Z" stroke="#3A3A3A" stroke-width="0.918466" stroke-miterlimit="10"/>
<path d="M9.7302 15.6666C10.9561 15.6666 11.9498 14.6729 11.9498 13.447C11.9498 12.2211 10.9561 11.2274 9.7302 11.2274C8.50433 11.2274 7.51057 12.2211 7.51057 13.447C7.51057 14.6729 8.50433 15.6666 9.7302 15.6666Z" stroke="#3A3A3A" stroke-width="0.918466" stroke-miterlimit="10"/>
<path d="M9.7302 6.78828C10.9561 6.78828 11.9498 5.79452 11.9498 4.56866C11.9498 3.34279 10.9561 2.34903 9.7302 2.34903C8.50433 2.34903 7.51057 3.34279 7.51057 4.56866C7.51057 5.79452 8.50433 6.78828 9.7302 6.78828Z" stroke="#3A3A3A" stroke-width="0.918466" stroke-miterlimit="10"/>
</svg>
