<svg width="119" height="119" viewBox="0 0 119 119" fill="none" xmlns="http://www.w3.org/2000/svg">
<path d="M119 59.5C119 92.3609 92.3609 119 59.5 119C26.6391 119 0 92.3609 0 59.5C0 26.6391 26.6391 0 59.5 0C92.3609 0 119 26.6391 119 59.5ZM13.9105 59.5C13.9105 84.6784 34.3216 105.089 59.5 105.089C84.6784 105.089 105.089 84.6784 105.089 59.5C105.089 34.3216 84.6784 13.9105 59.5 13.9105C34.3216 13.9105 13.9105 34.3216 13.9105 59.5Z" fill="url(#paint0_angular_3_5450)"/>
<circle cx="59.3017" cy="112.058" r="6.94167" fill="#FE9821"/>
<defs>
<radialGradient id="paint0_angular_3_5450" cx="0" cy="0" r="1" gradientUnits="userSpaceOnUse" gradientTransform="translate(59.5 59.5) rotate(90) scale(59.5)">
<stop stop-color="#FF9416"/>
<stop offset="1" stop-color="#D9D9D9" stop-opacity="0"/>
</radialGradient>
</defs>
</svg>
