<svg width="13" height="18" viewBox="0 0 13 18" fill="none" xmlns="http://www.w3.org/2000/svg">
<path fill-rule="evenodd" clip-rule="evenodd" d="M12.2129 7.77328C12.5814 7.77328 12.8801 8.02587 12.8801 8.33744L12.8777 8.36776V9.77042H12.8695C12.8715 12.3621 10.5805 14.5455 7.53684 14.8524V16.5674H10.051L10.0503 16.5747C10.0594 16.5744 10.0685 16.5742 10.0777 16.5742C10.4462 16.5742 10.745 16.8268 10.745 17.1384C10.745 17.4499 10.4462 17.7025 10.0777 17.7025L10.0505 17.7005L10.051 17.7025H3.6962C3.6885 17.7024 3.68035 17.7025 3.67218 17.7025C3.30367 17.7025 3.00493 17.4499 3.00493 17.1384C3.00493 16.8268 3.30367 16.5742 3.67218 16.5742L3.6962 16.5754V16.5674H6.21571V14.8524C3.16555 14.5527 0.866047 12.3667 0.869755 9.77042C0.869755 9.7456 0.874304 9.72303 0.874838 9.70046L0.87496 8.40822C0.871529 8.38504 0.869755 8.36141 0.869755 8.33744C0.869755 8.02587 1.1685 7.77328 1.53701 7.77328C1.90551 7.77328 2.20426 8.02587 2.20426 8.33744L2.20049 8.384L2.20103 9.94644H2.19756V9.95095L2.20103 10.0119V10.224H2.21359C2.41192 12.2304 4.3539 13.7942 6.73376 13.864H7.00333C9.38394 13.7954 11.327 12.2311 11.5246 10.224H11.5406V8.34422C11.5457 8.34206 11.5457 8.33975 11.5457 8.33744C11.5457 8.02587 11.8444 7.77328 12.2129 7.77328ZM10.4727 8.82037C10.4727 9.16112 10.4727 9.51993 10.4514 9.86069C10.435 10.168 10.3795 10.4729 10.2859 10.7701C10.077 11.394 9.63161 11.9426 9.01813 12.3317C7.75981 13.1711 5.98475 13.1711 4.72643 12.3317C4.11135 11.9438 3.66539 11.3948 3.45812 10.7701C3.36409 10.4729 3.30869 10.168 3.29292 9.86069C3.2697 9.51993 3.27178 9.16112 3.27178 8.82037V5.96796C3.27178 5.62947 3.27397 4.13332 3.27178 3.88057C3.28238 3.57144 3.3453 3.26518 3.45866 2.97114C3.88594 1.67558 5.28181 0.779446 6.87255 0.779446C8.46329 0.779446 9.85915 1.67558 10.2864 2.97114C10.3868 3.26781 10.4494 3.57267 10.4732 3.88057C10.4973 4.22132 10.4732 5.62947 10.4732 5.96796V8.82037H10.4727ZM9.13823 9.35293C9.13823 9.56957 9.13288 9.64179 9.11687 9.85842C9.10766 10.0551 9.07277 10.2504 9.0128 10.4406C8.88498 10.8401 8.60669 11.1934 8.2201 11.4471C7.42799 11.9676 6.31923 11.9676 5.52712 11.4471C5.13904 11.1941 4.85966 10.8406 4.73176 10.4406C4.67308 10.2502 4.63819 10.055 4.62767 9.85842C4.61432 9.64179 4.61166 9.56957 4.61166 9.35293C4.61166 6.35159 4.59563 4.12654 4.61699 3.88734C4.63243 3.69054 4.67088 3.49551 4.73176 3.30512C4.85966 2.90515 5.13904 2.55164 5.52712 2.29866C6.31923 1.77812 7.42799 1.77812 8.2201 2.29866C8.60669 2.55238 8.88498 2.9057 9.0128 3.30512C9.0806 3.49464 9.12357 3.68988 9.14091 3.88734C9.1596 4.14459 9.13823 6.34257 9.13823 9.35293Z" fill="#A7A7A7"/>
</svg>
