<svg width="83" height="83" viewBox="0 0 83 83" fill="none" xmlns="http://www.w3.org/2000/svg">
<path d="M41.5695 10.0634C30.1224 10.0634 20.8195 19.3664 20.8195 30.8134V40.808C20.8195 42.9176 19.9203 46.1339 18.8482 47.9322L14.8711 54.5376C12.4157 58.6184 14.1103 63.1489 18.6061 64.6705C33.5116 69.6505 49.5928 69.6505 64.4982 64.6705C68.6828 63.2872 70.5157 58.3418 68.2332 54.5376L64.2561 47.9322C63.2186 46.1339 62.3195 42.9176 62.3195 40.808V30.8134C62.3195 19.4009 52.982 10.0634 41.5695 10.0634Z" stroke="#A7A7A7" stroke-width="5.1875" stroke-miterlimit="10" stroke-linecap="round"/>
<path d="M47.9668 11.0665C46.8947 10.7552 45.7881 10.5131 44.6468 10.3748C41.3268 9.9598 38.1451 10.2019 35.171 11.0665C36.1739 8.5073 38.6639 6.70897 41.5689 6.70897C44.4739 6.70897 46.9639 8.5073 47.9668 11.0665Z" stroke="#A7A7A7" stroke-width="5.1875" stroke-miterlimit="10" stroke-linecap="round" stroke-linejoin="round"/>
<path d="M51.9442 65.916C51.9442 71.6223 47.2755 76.291 41.5692 76.291C38.7334 76.291 36.1051 75.1152 34.2376 73.2477C32.3701 71.3802 31.1942 68.7519 31.1942 65.916" stroke="#A7A7A7" stroke-width="5.1875" stroke-miterlimit="10"/>
</svg>
