<svg width="32" height="32" viewBox="0 0 32 32" fill="none" xmlns="http://www.w3.org/2000/svg">
<path d="M25.9599 15.8834C25.9599 16.9922 25.7751 18.0597 25.437 19.0545L23.8367 17.4542C23.9414 16.9372 23.9941 16.411 23.9939 15.8834V13.9175C23.9939 13.6568 24.0975 13.4067 24.2819 13.2224C24.4662 13.0381 24.7162 12.9345 24.9769 12.9345C25.2376 12.9345 25.4877 13.0381 25.672 13.2224C25.8563 13.4067 25.9599 13.6568 25.9599 13.9175V15.8834ZM16.1301 23.7472C17.7383 23.7472 19.2324 23.2656 20.4788 22.436L21.8904 23.8495C20.487 24.8672 18.8382 25.4934 17.1131 25.6641V29.6451H23.011C23.2717 29.6451 23.5217 29.7487 23.706 29.933C23.8904 30.1174 23.9939 30.3674 23.9939 30.6281C23.9939 30.8888 23.8904 31.1388 23.706 31.3232C23.5217 31.5075 23.2717 31.6111 23.011 31.6111H9.24929C8.98859 31.6111 8.73856 31.5075 8.55422 31.3232C8.36988 31.1388 8.26631 30.8888 8.26631 30.6281C8.26631 30.3674 8.36988 30.1174 8.55422 29.933C8.73856 29.7487 8.98859 29.6451 9.24929 29.6451H15.1472V25.6641C12.7225 25.4204 10.4748 24.2847 8.84013 22.4775C7.20545 20.6703 6.30033 18.3203 6.30036 15.8834V13.9175C6.30036 13.6568 6.40392 13.4067 6.58826 13.2224C6.77261 13.0381 7.02263 12.9345 7.28333 12.9345C7.54404 12.9345 7.79406 13.0381 7.9784 13.2224C8.16275 13.4067 8.26631 13.6568 8.26631 13.9175V15.8834C8.26631 17.969 9.09482 19.9692 10.5696 21.444C12.0443 22.9187 14.0445 23.7472 16.1301 23.7472ZM22.028 6.05365V15.6455L20.062 13.6796V6.05365C20.0666 5.02794 19.6701 4.04105 18.9572 3.30355C18.2443 2.56604 17.2715 2.13632 16.2462 2.10605C15.2209 2.07578 14.2244 2.44737 13.4692 3.14153C12.7141 3.83569 12.2601 4.79747 12.2041 5.82167L10.5429 4.16044C10.993 2.83783 11.8978 1.71785 13.0963 0.999905C14.2949 0.281957 15.7093 0.0126248 17.0878 0.239857C18.4662 0.46709 19.7194 1.17614 20.624 2.24078C21.5287 3.30542 22.0262 4.65655 22.028 6.05365Z" fill="#3A3A3A"/>
<path d="M19.0514 21.009L17.5809 19.5385C16.9845 19.7753 16.3391 19.8625 15.7012 19.7925C15.0633 19.7225 14.4523 19.4975 13.9214 19.137C13.3905 18.7765 12.9558 18.2916 12.6555 17.7245C12.3551 17.1574 12.1981 16.5255 12.1981 15.8837V14.1576L10.2321 12.1917V15.8837C10.2318 16.9165 10.5027 17.9312 11.0177 18.8264C11.5327 19.7216 12.2737 20.4659 13.1666 20.9848C14.0595 21.5037 15.073 21.7791 16.1058 21.7833C17.1385 21.7876 18.1543 21.5205 19.0514 21.009ZM3.63834 2.81801L27.2298 26.4095L28.6217 25.0176L5.03023 1.42612L3.63834 2.81801Z" fill="#3A3A3A"/>
</svg>
