<svg width="15" height="19" viewBox="0 0 15 19" fill="none" xmlns="http://www.w3.org/2000/svg">
<path d="M4.42647 0.441615L3.6019 0.690022C2.86769 0.911437 2.21201 1.33798 1.71203 1.91945C1.21206 2.50092 0.888594 3.21312 0.779712 3.97222C0.438152 6.35049 1.20177 9.13127 3.04298 12.3203C4.87958 15.5013 6.90134 17.5507 9.12666 18.4477C9.84167 18.7359 10.6244 18.8127 11.3818 18.6689C12.1391 18.5252 12.8393 18.167 13.399 17.6369L14.0224 17.0458C14.4271 16.6627 14.679 16.1457 14.7313 15.5909C14.7835 15.0361 14.6325 14.4812 14.3064 14.0293L12.747 11.8672C12.5361 11.5753 12.2392 11.3567 11.8979 11.2421C11.5566 11.1274 11.188 11.1224 10.8437 11.2278L8.48494 11.9489L8.42399 11.9604C8.16408 11.9983 7.56376 11.4359 6.81624 10.141C6.03422 8.78626 5.87321 7.99389 6.08827 7.78918L7.28775 6.6702C7.72639 6.26132 8.02602 5.72538 8.14462 5.13757C8.26321 4.54976 8.19481 3.93957 7.94902 3.3926L7.1877 1.7009C6.95877 1.19183 6.55253 0.78338 6.04471 0.551688C5.5369 0.319995 4.96215 0.280873 4.42762 0.441615H4.42647ZM6.14002 2.17242L6.89904 3.86412C7.04686 4.19214 7.0882 4.55824 7.01724 4.91097C6.94628 5.26369 6.7666 5.58533 6.50343 5.83067L5.3005 6.95081C4.53112 7.67993 4.78643 8.92427 5.82146 10.716C6.79439 12.402 7.68222 13.2346 8.63674 13.0897L8.77935 13.0598L11.1806 12.3272C11.2954 12.292 11.4183 12.2935 11.5322 12.3317C11.646 12.3698 11.7451 12.4427 11.8154 12.54L13.3749 14.702C13.5382 14.928 13.6139 15.2055 13.5878 15.4831C13.5618 15.7606 13.4359 16.0192 13.2334 16.2109L12.609 16.802C12.2091 17.1804 11.7091 17.436 11.1683 17.5386C10.6274 17.6411 10.0685 17.5862 9.55792 17.3805C7.60516 16.5938 5.75936 14.7227 4.04006 11.7453C2.31616 8.76096 1.61809 6.22284 1.91825 4.13552C1.99594 3.5932 2.22698 3.08437 2.58414 2.66894C2.9413 2.2535 3.40972 1.94877 3.93426 1.7906L4.75883 1.5422C5.02616 1.46187 5.31359 1.48151 5.56751 1.59747C5.82143 1.71342 6.02451 1.91778 6.13887 2.17242H6.14002Z" fill="#0560FA"/>
</svg>
