<svg width="390" height="316" viewBox="0 0 390 316" fill="none" xmlns="http://www.w3.org/2000/svg">
<path d="M403 277.635H-21V277.847H403V277.635Z" fill="#E6E6E6"/>
<path d="M376.203 285.115H360.286V285.327H376.203V285.115Z" fill="#E6E6E6"/>
<path d="M302.732 290.932H295.363V291.144H302.732V290.932Z" fill="#E6E6E6"/>
<path d="M232.823 288.006H216.406V288.218H232.823V288.006Z" fill="#E6E6E6"/>
<path d="M84.2537 287.896H47.6286V288.108H84.2537V287.896Z" fill="#E6E6E6"/>
<path d="M40.0814 287.896H34.7136V288.108H40.0814V287.896Z" fill="#E6E6E6"/>
<path d="M218.967 282.876H139.526V283.088H218.967V282.876Z" fill="#E6E6E6"/>
<path d="M179.976 239.814H16.2357C14.9529 239.812 13.7235 239.301 12.8173 238.393C11.911 237.485 11.4021 236.255 11.4021 234.972V4.79968C11.4132 3.52431 11.9271 2.30485 12.8322 1.40617C13.7372 0.507493 14.9602 0.00218478 16.2357 0H179.976C181.26 0 182.492 0.510146 183.4 1.41821C184.308 2.32628 184.818 3.55788 184.818 4.84208V234.972C184.818 236.257 184.308 237.488 183.4 238.396C182.492 239.304 181.26 239.814 179.976 239.814ZM16.2357 0.169601C15.0092 0.171847 13.8337 0.660647 12.9672 1.52871C12.1007 2.39678 11.6141 3.57317 11.6141 4.79968V234.972C11.6141 236.199 12.1007 237.375 12.9672 238.243C13.8337 239.111 15.0092 239.6 16.2357 239.602H179.976C181.203 239.6 182.38 239.112 183.247 238.244C184.115 237.376 184.604 236.2 184.606 234.972V4.79968C184.604 3.5724 184.115 2.39602 183.247 1.52819C182.38 0.660372 181.203 0.171842 179.976 0.169601H16.2357Z" fill="#E6E6E6"/>
<path d="M363.407 239.814H199.658C198.375 239.812 197.144 239.301 196.237 238.394C195.329 237.486 194.818 236.256 194.816 234.972V4.79968C194.829 3.52354 195.345 2.30408 196.252 1.40564C197.158 0.507196 198.382 0.00216095 199.658 0H363.407C364.681 0.00441341 365.902 0.510707 366.805 1.40915C367.708 2.30758 368.221 3.52577 368.232 4.79968V234.972C368.232 236.254 367.724 237.483 366.82 238.39C365.915 239.298 364.688 239.81 363.407 239.814ZM199.658 0.169601C198.431 0.171842 197.254 0.660372 196.387 1.52819C195.519 2.39602 195.03 3.5724 195.028 4.79968V234.972C195.03 236.2 195.519 237.376 196.387 238.244C197.254 239.112 198.431 239.6 199.658 239.602H363.407C364.634 239.6 365.811 239.112 366.678 238.244C367.546 237.376 368.035 236.2 368.037 234.972V4.79968C368.035 3.5724 367.546 2.39602 366.678 1.52819C365.811 0.660372 364.634 0.171842 363.407 0.169601H199.658Z" fill="#E6E6E6"/>
<path d="M200.294 15.8406H28.7861V138.063H200.294V15.8406Z" fill="#FAFAFA"/>
<path d="M203.466 15.8406H30.2701V138.063H203.466V15.8406Z" fill="#F5F5F5"/>
<path d="M199.022 133.068V20.8269L34.7136 20.8269V133.068H199.022Z" fill="#FAFAFA"/>
<path d="M64.631 133.068L90.6986 20.8269H124.873L98.8054 133.068H64.631Z" fill="white"/>
<path d="M104.334 133.068L130.41 20.8269H145.844L119.768 133.068H104.334Z" fill="white"/>
<path d="M199.022 133.068V20.8269H198.454V133.068H199.022Z" fill="#FAFAFA"/>
<path d="M25.4534 15.6371V64.0749H38.2667C38.2667 64.0749 61.256 49.0568 66.522 18.1642C66.6497 17.4243 66.6136 16.6654 66.4164 15.941C66.2192 15.2166 65.8657 14.5441 65.3807 13.971C64.8957 13.3979 64.291 12.938 63.6091 12.6237C62.9273 12.3094 62.1848 12.1484 61.434 12.1519H28.9387C28.0143 12.1519 27.1278 12.519 26.4742 13.1727C25.8206 13.8263 25.4534 14.7128 25.4534 15.6371Z" fill="#E0E0E0"/>
<path d="M25.4534 153.013V67.9842H38.2667C38.2667 67.9842 64.2748 118.059 67.2852 153.013H25.4534Z" fill="#E0E0E0"/>
<path d="M37.8936 64.0749H25.9198C25.2127 64.0749 24.6394 64.6482 24.6394 65.3554V66.7037C24.6394 67.4109 25.2127 67.9842 25.9198 67.9842H37.8936C38.6008 67.9842 39.1741 67.4109 39.1741 66.7037V65.3554C39.1741 64.6482 38.6008 64.0749 37.8936 64.0749Z" fill="#F5F5F5"/>
<path d="M207.112 15.6371V64.0749H194.273C194.273 64.0749 171.25 49.0568 166.018 18.1642C165.892 17.4245 165.929 16.6662 166.127 15.9424C166.325 15.2186 166.678 14.5468 167.163 13.974C167.648 13.4013 168.252 12.9414 168.933 12.6266C169.614 12.3119 170.356 12.1498 171.106 12.1518H203.635C204.557 12.1563 205.44 12.5252 206.092 13.1781C206.743 13.831 207.11 14.7149 207.112 15.6371Z" fill="#E0E0E0"/>
<path d="M207.112 153.013V67.9842H194.273C194.273 67.9842 168.274 118.059 165.255 153.013H207.112Z" fill="#E0E0E0"/>
<path d="M194.646 67.9757H206.62C207.327 67.9757 207.901 67.4024 207.901 66.6952V65.3469C207.901 64.6397 207.327 64.0664 206.62 64.0664H194.646C193.939 64.0664 193.366 64.6397 193.366 65.3469V66.6952C193.366 67.4024 193.939 67.9757 194.646 67.9757Z" fill="#F5F5F5"/>
<path d="M203.237 168.464H175.058V277.635H203.237V168.464Z" fill="#FAFAFA"/>
<path d="M195.715 277.635H203.237V265.025H187.828L195.715 277.635Z" fill="#F4F8FF"/>
<path d="M68.4216 168.464H40.2425V277.635H68.4216V168.464Z" fill="#E0E0E0"/>
<path d="M203.237 168.464H61.8581V273.293H203.237V168.464Z" fill="#FAFAFA"/>
<path d="M104.334 149.926C104.334 160.102 114.137 168.464 126.128 168.464H136.948C148.931 168.464 158.734 160.119 158.734 149.926H104.334Z" fill="#EBEBEB"/>
<path d="M98.0592 126.632H118.411C118.411 126.632 114.875 135.96 114.875 141.455C114.875 146.95 130.359 168.464 108.235 168.464C86.1108 168.464 101.595 146.941 101.595 141.455C101.595 135.968 98.0592 126.632 98.0592 126.632Z" fill="#E0E0E0"/>
<path d="M197.402 174.849H67.6923V201.281H197.402V174.849Z" fill="#EBEBEB"/>
<path d="M69.3799 277.635H61.8581V265.025H77.2747L69.3799 277.635Z" fill="#FAFAFA"/>
<path d="M128.562 188.061C128.562 188.849 128.795 189.62 129.233 190.275C129.671 190.931 130.294 191.442 131.022 191.743C131.75 192.045 132.552 192.124 133.325 191.97C134.098 191.816 134.808 191.437 135.366 190.879C135.923 190.322 136.303 189.612 136.456 188.839C136.61 188.065 136.531 187.264 136.23 186.536C135.928 185.807 135.417 185.185 134.762 184.747C134.106 184.309 133.336 184.075 132.547 184.075C131.49 184.075 130.477 184.495 129.729 185.243C128.982 185.99 128.562 187.004 128.562 188.061Z" fill="#FAFAFA"/>
<path d="M197.402 207.667H67.6923V234.099H197.402V207.667Z" fill="#EBEBEB"/>
<path d="M128.562 220.879C128.562 221.667 128.795 222.437 129.233 223.093C129.671 223.748 130.294 224.259 131.022 224.561C131.75 224.862 132.552 224.941 133.325 224.788C134.098 224.634 134.808 224.254 135.366 223.697C135.923 223.139 136.303 222.429 136.456 221.656C136.61 220.883 136.531 220.082 136.23 219.353C135.928 218.625 135.417 218.003 134.762 217.565C134.106 217.127 133.336 216.893 132.547 216.893C131.49 216.893 130.477 217.313 129.729 218.06C128.982 218.808 128.562 219.822 128.562 220.879Z" fill="#FAFAFA"/>
<path d="M197.402 240.476H67.6923V266.908H197.402V240.476Z" fill="#EBEBEB"/>
<path d="M132.547 257.682C134.749 257.682 136.533 255.897 136.533 253.696C136.533 251.495 134.749 249.711 132.547 249.711C130.346 249.711 128.562 251.495 128.562 253.696C128.562 255.897 130.346 257.682 132.547 257.682Z" fill="#FAFAFA"/>
<path d="M292.658 14.3651H229.711V59.1734H292.658V14.3651Z" fill="#E0E0E0"/>
<path d="M297.797 14.3651H233.29V59.1734H297.797V14.3651Z" fill="#F5F5F5"/>
<path d="M293.684 55.0606V18.4779L237.403 18.4779V55.0606H293.684Z" fill="white"/>
<path d="M283.78 44.4013V29.1288L247.307 29.1288V44.4013H283.78Z" fill="#F5F5F5"/>
<path d="M343.725 36.7693H305.412V76.9476H343.725V36.7693Z" fill="#E0E0E0"/>
<path d="M348.881 36.7693H308.999V76.9476H348.881V36.7693Z" fill="#F5F5F5"/>
<path d="M344.768 72.8347V40.8821H313.112V72.8347H344.768Z" fill="white"/>
<path d="M323.017 56.8584C323.017 55.4475 323.577 54.0942 324.574 53.0957C325.57 52.0973 326.923 51.5352 328.334 51.5329H329.538C330.949 51.5352 332.301 52.0973 333.298 53.0957C334.295 54.0942 334.855 55.4475 334.855 56.8584C334.855 58.2685 334.295 59.6209 333.298 60.618C332.3 61.6152 330.948 62.1754 329.538 62.1754H328.376C327.674 62.181 326.978 62.0476 326.328 61.7829C325.678 61.5182 325.087 61.1274 324.589 60.6331C324.091 60.1388 323.695 59.5508 323.426 58.9029C323.156 58.2551 323.017 57.5602 323.017 56.8584Z" fill="#F5F5F5"/>
<path d="M403 90.6088H301.834H283.44V113.988H265.047V137.368H246.654V160.747H228.261V184.126H209.868V207.497H191.475V230.876H173.082V254.256H154.689V277.635H173.082H403V90.6088Z" fill="#FAFAFA"/>
<path d="M257.636 254.256H152.798V261.269H257.636V254.256Z" fill="#EBEBEB"/>
<path d="M276.029 230.876H171.191V237.889H276.029V230.876Z" fill="#EBEBEB"/>
<path d="M294.422 207.497H189.584V214.51H294.422V207.497Z" fill="#EBEBEB"/>
<path d="M312.815 184.118H207.977V191.131H312.815V184.118Z" fill="#EBEBEB"/>
<path d="M331.208 160.747H226.37V167.76H331.208V160.747Z" fill="#EBEBEB"/>
<path d="M349.601 137.368H244.763V144.38H349.601V137.368Z" fill="#EBEBEB"/>
<path d="M367.995 113.988H263.156V121.001H367.995V113.988Z" fill="#EBEBEB"/>
<path d="M386.388 90.6088H281.549V97.6217H386.388V90.6088Z" fill="#EBEBEB"/>
<path d="M384.607 90.6088V113.988H366.214V137.368H347.821V160.747H329.427V184.126H311.034V207.497H292.641V230.876H274.248V254.256H255.855V277.635H274.248H403V113.988V90.6088H384.607Z" fill="white"/>
<path d="M191 315.931C281.806 315.931 355.419 311.633 355.419 306.332C355.419 301.03 281.806 296.732 191 296.732C100.194 296.732 26.5813 301.03 26.5813 306.332C26.5813 311.633 100.194 315.931 191 315.931Z" fill="#F5F5F5"/>
<path d="M288.647 90.736C289.834 94.7131 295.957 102.159 296.44 107.577C296.924 112.996 286.485 121.663 286.485 121.663C286.485 121.663 278.683 95.5781 283.568 92.5338C288.452 89.4895 288.647 90.736 288.647 90.736Z" fill="#263238"/>
<path d="M267.21 118.915C265.361 120.458 263.546 121.756 261.655 123.087C259.764 124.419 257.814 125.631 255.83 126.768C253.838 127.946 251.786 129.019 249.682 129.981C248.613 130.465 247.553 130.94 246.451 131.355C245.908 131.576 245.357 131.788 244.797 131.974L243.101 132.568C241.651 132.973 240.134 133.083 238.641 132.89C237.392 132.744 236.157 132.506 234.943 132.178C232.682 131.552 230.469 130.764 228.321 129.82C224.15 128 220.127 125.859 216.287 123.418L217.873 120.467C219.874 121.315 221.927 122.163 223.962 122.901C225.997 123.638 228.049 124.419 230.101 125.055C232.102 125.71 234.141 126.243 236.207 126.649C237.155 126.834 238.116 126.95 239.082 126.996C239.801 127.052 240.525 126.978 241.219 126.776C243.153 126.036 245.045 125.186 246.883 124.232C247.824 123.74 248.757 123.24 249.673 122.697C250.589 122.154 251.522 121.629 252.429 121.069C254.252 119.941 256.033 118.745 257.797 117.516C259.561 116.286 261.316 114.972 262.885 113.725L267.21 118.915Z" fill="#E58A7B"/>
<path d="M271.687 109.884C269.584 108.239 260.884 113.624 258.246 115.871L260.171 127.514C260.171 127.514 272.679 122.273 273.426 118.695C274.214 114.955 273.256 111.139 271.687 109.884Z" fill="#2EA3F8"/>
<path opacity="0.2" d="M271.687 109.884C269.584 108.239 260.884 113.624 258.246 115.871L260.171 127.514C260.171 127.514 272.679 122.273 273.426 118.695C274.214 114.955 273.256 111.139 271.687 109.884Z" fill="black"/>
<path d="M300.952 145.118L274.545 150.266C260.901 113.318 263.869 112.106 263.869 112.106C265.788 111.051 267.77 110.117 269.805 109.307L270.161 109.172C271.857 108.553 272.196 108.459 274.452 107.798C278.336 106.873 281.957 106.102 286.442 105.466L287.29 105.347C288.138 105.245 288.91 105.161 289.69 105.084C290.216 105.025 290.742 104.991 291.242 104.957L292.938 104.864C295.838 104.72 297.916 104.762 297.916 104.762C297.11 127.836 298.416 134.459 300.952 145.118Z" fill="#2EA3F8"/>
<path opacity="0.2" d="M300.952 145.118L274.545 150.266C260.901 113.318 263.869 112.106 263.869 112.106C265.788 111.051 267.77 110.117 269.805 109.307L270.161 109.172C271.857 108.553 272.196 108.459 274.452 107.798C278.336 106.873 281.957 106.102 286.442 105.466L287.29 105.347C288.138 105.245 288.91 105.161 289.69 105.084C290.216 105.025 290.742 104.991 291.242 104.957L292.938 104.864C295.838 104.72 297.916 104.762 297.916 104.762C297.11 127.836 298.416 134.459 300.952 145.118Z" fill="black"/>
<path d="M280.269 93.3903C278.573 96.1971 284.721 97.4946 288.359 94.6199C291.268 92.3133 290.581 86.9879 288.088 85.7498C285.594 84.5117 280.269 93.3903 280.269 93.3903Z" fill="#2EA3F8"/>
<path opacity="0.4" d="M280.269 93.3903C278.573 96.1971 284.721 97.4946 288.359 94.6199C291.268 92.3133 290.581 86.9879 288.088 85.7498C285.594 84.5117 280.269 93.3903 280.269 93.3903Z" fill="black"/>
<path d="M305.972 298.047L299.366 298.538L296.949 283.334L303.555 282.842L305.972 298.047Z" fill="#E58A7B"/>
<path d="M352.697 276.796L347.091 280.323L337.11 268.485L342.716 264.949L352.697 276.796Z" fill="#E58A7B"/>
<path d="M296.949 283.334L298.289 291.78L304.802 290.686L303.564 282.85L296.949 283.334Z" fill="#CF6F64"/>
<path d="M342.724 264.958L337.11 268.485L341.249 273.387L346.981 270.003L342.724 264.958Z" fill="#CF6F64"/>
<path d="M274.952 150.266C274.952 150.266 274.859 202.689 279.141 222.43C283.602 242.969 296.72 289.694 296.72 289.694L306.235 288.464C306.235 288.464 298.798 241.265 295.626 220.853C292.175 198.61 294.295 146.501 294.295 146.501L274.952 150.266Z" fill="#2EA3F8"/>
<path opacity="0.7" d="M274.952 150.266C274.952 150.266 274.859 202.689 279.141 222.43C283.602 242.969 296.72 289.694 296.72 289.694L306.235 288.464C306.235 288.464 298.798 241.265 295.626 220.853C292.175 198.61 294.295 146.501 294.295 146.501L274.952 150.266Z" fill="black"/>
<path opacity="0.5" d="M293.701 169.736L289.037 165.089C289.215 185.229 290.343 195.176 294.219 206.013C293.608 194.557 293.557 181.006 293.701 169.736Z" fill="black"/>
<path d="M281.516 148.909C281.516 148.909 295.736 192.233 302.792 217.19C310.237 243.52 338.781 272.641 338.781 272.641L346.973 267.909C346.973 267.909 327.469 240.264 320.295 215.697C305.709 165.826 311.704 155.26 300.943 145.118L281.516 148.909Z" fill="#2EA3F8"/>
<path opacity="0.7" d="M281.516 148.909C281.516 148.909 295.736 192.233 302.792 217.19C310.237 243.52 338.781 272.641 338.781 272.641L346.973 267.909C346.973 267.909 327.469 240.264 320.295 215.697C305.709 165.826 311.704 155.26 300.943 145.118L281.516 148.909Z" fill="black"/>
<path d="M270.339 78.0923C274.121 79.3558 277.555 88.7432 277.7 92.4405C277.844 96.1378 266.743 101.234 266.743 101.234C266.743 101.234 261.85 89.3622 263.216 81.7302C263.809 78.4146 270.339 78.0923 270.339 78.0923Z" fill="#263238"/>
<path d="M218.433 120.781L213.947 115.896L212.48 122.019C212.48 122.019 215.668 124.834 218.246 123.867L218.433 120.781Z" fill="#E58A7B"/>
<path d="M209.402 114.497L206.264 116.99L212.48 122.019L213.947 115.896L209.402 114.497Z" fill="#E58A7B"/>
<path d="M345.336 279.06L350.577 273.777C350.667 273.686 350.787 273.632 350.915 273.622C351.043 273.613 351.169 273.65 351.272 273.726L356.046 277.271C356.164 277.363 356.262 277.48 356.331 277.613C356.401 277.746 356.441 277.893 356.45 278.042C356.459 278.192 356.436 278.342 356.382 278.483C356.329 278.623 356.246 278.75 356.14 278.856C354.274 280.663 353.29 281.443 350.984 283.766C349.568 285.199 347.643 287.43 345.684 289.405C343.725 291.381 341.664 289.541 342.292 288.557C345.149 284.089 344.641 282.418 344.836 280.145C344.865 279.735 345.043 279.349 345.336 279.06Z" fill="#263238"/>
<path d="M298.925 297.589H306.37C306.501 297.588 306.628 297.634 306.729 297.718C306.83 297.802 306.898 297.918 306.922 298.047L308.092 303.932C308.118 304.077 308.112 304.225 308.074 304.367C308.036 304.51 307.968 304.642 307.873 304.754C307.778 304.867 307.66 304.957 307.526 305.019C307.392 305.08 307.247 305.112 307.1 305.11C304.496 305.068 303.241 304.915 299.968 304.915C297.958 304.915 293.803 305.119 291.022 305.119C288.24 305.119 287.943 302.371 289.088 302.125C294.176 301.006 296.169 299.471 297.84 297.996C298.142 297.737 298.527 297.593 298.925 297.589Z" fill="#263238"/>
<g style="mix-blend-mode:multiply" opacity="0.27">
<path d="M298.772 118.135L294.702 120.56L299.4 138.224C298.374 132.873 298.832 126.997 298.772 118.135Z" fill="#2EA3F8"/>
</g>
<path d="M275.639 90.5579C278.531 92.9747 282.728 96.4939 287.672 92.3811C291.912 88.8365 294.88 79.5339 287.273 79.1947C283.296 79.0166 275.639 90.5579 275.639 90.5579Z" fill="#263238"/>
<path d="M282.626 92.2115C282.626 96.2141 283.245 103.431 286.442 105.483C286.442 105.483 286.154 109.604 278.98 110.995C271.102 112.53 274.452 107.815 274.452 107.815C278.556 105.949 277.844 102.778 276.487 99.9283L282.626 92.2115Z" fill="#E58A7B"/>
<path d="M280.125 95.3576L276.495 99.9283C276.813 100.589 277.074 101.275 277.276 101.98C278.87 101.421 280.778 99.1821 280.617 97.4267C280.582 96.7126 280.415 96.011 280.125 95.3576Z" fill="#CF6F64"/>
<path d="M283.008 83.0192C283.856 89.5403 284.373 92.2794 281.761 96.2226C277.835 102.159 269.644 101.777 266.854 95.6459C264.31 90.1255 263.36 80.3819 269.16 76.6083C270.436 75.764 271.906 75.2602 273.431 75.1446C274.956 75.0291 276.486 75.3058 277.874 75.9484C279.262 76.591 280.462 77.5781 281.361 78.8158C282.26 80.0534 282.827 81.5005 283.008 83.0192Z" fill="#E58A7B"/>
<path d="M271.679 71.5966C267.269 74.7258 276.114 75.6501 276.122 80.1869C276.122 82.061 279.2 88.0055 283.576 87.6663L287.816 80.136C292.277 72.928 281.736 64.448 271.679 71.5966Z" fill="#263238"/>
<path d="M271.679 71.5966C263.92 71.1896 260.536 77.3631 261.426 82.909C266.839 81.5594 272.438 81.1152 277.996 81.5946C288.63 82.68 271.679 71.5966 271.679 71.5966Z" fill="#263238"/>
<path d="M285.128 88.6415C285.236 89.9073 284.836 91.164 284.017 92.1352C282.923 93.4157 281.473 92.661 280.964 91.1431C280.532 89.7693 280.583 87.4543 282.058 86.725C282.384 86.5742 282.743 86.507 283.101 86.5294C283.459 86.5518 283.807 86.6631 284.111 86.8533C284.416 87.0435 284.668 87.3065 284.846 87.6187C285.023 87.9309 285.12 88.2824 285.128 88.6415Z" fill="#E58A7B"/>
<path d="M273.587 86.725C273.688 87.2507 273.493 87.7256 273.154 87.7934C272.815 87.8613 272.45 87.4882 272.349 86.9454C272.247 86.4027 272.442 85.9363 272.781 85.8685C273.12 85.8006 273.485 86.1992 273.587 86.725Z" fill="#263238"/>
<path d="M267.659 87.8783C267.761 88.404 267.566 88.8874 267.227 88.9552C266.888 89.023 266.523 88.6499 266.421 88.1072C266.319 87.5645 266.514 87.0981 266.854 87.0387C267.193 86.9794 267.557 87.344 267.659 87.8783Z" fill="#263238"/>
<path d="M267.015 87.0472L265.683 86.937C265.683 86.937 266.523 87.7935 267.015 87.0472Z" fill="#263238"/>
<path d="M269.406 88.4803C269.168 89.765 268.757 91.0115 268.185 92.1861C268.489 92.3278 268.82 92.4013 269.156 92.4013C269.491 92.4013 269.823 92.3278 270.127 92.1861L269.406 88.4803Z" fill="#DF5753"/>
<path d="M272.34 93.8821C272.304 93.8826 272.268 93.8701 272.24 93.8467C272.212 93.8234 272.194 93.7908 272.188 93.7549C272.184 93.7348 272.184 93.7142 272.189 93.6943C272.193 93.6744 272.202 93.6556 272.214 93.639C272.225 93.6224 272.24 93.6083 272.258 93.5977C272.275 93.587 272.295 93.5799 272.315 93.5768C272.97 93.4628 273.59 93.1961 274.123 92.7983C274.656 92.4006 275.088 91.8829 275.385 91.2872C275.392 91.2683 275.404 91.2511 275.418 91.2366C275.433 91.2221 275.45 91.2105 275.469 91.2027C275.488 91.1948 275.508 91.1907 275.528 91.1907C275.549 91.1906 275.569 91.1946 275.588 91.2024C275.607 91.2102 275.624 91.2217 275.639 91.2361C275.653 91.2506 275.665 91.2677 275.673 91.2866C275.68 91.3055 275.685 91.3258 275.685 91.3463C275.685 91.3667 275.681 91.387 275.673 91.4059C275.362 92.0533 274.9 92.6163 274.326 93.0474C273.752 93.4784 273.082 93.7647 272.374 93.8821H272.34Z" fill="#263238"/>
<path d="M274.952 84.4693C274.874 84.4702 274.799 84.4431 274.74 84.393C274.455 84.1218 274.109 83.9221 273.732 83.81C273.355 83.698 272.956 83.6769 272.569 83.7485C272.484 83.7699 272.393 83.7564 272.318 83.7111C272.242 83.6658 272.188 83.5923 272.166 83.5068C272.145 83.4214 272.158 83.3309 272.204 83.2554C272.249 83.1798 272.323 83.1254 272.408 83.104C272.897 83.0078 273.402 83.0291 273.881 83.1662C274.36 83.3033 274.8 83.5523 275.164 83.8926C275.222 83.9514 275.255 84.0306 275.255 84.1131C275.255 84.1957 275.222 84.2749 275.164 84.3336C275.14 84.37 275.109 84.4009 275.073 84.4243C275.036 84.4477 274.995 84.463 274.952 84.4693Z" fill="#263238"/>
<path d="M264.377 85.648C264.338 85.6568 264.298 85.6568 264.259 85.648C264.22 85.6323 264.185 85.6089 264.155 85.5794C264.126 85.5498 264.102 85.5147 264.086 85.476C264.071 85.4373 264.063 85.3958 264.063 85.354C264.064 85.3122 264.072 85.2709 264.089 85.2325C264.27 84.7687 264.558 84.355 264.932 84.0259C265.305 83.6969 265.752 83.4622 266.235 83.3415C266.275 83.3329 266.317 83.3328 266.358 83.3411C266.399 83.3495 266.438 83.3661 266.472 83.3899C266.506 83.4137 266.535 83.4443 266.557 83.4797C266.579 83.5151 266.593 83.5547 266.599 83.5959C266.608 83.636 266.608 83.6775 266.6 83.7178C266.593 83.7581 266.577 83.7964 266.554 83.8305C266.531 83.8645 266.501 83.8936 266.467 83.9159C266.432 83.9383 266.394 83.9534 266.353 83.9605C265.972 84.0645 265.62 84.2557 265.326 84.5192C265.032 84.7827 264.803 85.1111 264.657 85.4784C264.63 85.5291 264.59 85.5716 264.541 85.6014C264.491 85.6312 264.435 85.6473 264.377 85.648Z" fill="#263238"/>
<path d="M343.369 282.138C343.223 282.134 343.081 282.095 342.954 282.024C342.827 281.954 342.719 281.853 342.639 281.731C342.579 281.659 342.539 281.573 342.522 281.481C342.506 281.388 342.514 281.293 342.546 281.205C342.843 280.408 345.183 279.899 345.446 279.84C345.477 279.835 345.508 279.838 345.537 279.85C345.565 279.862 345.59 279.882 345.607 279.908C345.625 279.933 345.635 279.962 345.635 279.993C345.635 280.023 345.625 280.053 345.607 280.077C345.149 280.832 344.251 282.096 343.411 282.138H343.369ZM345.141 280.23C344.217 280.468 342.995 280.892 342.843 281.316C342.828 281.354 342.825 281.397 342.834 281.438C342.843 281.478 342.864 281.516 342.894 281.545C342.946 281.632 343.021 281.704 343.11 281.753C343.2 281.802 343.301 281.827 343.403 281.824C343.852 281.799 344.488 281.214 345.141 280.23Z" fill="#2EA3F8"/>
<path d="M344.759 280.23C343.911 280.23 342.851 280.018 342.538 279.56C342.468 279.456 342.436 279.331 342.447 279.206C342.457 279.081 342.51 278.964 342.597 278.873C342.671 278.779 342.765 278.701 342.872 278.646C342.979 278.59 343.096 278.558 343.216 278.551H343.284C344.234 278.551 345.54 279.832 345.59 279.882C345.611 279.902 345.626 279.926 345.633 279.953C345.64 279.98 345.64 280.008 345.633 280.035C345.625 280.061 345.611 280.085 345.592 280.104C345.573 280.124 345.549 280.138 345.523 280.145C345.273 280.205 345.016 280.234 344.759 280.23ZM343.284 278.865H343.233C343.157 278.867 343.082 278.887 343.015 278.922C342.947 278.957 342.889 279.007 342.843 279.068C342.724 279.229 342.758 279.323 342.801 279.382C343.055 279.772 344.352 279.993 345.149 279.899C344.641 279.381 343.993 279.022 343.284 278.865Z" fill="#2EA3F8"/>
<path d="M296.491 298.75C295.921 298.801 295.35 298.657 294.872 298.343C294.758 298.255 294.669 298.14 294.613 298.008C294.557 297.876 294.535 297.731 294.549 297.589C294.549 297.503 294.57 297.42 294.612 297.345C294.654 297.271 294.714 297.209 294.787 297.165C295.567 296.707 298.297 298.064 298.603 298.216C298.631 298.231 298.655 298.255 298.67 298.284C298.685 298.312 298.691 298.345 298.688 298.377C298.684 298.409 298.67 298.439 298.649 298.463C298.628 298.488 298.6 298.505 298.569 298.513C297.885 298.656 297.19 298.736 296.491 298.75ZM295.236 297.377C295.137 297.37 295.037 297.391 294.948 297.436C294.919 297.451 294.896 297.475 294.881 297.503C294.865 297.532 294.859 297.565 294.863 297.597C294.855 297.693 294.869 297.789 294.906 297.878C294.943 297.966 295.001 298.045 295.075 298.106C295.499 298.471 296.593 298.53 298.035 298.293C297.159 297.833 296.214 297.524 295.236 297.377Z" fill="#2EA3F8"/>
<path d="M298.535 298.496H298.475C297.627 298.131 295.991 296.69 296.11 295.952C296.11 295.782 296.262 295.562 296.686 295.52H296.813C298.289 295.52 298.671 298.216 298.687 298.335C298.691 298.363 298.688 298.392 298.677 298.419C298.667 298.446 298.65 298.469 298.628 298.488C298.598 298.499 298.566 298.502 298.535 298.496ZM296.839 295.816H296.746C296.474 295.816 296.457 295.944 296.457 295.977C296.389 296.427 297.509 297.555 298.357 298.055C298.187 297.394 297.755 295.833 296.805 295.833L296.839 295.816Z" fill="#2EA3F8"/>
<path d="M272.942 85.8939L271.611 85.7752C271.611 85.7752 272.45 86.6402 272.942 85.8939Z" fill="#263238"/>
<path d="M278.768 116.634C264.581 119.797 268.965 111.215 269.813 109.324L270.169 109.189C271.865 108.569 272.205 108.476 274.46 107.815C278.396 106.752 282.403 105.973 286.451 105.483L287.299 105.364C288.147 105.254 288.919 105.169 289.699 105.101C290.225 105.042 290.75 105.008 291.251 104.974L292.947 104.872C293.235 106.195 293.939 113.267 278.768 116.634Z" fill="#E58A7B"/>
<path d="M301.036 143.49L302.69 145.627C302.817 145.788 302.639 146.017 302.334 146.076L274.638 151.47C274.401 151.521 274.18 151.47 274.138 151.292L273.434 148.977C273.434 148.816 273.57 148.637 273.824 148.587L300.57 143.38C300.651 143.356 300.736 143.354 300.818 143.373C300.9 143.392 300.975 143.433 301.036 143.49Z" fill="#26395A"/>
<path d="M298.026 147.179L298.747 147.043C298.891 147.043 298.984 146.925 298.959 146.831L298.026 143.829C298.026 143.736 297.857 143.694 297.712 143.719L297 143.855C296.856 143.855 296.763 143.982 296.788 144.067L297.721 147.077C297.746 147.162 297.89 147.213 298.026 147.179Z" fill="#2EA3F8"/>
<path d="M281.804 157.185L276.283 155.133L277.131 160.382C277.131 160.382 281.134 161.824 283.178 159.975L281.804 157.185Z" fill="#E58A7B"/>
<path d="M271.026 156.524L269.711 159.967L277.131 160.382L276.283 155.133L271.026 156.524Z" fill="#E58A7B"/>
<path d="M276.699 151.334L277.42 151.198C277.555 151.198 277.657 151.08 277.623 150.986L276.69 147.985C276.69 147.891 276.529 147.849 276.385 147.874L275.664 148.01C275.52 148.01 275.427 148.137 275.461 148.222L276.394 151.232C276.419 151.317 276.555 151.368 276.699 151.334Z" fill="#2EA3F8"/>
<path d="M287.367 149.248L288.079 149.112C288.223 149.112 288.317 148.994 288.291 148.9L287.358 145.898C287.358 145.805 287.189 145.763 287.045 145.788L286.332 145.924C286.188 145.924 286.095 146.051 286.12 146.136L287.053 149.146C287.087 149.195 287.136 149.232 287.193 149.25C287.249 149.269 287.311 149.268 287.367 149.248Z" fill="#2EA3F8"/>
<path d="M284.348 102.116C284.95 101.887 285.705 104.007 285.518 104.279C285.086 104.898 277.165 107.06 276.809 105.847C276.787 105.19 276.888 104.534 277.106 103.914C277.335 103.507 279.09 104.253 284.348 102.116Z" fill="#2EA3F8"/>
<path d="M283.008 102.167C283.313 101.463 284.187 100.335 284.95 100.98C285.713 101.624 286.035 103.015 285.535 103.244C285.035 103.473 282.482 103.346 283.008 102.167Z" fill="#2EA3F8"/>
<path d="M284.628 102.532C285.153 101.972 286.324 101.2 286.858 102.065C287.392 102.93 287.197 104.346 286.654 104.389C286.112 104.431 283.737 103.456 284.628 102.532Z" fill="#2EA3F8"/>
<path d="M284.916 102.405C284.873 101.954 284.962 101.5 285.171 101.098C285.38 100.697 285.701 100.364 286.095 100.14C287.061 99.5128 288.003 99.1058 288.376 98.4444C288.537 99.0645 288.568 99.711 288.469 100.344C288.274 101.251 285.264 101.947 285.467 102.735L284.916 102.405Z" fill="#2EA3F8"/>
<path d="M284.789 102.362C284.508 102.006 284.336 101.577 284.294 101.125C284.252 100.674 284.341 100.22 284.551 99.8181C285.009 98.7666 285.586 97.9186 285.552 97.1723C286.023 97.6062 286.401 98.1313 286.663 98.7157C286.985 99.5637 284.84 101.794 285.442 102.354L284.789 102.362Z" fill="#2EA3F8"/>
<path d="M343.767 268.019C343.75 268.018 343.733 268.013 343.718 268.004C343.703 267.996 343.691 267.983 343.682 267.968C343.487 267.697 324.102 240.035 316.996 215.731C312.358 200.141 308.794 184.252 306.328 168.175C304.861 159.119 303.971 153.649 301.053 149.163C301.034 149.143 301.023 149.115 301.023 149.087C301.023 149.058 301.034 149.031 301.053 149.011C301.073 148.993 301.099 148.984 301.126 148.984C301.152 148.984 301.178 148.993 301.198 149.011C304.149 153.539 305.039 159.025 306.506 168.108C308.984 184.161 312.553 200.028 317.191 215.596C324.289 239.865 343.657 267.493 343.852 267.773C343.868 267.794 343.876 267.819 343.876 267.845C343.876 267.871 343.868 267.896 343.852 267.917C343.851 267.941 343.842 267.964 343.827 267.982C343.811 268.001 343.79 268.013 343.767 268.019Z" fill="#2EA3F8"/>
<path opacity="0.4" d="M343.767 268.019C343.75 268.018 343.733 268.013 343.718 268.004C343.703 267.996 343.691 267.983 343.682 267.968C343.487 267.697 324.102 240.035 316.996 215.731C312.358 200.141 308.794 184.252 306.328 168.175C304.861 159.119 303.971 153.649 301.053 149.163C301.034 149.143 301.023 149.115 301.023 149.087C301.023 149.058 301.034 149.031 301.053 149.011C301.073 148.993 301.099 148.984 301.126 148.984C301.152 148.984 301.178 148.993 301.198 149.011C304.149 153.539 305.039 159.025 306.506 168.108C308.984 184.161 312.553 200.028 317.191 215.596C324.289 239.865 343.657 267.493 343.852 267.773C343.868 267.794 343.876 267.819 343.876 267.845C343.876 267.871 343.868 267.896 343.852 267.917C343.851 267.941 343.842 267.964 343.827 267.982C343.811 268.001 343.79 268.013 343.767 268.019Z" fill="black"/>
<path d="M307.939 288.43L294.982 290.109L294.134 286.497L307.625 283.639L307.939 288.43Z" fill="#2EA3F8"/>
<path d="M347.66 267.62L338.103 273.141L334.88 270.385L345.336 263.313L347.66 267.62Z" fill="#2EA3F8"/>
<path d="M302.809 113.742C303.267 116.1 303.53 118.321 303.784 120.62C304.038 122.918 304.132 125.19 304.2 127.488C304.267 129.804 304.216 132.123 304.047 134.433C303.954 135.595 303.852 136.757 303.691 137.927C303.623 138.504 303.547 139.089 303.436 139.674L303.123 141.472C302.775 142.937 302.138 144.318 301.249 145.534C300.519 146.556 299.714 147.523 298.84 148.425C297.204 150.106 295.447 151.665 293.583 153.089C289.977 155.866 286.16 158.358 282.169 160.543L280.354 157.728C282.05 156.38 283.746 154.989 285.442 153.573C287.138 152.157 288.749 150.724 290.301 149.231C291.834 147.795 293.281 146.268 294.634 144.66C295.255 143.916 295.822 143.128 296.33 142.303C296.731 141.701 297.018 141.032 297.178 140.327C297.454 138.268 297.615 136.196 297.661 134.12C297.661 133.06 297.661 132 297.661 130.94C297.661 129.88 297.619 128.803 297.568 127.734C297.466 125.597 297.271 123.494 297.042 121.323C296.813 119.152 296.517 117.007 296.194 114.997L302.809 113.742Z" fill="#E58A7B"/>
<path d="M301.783 106.534C305.404 109.468 304.539 118.186 304.539 118.186L292.328 122.205C292.328 122.205 292.887 112.156 293.498 108.544C294.21 104.245 298.213 103.643 301.783 106.534Z" fill="#2EA3F8"/>
<path opacity="0.2" d="M301.783 106.534C305.404 109.468 304.539 118.186 304.539 118.186L292.328 122.205C292.328 122.205 292.887 112.156 293.498 108.544C294.21 104.245 298.213 103.643 301.783 106.534Z" fill="black"/>
<path d="M140.468 142.913C139.994 140.857 138.837 139.023 137.186 137.709C135.535 136.395 133.487 135.68 131.377 135.68H63.5372C61.0632 135.68 58.6906 136.663 56.9413 138.412C55.1919 140.161 54.2092 142.534 54.2092 145.008V295.799C54.2092 298.273 55.1919 300.646 56.9413 302.395C58.6906 304.145 61.0632 305.127 63.5372 305.127H278.929C281.403 305.127 283.776 304.145 285.525 302.395C287.274 300.646 288.257 298.273 288.257 295.799V169.134C288.257 166.66 287.274 164.287 285.525 162.538C283.776 160.788 281.403 159.806 278.929 159.806H161.693C156.766 159.806 151.984 158.136 148.129 155.068C144.274 152 141.573 147.715 140.468 142.913Z" fill="#0560FA"/>
<path opacity="0.6" d="M140.468 142.913C139.994 140.857 138.837 139.023 137.186 137.709C135.535 136.395 133.487 135.68 131.377 135.68H63.5372C61.0632 135.68 58.6906 136.663 56.9413 138.412C55.1919 140.161 54.2092 142.534 54.2092 145.008V295.799C54.2092 298.273 55.1919 300.646 56.9413 302.395C58.6906 304.145 61.0632 305.127 63.5372 305.127H278.929C281.403 305.127 283.776 304.145 285.525 302.395C287.274 300.646 288.257 298.273 288.257 295.799V169.134C288.257 166.66 287.274 164.287 285.525 162.538C283.776 160.788 281.403 159.806 278.929 159.806H161.693C156.766 159.806 151.984 158.136 148.129 155.068C144.274 152 141.573 147.715 140.468 142.913Z" fill="black"/>
<path opacity="0.22" d="M116.52 95.9512L122.566 115.532C123.338 118.024 125.068 120.107 127.375 121.325C129.682 122.543 132.378 122.796 134.871 122.027L154.443 115.981L116.52 95.9512Z" fill="#0560FA"/>
<path d="M116.52 95.9512L46.5602 117.567C45.3252 117.946 44.1771 118.565 43.1816 119.389C42.1861 120.212 41.3628 121.224 40.7587 122.366C40.1546 123.508 39.7816 124.758 39.661 126.044C39.5404 127.331 39.6747 128.628 40.056 129.863L79.9968 259.166C80.378 260.4 80.9987 261.548 81.8235 262.542C82.6482 263.537 83.6608 264.359 84.8034 264.963C85.9461 265.566 87.1963 265.938 88.4829 266.058C89.7694 266.178 91.0669 266.043 92.3013 265.661L181.842 238C183.076 237.619 184.223 237 185.218 236.176C186.212 235.352 187.035 234.34 187.638 233.198C188.241 232.056 188.613 230.806 188.733 229.52C188.853 228.235 188.719 226.938 188.337 225.704L154.417 115.981L116.52 95.9512Z" fill="#0560FA"/>
<path opacity="0.8" d="M116.52 95.9512L46.5602 117.567C45.3252 117.946 44.1771 118.565 43.1816 119.389C42.1861 120.212 41.3628 121.224 40.7587 122.366C40.1546 123.508 39.7816 124.758 39.661 126.044C39.5404 127.331 39.6747 128.628 40.056 129.863L79.9968 259.166C80.378 260.4 80.9987 261.548 81.8235 262.542C82.6482 263.537 83.6608 264.359 84.8034 264.963C85.9461 265.566 87.1963 265.938 88.4829 266.058C89.7694 266.178 91.0669 266.043 92.3013 265.661L181.842 238C183.076 237.619 184.223 237 185.218 236.176C186.212 235.352 187.035 234.34 187.638 233.198C188.241 232.056 188.613 230.806 188.733 229.52C188.853 228.235 188.719 226.938 188.337 225.704L154.417 115.981L116.52 95.9512Z" fill="white"/>
<g opacity="0.28">
<path opacity="0.28" d="M154.163 232.352L95.9562 250.33C94.8677 250.664 93.691 250.554 92.6836 250.023C91.6761 249.492 90.9198 248.584 90.5799 247.497C90.2485 246.409 90.3612 245.233 90.8935 244.228C91.4257 243.222 92.3342 242.468 93.4207 242.129L151.627 224.143C152.717 223.809 153.895 223.921 154.902 224.453C155.91 224.986 156.666 225.896 157.004 226.984C157.335 228.073 157.222 229.248 156.69 230.254C156.158 231.26 155.249 232.014 154.163 232.352Z" fill="#0560FA"/>
</g>
<g opacity="0.28">
<path opacity="0.28" d="M91.5212 126.844L60.7388 136.35C59.6502 136.682 58.4746 136.571 57.4677 136.04C56.4609 135.51 55.7042 134.603 55.3625 133.518C55.0308 132.428 55.1433 131.251 55.6754 130.244C56.2075 129.237 57.1162 128.481 58.2032 128.141L88.9856 118.635C90.0742 118.298 91.2518 118.408 92.2599 118.939C93.268 119.47 94.024 120.379 94.362 121.467C94.6936 122.557 94.5811 123.734 94.049 124.741C93.5169 125.748 92.6083 126.504 91.5212 126.844Z" fill="#0560FA"/>
</g>
<g opacity="0.28">
<path opacity="0.28" d="M116.639 136.927L65.7589 152.64C64.6726 152.966 63.5015 152.851 62.4997 152.319C61.4979 151.787 60.7463 150.882 60.408 149.799C60.0739 148.712 60.1844 147.536 60.7153 146.53C61.2461 145.524 62.1541 144.769 63.2403 144.431L114.12 128.718C115.209 128.384 116.385 128.494 117.393 129.025C118.4 129.555 119.157 130.463 119.497 131.55C119.825 132.642 119.709 133.82 119.174 134.826C118.639 135.833 117.728 136.588 116.639 136.927Z" fill="#0560FA"/>
</g>
<g opacity="0.28">
<path opacity="0.28" d="M145.047 145.992L70.796 168.888C69.7086 169.222 68.5331 169.111 67.527 168.58C66.5209 168.05 65.7662 167.142 65.4282 166.055C65.0962 164.967 65.2075 163.791 65.7379 162.784C66.2684 161.777 67.175 161.021 68.2605 160.679L142.511 137.783C143.599 137.451 144.773 137.563 145.779 138.093C146.784 138.624 147.539 139.53 147.879 140.615C148.214 141.704 148.103 142.881 147.573 143.888C147.042 144.895 146.134 145.652 145.047 145.992Z" fill="#0560FA"/>
</g>
<g opacity="0.28">
<path opacity="0.28" d="M150.076 162.273L106.912 175.612C105.824 175.944 104.648 175.831 103.643 175.299C102.637 174.766 101.883 173.858 101.545 172.772C101.213 171.684 101.324 170.51 101.855 169.504C102.385 168.499 103.292 167.744 104.377 167.404L147.54 154.065C148.63 153.735 149.805 153.849 150.812 154.381C151.818 154.912 152.574 155.82 152.916 156.905C153.248 157.994 153.135 159.169 152.603 160.175C152.071 161.181 151.162 161.935 150.076 162.273Z" fill="#0560FA"/>
</g>
<g opacity="0.28">
<path opacity="0.28" d="M87.12 181.726L75.8331 185.212C74.7446 185.546 73.5679 185.436 72.5605 184.905C71.553 184.374 70.7967 183.466 70.4568 182.379C70.1228 181.29 70.2343 180.112 70.7667 179.104C71.2991 178.097 72.2092 177.341 73.2976 177.003L84.5845 173.518C85.673 173.186 86.8486 173.297 87.8555 173.827C88.8624 174.358 89.619 175.265 89.9608 176.35C90.2901 177.44 90.1766 178.615 89.6448 179.622C89.113 180.628 88.2058 181.384 87.12 181.726Z" fill="#0560FA"/>
</g>
<g opacity="0.28">
<path opacity="0.28" d="M155.113 178.563L80.8618 201.502C79.7733 201.833 78.5978 201.72 77.5921 201.188C76.5864 200.656 75.8321 199.747 75.494 198.661C75.1599 197.574 75.2704 196.398 75.8012 195.392C76.3321 194.386 77.2401 193.631 78.3263 193.293L152.577 170.355C153.665 170.023 154.839 170.135 155.845 170.665C156.85 171.196 157.605 172.102 157.945 173.187C158.279 174.276 158.169 175.452 157.638 176.46C157.108 177.467 156.2 178.224 155.113 178.563Z" fill="#0560FA"/>
</g>
<g opacity="0.28">
<path opacity="0.28" d="M131.487 203.698L85.8904 217.783C84.803 218.115 83.6285 218.004 82.623 217.473C81.6175 216.942 80.8625 216.036 80.5226 214.951C80.1906 213.862 80.3019 212.687 80.8323 211.68C81.3628 210.673 82.2694 209.916 83.3549 209.575L128.952 195.489C130.042 195.158 131.218 195.27 132.225 195.802C133.232 196.335 133.988 197.243 134.328 198.33C134.662 199.419 134.55 200.595 134.018 201.602C133.485 202.608 132.575 203.362 131.487 203.698Z" fill="#0560FA"/>
</g>
<g opacity="0.28">
<path opacity="0.28" d="M160.141 194.853L147.973 198.61C146.883 198.942 145.706 198.829 144.699 198.297C143.692 197.765 142.936 196.856 142.596 195.769C142.265 194.681 142.378 193.505 142.91 192.5C143.442 191.494 144.351 190.74 145.437 190.401L157.606 186.645C158.693 186.311 159.869 186.421 160.875 186.952C161.881 187.483 162.636 188.391 162.974 189.477C163.308 190.566 163.198 191.742 162.667 192.75C162.136 193.757 161.228 194.514 160.141 194.853Z" fill="#0560FA"/>
</g>
<g opacity="0.28">
<path opacity="0.28" d="M165.17 211.152L90.936 234.048C89.8464 234.382 88.6688 234.271 87.6611 233.738C86.6534 233.206 85.8978 232.296 85.5597 231.207C85.226 230.119 85.3376 228.942 85.8702 227.936C86.4028 226.93 87.3127 226.176 88.4005 225.839L162.643 202.901C163.733 202.572 164.908 202.685 165.915 203.217C166.921 203.749 167.677 204.656 168.019 205.742C168.19 206.284 168.251 206.855 168.2 207.421C168.149 207.987 167.986 208.537 167.721 209.04C167.456 209.543 167.094 209.989 166.657 210.351C166.219 210.713 165.713 210.986 165.17 211.152Z" fill="#0560FA"/>
</g>
<path d="M166.764 47.3269L188.965 96.7992C189.541 98.0906 189.583 99.5577 189.081 100.88C188.579 102.202 187.574 103.271 186.285 103.855L92.1063 146.127C90.8152 146.706 89.3472 146.749 88.0245 146.246C86.7018 145.744 85.6324 144.738 85.0509 143.448L62.8418 93.9754C62.2605 92.6833 62.2162 91.2132 62.7188 89.8885C63.2213 88.5638 64.2295 87.4929 65.5215 86.9115L159.7 44.6387C160.994 44.0626 162.463 44.0219 163.787 44.5256C165.11 45.0293 166.181 46.0364 166.764 47.3269Z" fill="#0560FA"/>
<path opacity="0.3" d="M166.764 47.3269L188.965 96.7992C189.541 98.0906 189.583 99.5577 189.081 100.88C188.579 102.202 187.574 103.271 186.285 103.855L92.1063 146.127C90.8152 146.706 89.3472 146.749 88.0245 146.246C86.7018 145.744 85.6324 144.738 85.0509 143.448L62.8418 93.9754C62.2605 92.6833 62.2162 91.2132 62.7188 89.8885C63.2213 88.5638 64.2295 87.4929 65.5215 86.9115L159.7 44.6387C160.994 44.0626 162.463 44.0219 163.787 44.5256C165.11 45.0293 166.181 46.0364 166.764 47.3269Z" fill="black"/>
<path d="M151.921 44.8823L148.912 46.2324L149.259 47.0061L152.268 45.656L151.921 44.8823Z" fill="#0560FA"/>
<path d="M144.696 48.1192L135.311 52.3292L135.658 53.1029L145.043 48.8929L144.696 48.1192Z" fill="#0560FA"/>
<path d="M62.7582 98.9612L61.9846 99.3086L64.5549 105.033L65.3285 104.686L62.7582 98.9612Z" fill="#0560FA"/>
<path opacity="0.6" d="M163.61 44.4606L139.323 92.0334C137.069 96.4428 133.379 99.9512 128.861 101.979C124.343 104.006 119.269 104.432 114.477 103.185L62.7909 89.7099C63.3211 88.4698 64.2948 87.472 65.5215 86.9115L159.7 44.6387C160.934 44.087 162.331 44.0234 163.61 44.4606Z" fill="#0560FA"/>
<path d="M196.995 105.347L123.915 109.858C122.624 109.935 121.36 110.266 120.197 110.831C119.034 111.397 117.994 112.186 117.136 113.154C116.278 114.122 115.62 115.25 115.198 116.473C114.777 117.695 114.601 118.989 114.68 120.28L123.016 255.35C123.094 256.642 123.426 257.905 123.993 259.069C124.56 260.232 125.351 261.272 126.32 262.129C127.29 262.986 128.42 263.644 129.644 264.064C130.868 264.483 132.163 264.658 133.455 264.576L226.989 258.801C228.279 258.723 229.54 258.392 230.702 257.826C231.863 257.259 232.901 256.47 233.757 255.501C234.612 254.533 235.268 253.406 235.687 252.184C236.106 250.961 236.28 249.669 236.198 248.379L229.16 133.755L196.995 105.347Z" fill="#0560FA"/>
<path opacity="0.8" d="M196.995 105.347L123.915 109.858C122.624 109.935 121.36 110.266 120.197 110.831C119.034 111.397 117.994 112.186 117.136 113.154C116.278 114.122 115.62 115.25 115.198 116.473C114.777 117.695 114.601 118.989 114.68 120.28L123.016 255.35C123.094 256.642 123.426 257.905 123.993 259.069C124.56 260.232 125.351 261.272 126.32 262.129C127.29 262.986 128.42 263.644 129.644 264.064C130.868 264.483 132.163 264.658 133.455 264.576L226.989 258.801C228.279 258.723 229.54 258.392 230.702 257.826C231.863 257.259 232.901 256.47 233.757 255.501C234.612 254.533 235.268 253.406 235.687 252.184C236.106 250.961 236.28 249.669 236.198 248.379L229.16 133.755L196.995 105.347Z" fill="white"/>
<g opacity="0.22">
<path opacity="0.22" d="M201.413 246.768L140.603 250.525C139.467 250.59 138.352 250.203 137.5 249.448C136.649 248.693 136.13 247.632 136.058 246.497C135.993 245.361 136.379 244.246 137.131 243.393C137.884 242.54 138.943 242.019 140.078 241.943L200.888 238.195C202.024 238.127 203.14 238.512 203.994 239.265C204.847 240.018 205.367 241.079 205.441 242.214C205.509 243.352 205.123 244.469 204.368 245.323C203.613 246.176 202.551 246.696 201.413 246.768Z" fill="#0560FA"/>
</g>
<g opacity="0.22">
<path opacity="0.22" d="M165.424 129.473L133.26 131.44C132.124 131.505 131.009 131.119 130.156 130.367C129.303 129.614 128.782 128.555 128.706 127.42C128.641 126.284 129.028 125.167 129.782 124.314C130.537 123.461 131.598 122.941 132.734 122.867L164.899 120.882C166.034 120.815 167.149 121.2 168.001 121.954C168.853 122.707 169.372 123.767 169.444 124.902C169.516 126.041 169.133 127.162 168.38 128.019C167.626 128.876 166.563 129.399 165.424 129.473Z" fill="#0560FA"/>
</g>
<g opacity="0.22">
<path opacity="0.22" d="M187.455 145.195L134.311 148.468C133.175 148.537 132.057 148.153 131.203 147.4C130.349 146.646 129.829 145.585 129.757 144.448C129.69 143.311 130.076 142.193 130.831 141.34C131.586 140.486 132.648 139.967 133.785 139.895L186.921 136.621C188.058 136.552 189.176 136.936 190.029 137.689C190.883 138.443 191.403 139.504 191.475 140.641C191.542 141.777 191.157 142.893 190.404 143.747C189.651 144.6 188.591 145.12 187.455 145.195Z" fill="#0560FA"/>
</g>
<g opacity="0.22">
<path opacity="0.22" d="M212.921 160.704L135.363 165.487C134.223 165.557 133.102 165.172 132.245 164.417C131.389 163.662 130.866 162.599 130.792 161.459C130.725 160.324 131.11 159.208 131.863 158.357C132.617 157.505 133.677 156.986 134.812 156.914L212.378 152.123C213.514 152.058 214.63 152.445 215.481 153.199C216.333 153.954 216.851 155.015 216.923 156.151C216.991 157.284 216.608 158.398 215.859 159.251C215.109 160.104 214.053 160.626 212.921 160.704Z" fill="#0560FA"/>
</g>
<g opacity="0.22">
<path opacity="0.22" d="M213.972 177.715L168.884 180.497C167.748 180.564 166.632 180.179 165.778 179.426C164.925 178.673 164.405 177.613 164.33 176.477C164.261 175.341 164.645 174.223 165.398 173.369C166.152 172.515 167.214 171.995 168.35 171.924L213.438 169.142C214.575 169.072 215.693 169.457 216.546 170.21C217.4 170.964 217.92 172.025 217.992 173.162C218.059 174.298 217.674 175.414 216.921 176.267C216.168 177.121 215.108 177.641 213.972 177.715Z" fill="#0560FA"/>
</g>
<g opacity="0.22">
<path opacity="0.22" d="M148.201 181.769L136.406 182.498C135.271 182.565 134.155 182.18 133.303 181.427C132.451 180.674 131.933 179.613 131.861 178.479C131.793 177.342 132.178 176.226 132.931 175.373C133.684 174.52 134.744 173.999 135.88 173.925L147.676 173.196C148.813 173.13 149.929 173.517 150.782 174.272C151.635 175.026 152.155 176.087 152.229 177.224C152.294 178.36 151.907 179.475 151.153 180.327C150.398 181.178 149.337 181.697 148.201 181.769Z" fill="#0560FA"/>
</g>
<g opacity="0.22">
<path opacity="0.22" d="M215.024 194.726L137.457 199.509C136.321 199.576 135.205 199.191 134.351 198.438C133.498 197.685 132.978 196.625 132.904 195.489C132.839 194.353 133.225 193.236 133.98 192.383C134.734 191.53 135.795 191.01 136.932 190.936L214.49 186.153C215.627 186.086 216.745 186.472 217.598 187.227C218.452 187.982 218.971 189.044 219.043 190.181C219.111 191.316 218.726 192.432 217.972 193.284C217.219 194.135 216.159 194.654 215.024 194.726Z" fill="#0560FA"/>
</g>
<g opacity="0.22">
<path opacity="0.22" d="M186.141 213.586L138.509 216.528C137.372 216.593 136.255 216.207 135.402 215.452C134.549 214.698 134.029 213.637 133.955 212.5C133.89 211.364 134.277 210.249 135.032 209.397C135.787 208.546 136.847 208.027 137.983 207.955L185.615 205.012C186.751 204.947 187.867 205.335 188.718 206.089C189.57 206.844 190.088 207.905 190.16 209.04C190.23 210.176 189.846 211.293 189.092 212.145C188.338 212.998 187.277 213.516 186.141 213.586Z" fill="#0560FA"/>
</g>
<g opacity="0.22">
<path opacity="0.22" d="M216.067 211.746L203.347 212.526C202.212 212.593 201.096 212.208 200.244 211.455C199.392 210.701 198.874 209.641 198.802 208.506C198.732 207.37 199.116 206.252 199.87 205.398C200.623 204.544 201.685 204.024 202.821 203.952L215.541 203.172C216.678 203.103 217.796 203.487 218.649 204.24C219.503 204.994 220.023 206.055 220.095 207.192C220.16 208.329 219.773 209.445 219.019 210.298C218.264 211.151 217.203 211.671 216.067 211.746Z" fill="#0560FA"/>
</g>
<g opacity="0.22">
<path opacity="0.22" d="M217.118 228.757L139.56 233.539C138.424 233.607 137.308 233.222 136.454 232.469C135.601 231.715 135.081 230.655 135.007 229.52C134.939 228.384 135.324 227.267 136.077 226.414C136.83 225.561 137.89 225.04 139.026 224.966L216.593 220.183C217.728 220.116 218.843 220.501 219.695 221.254C220.547 222.008 221.066 223.068 221.138 224.203C221.208 225.339 220.823 226.457 220.07 227.311C219.316 228.165 218.255 228.685 217.118 228.757Z" fill="#0560FA"/>
</g>
<path opacity="0.22" d="M196.995 105.347L198.259 125.801C198.338 127.09 198.67 128.352 199.236 129.513C199.803 130.674 200.593 131.713 201.56 132.569C202.528 133.425 203.655 134.082 204.877 134.502C206.099 134.922 207.391 135.098 208.681 135.019L229.16 133.755L196.995 105.347Z" fill="#0560FA"/>
<path opacity="0.5" d="M173.065 156.371C173.052 155.391 172.843 154.423 172.45 153.525C172.057 152.627 171.488 151.817 170.776 151.143C170.065 150.469 169.225 149.944 168.308 149.599C167.39 149.255 166.412 149.098 165.433 149.138H97.5081C92.3607 149.138 87.3321 153.318 86.3654 158.466L59.5601 295.799C58.5594 300.947 61.9175 305.127 67.0649 305.127H282.457C287.604 305.127 292.59 300.955 293.6 295.799L315.707 182.591C316.708 177.436 313.35 173.263 308.202 173.263H191C180.824 173.263 173.413 166.259 173.065 156.371Z" fill="#0560FA"/>
</svg>
