<svg width="33" height="33" viewBox="0 0 33 33" fill="none" xmlns="http://www.w3.org/2000/svg">
<path fill-rule="evenodd" clip-rule="evenodd" d="M16.3249 2.92414C16.5071 3.01339 16.6605 3.15204 16.7677 3.32427C16.8748 3.49651 16.9314 3.69539 16.931 3.89824V29.8742C16.9312 30.0769 16.8744 30.2755 16.7672 30.4475C16.6599 30.6195 16.5066 30.758 16.3245 30.8471C16.1425 30.9362 15.9391 30.9724 15.7374 30.9516C15.5358 30.9307 15.3441 30.8537 15.1841 30.7292L7.12726 24.4625H3.40187C2.54072 24.4625 1.71483 24.1205 1.1059 23.5115C0.49697 22.9026 0.154877 22.0767 0.154877 21.2155L0.154877 12.5569C0.154877 11.6957 0.49697 10.8699 1.1059 10.2609C1.71483 9.65199 2.54072 9.3099 3.40187 9.3099H7.12726L15.1841 3.0432C15.3443 2.91882 15.5361 2.84192 15.7378 2.82125C15.9395 2.80058 16.1429 2.83698 16.3249 2.9263V2.92414ZM14.7664 6.11052L8.16413 11.2473C7.97404 11.3948 7.74021 11.4748 7.49958 11.4746H3.40187C3.11482 11.4746 2.83953 11.5886 2.63655 11.7916C2.43357 11.9945 2.31954 12.2698 2.31954 12.5569V21.2155C2.31954 21.5026 2.43357 21.7779 2.63655 21.9809C2.83953 22.1839 3.11482 22.2979 3.40187 22.2979H7.49958C7.74021 22.2977 7.97404 22.3776 8.16413 22.5252L14.7664 27.6619V6.11052ZM22.4033 8.98087C22.4979 8.9177 22.6041 8.87381 22.7157 8.85169C22.8273 8.82958 22.9422 8.82969 23.0538 8.852C23.1654 8.87432 23.2715 8.91841 23.366 8.98175C23.4605 9.04509 23.5416 9.12644 23.6047 9.22115C25.1112 11.4933 25.9146 14.159 25.9146 16.8851C25.9146 19.6113 25.1112 22.277 23.6047 24.5491C23.4757 24.7359 23.2785 24.8646 23.0555 24.9074C22.8326 24.9502 22.6017 24.9038 22.4127 24.778C22.2236 24.6523 22.0916 24.4573 22.0449 24.2352C21.9982 24.013 22.0406 23.7814 22.163 23.5902C23.4801 21.6024 24.1825 19.2707 24.1825 16.8862C24.1825 14.5017 23.4801 12.17 22.163 10.1823C22.0998 10.0876 22.056 9.98145 22.0338 9.86983C22.0117 9.75822 22.0118 9.64334 22.0342 9.53176C22.0565 9.42019 22.1006 9.3141 22.1639 9.21958C22.2272 9.12505 22.3086 9.04393 22.4033 8.98087ZM27.5985 3.74671C27.4498 3.57161 27.2376 3.46275 27.0087 3.44407C26.7797 3.4254 26.5527 3.49844 26.3776 3.64714C26.2025 3.79583 26.0937 4.00799 26.075 4.23695C26.0563 4.46591 26.1294 4.6929 26.278 4.86801C29.1178 8.22868 30.6759 12.4864 30.6759 16.8862C30.6759 21.2861 29.1178 25.5438 26.278 28.9044C26.1294 29.0795 26.0563 29.3065 26.075 29.5355C26.0937 29.7645 26.2025 29.9766 26.3776 30.1253C26.5527 30.274 26.7797 30.347 27.0087 30.3284C27.2376 30.3097 27.4498 30.2008 27.5985 30.0257C30.7043 26.352 32.4083 21.6969 32.4083 16.8862C32.4083 12.0756 30.7043 7.42045 27.5985 3.74671Z" fill="#3A3A3A"/>
</svg>
