<svg width="18" height="17" viewBox="0 0 18 17" fill="none" xmlns="http://www.w3.org/2000/svg">
<path d="M16.7277 7.44112C16.9205 7.29752 17.0635 7.0972 17.1366 6.86824C17.2098 6.63929 17.2095 6.39317 17.1357 6.16441C17.0619 5.93565 16.9184 5.73572 16.7253 5.59264C16.5321 5.44956 16.299 5.37052 16.0587 5.3666L11.391 5.19026C11.3681 5.18868 11.3461 5.18049 11.3277 5.16669C11.3093 5.15289 11.2953 5.13406 11.2873 5.11247L9.67439 0.755981C9.59334 0.53434 9.44615 0.342954 9.25274 0.207736C9.05933 0.0725181 8.82903 0 8.59304 0C8.35705 0 8.12676 0.0725181 7.93334 0.207736C7.73993 0.342954 7.59274 0.53434 7.5117 0.755981L5.90395 5.12803C5.896 5.14962 5.88198 5.16845 5.86358 5.18225C5.84517 5.19605 5.82317 5.20424 5.80022 5.20582L1.13256 5.38216C0.892226 5.38608 0.65915 5.46512 0.46601 5.6082C0.272869 5.75128 0.12935 5.95121 0.0555748 6.17997C-0.0182003 6.40873 -0.0185313 6.65484 0.0546282 6.8838C0.127788 7.11276 0.270769 7.31308 0.463524 7.45667L4.12505 10.3351C4.14337 10.3495 4.15707 10.369 4.16444 10.3911C4.17182 10.4132 4.17255 10.437 4.16654 10.4595L2.90627 14.9249C2.84096 15.1523 2.84729 15.3943 2.92439 15.618C3.00149 15.8416 3.14562 16.0361 3.33717 16.175C3.52872 16.3138 3.7584 16.3903 3.99495 16.394C4.23151 16.3977 4.46345 16.3284 4.65924 16.1956L8.52821 13.6024C8.54727 13.5893 8.56988 13.5822 8.59304 13.5822C8.6162 13.5822 8.63881 13.5893 8.65787 13.6024L12.5268 16.1956C12.72 16.3329 12.9511 16.4067 13.1881 16.4067C13.4251 16.4067 13.6562 16.3329 13.8494 16.1956C14.041 16.058 14.1852 15.8645 14.2623 15.6416C14.3394 15.4187 14.3455 15.1774 14.2798 14.9509L13.0092 10.4699C13.0024 10.4474 13.0028 10.4234 13.0102 10.4011C13.0177 10.3788 13.0318 10.3594 13.0507 10.3454L16.7277 7.44112Z" fill="white"/>
</svg>
