<svg width="390" height="298" viewBox="0 0 390 298" fill="none" xmlns="http://www.w3.org/2000/svg">
<path d="M399.936 261.878H0V262.078H399.936V261.878Z" fill="#EBEBEB"/>
<path d="M359.862 274.748H333.37V274.948H359.862V274.748Z" fill="#EBEBEB"/>
<path d="M264.933 276.923H257.982V277.123H264.933V276.923Z" fill="#EBEBEB"/>
<path d="M332.57 267.325H317.221V267.525H332.57V267.325Z" fill="#EBEBEB"/>
<path d="M76.5077 268.669H41.9612V268.869H76.5077V268.669Z" fill="#EBEBEB"/>
<path d="M88.6977 268.669H83.6345V268.869H88.6977V268.669Z" fill="#EBEBEB"/>
<path d="M180.091 272.044H105.159V272.244H180.091V272.044Z" fill="#EBEBEB"/>
<path d="M189.569 226.204H35.1223C33.9124 226.201 32.7528 225.719 31.898 224.863C31.0432 224.007 30.5631 222.846 30.5631 221.636V4.52727C30.5736 3.32428 31.0584 2.17403 31.912 1.32636C32.7657 0.478689 33.9193 0.00206078 35.1223 0H189.569C190.781 0 191.943 0.481193 192.799 1.33772C193.656 2.19425 194.137 3.35595 194.137 4.56726V221.636C194.137 222.848 193.656 224.009 192.799 224.866C191.943 225.722 190.781 226.204 189.569 226.204ZM35.1223 0.159975C33.9655 0.162094 32.8567 0.623152 32.0394 1.44195C31.2221 2.26075 30.763 3.37038 30.763 4.52727V221.636C30.763 222.793 31.2221 223.903 32.0394 224.722C32.8567 225.54 33.9655 226.001 35.1223 226.004H189.569C190.727 226.001 191.837 225.541 192.655 224.722C193.474 223.904 193.935 222.794 193.937 221.636V4.52727C193.935 3.36964 193.474 2.26003 192.655 1.44146C191.837 0.622892 190.727 0.162089 189.569 0.159975H35.1223Z" fill="#EBEBEB"/>
<path d="M362.59 226.204H208.134C206.924 226.201 205.763 225.72 204.907 224.864C204.051 224.007 203.569 222.847 203.567 221.636V4.52727C203.58 3.32356 204.066 2.17331 204.921 1.32586C205.776 0.47841 206.931 0.0020383 208.134 0H362.59C363.791 0.00416293 364.943 0.481722 365.795 1.32917C366.647 2.17661 367.13 3.32567 367.141 4.52727V221.636C367.141 222.845 366.662 224.004 365.809 224.86C364.956 225.716 363.798 226.199 362.59 226.204ZM208.134 0.159975C206.977 0.162089 205.867 0.622892 205.049 1.44146C204.23 2.26003 203.769 3.36964 203.767 4.52727V221.636C203.769 222.794 204.23 223.904 205.049 224.722C205.867 225.541 206.977 226.001 208.134 226.004H362.59C363.747 226.001 364.857 225.541 365.675 224.722C366.494 223.904 366.955 222.794 366.957 221.636V4.52727C366.955 3.36964 366.494 2.26003 365.675 1.44146C364.857 0.622892 363.747 0.162089 362.59 0.159975H208.134Z" fill="#EBEBEB"/>
<path d="M308.858 175.648C320.7 163.806 320.7 144.607 308.858 132.765C297.016 120.923 277.817 120.923 265.975 132.765C254.133 144.607 254.133 163.806 265.975 175.648C277.817 187.49 297.016 187.49 308.858 175.648Z" fill="#F0F0F0"/>
<path d="M56.5509 100.784H139.586C139.586 100.784 138.386 94.2088 123.02 94.5848C126.068 84.9863 117.469 74.508 98.0722 74.1081C78.6753 73.7081 85.4902 89.3056 85.4902 89.3056C85.4902 89.3056 52.8875 83.7065 62.7499 95.3206C46.5925 95.9365 43.401 98.0002 56.5509 100.784Z" fill="#F0F0F0"/>
<path d="M272.092 141.905C273.98 132.459 257.838 122.108 228.099 121.708C198.36 121.308 213.278 136.722 213.278 136.722C213.278 136.722 161.918 131.123 180.323 142.649C155.831 143.201 151.528 145.241 172.428 148.024H299.152C299.152 148.024 295.424 141.577 272.092 141.905Z" fill="#FAFAFA"/>
<path d="M255.615 71.1325H341.649C341.649 71.1325 360.846 60.1103 338.09 58.6866C342.001 49.2641 332.394 33.2827 298.808 32.9147C265.221 32.5468 282.634 54.5992 282.634 54.5992C282.634 54.5992 231.443 39.8416 249.4 63.3098C241.561 63.3098 213.67 71.1325 255.615 71.1325Z" fill="#F5F5F5"/>
<path d="M75.4358 185.274H114.094C114.094 185.274 122.724 180.323 112.494 179.675C114.254 175.444 109.934 168.261 94.8407 168.093C79.7471 167.925 87.5779 177.835 87.5779 177.835C87.5779 177.835 64.5736 171.212 72.6363 181.755C69.1249 181.763 56.5829 185.274 75.4358 185.274Z" fill="#F5F5F5"/>
<path d="M73.6922 34.3305C73.6922 34.3305 62.7819 27.3396 55.1911 37.282C61.4221 31.107 73.2682 37.33 73.2682 37.33C73.2682 37.33 86.866 31.171 91.3453 37.33C86.5221 27.4036 73.6922 34.3305 73.6922 34.3305Z" fill="#F0F0F0"/>
<path d="M132.179 126.38C132.179 126.38 125.62 122.172 121.044 128.155C124.804 124.436 131.931 128.155 131.931 128.155C131.931 128.155 140.089 124.444 142.817 128.155C139.905 122.236 132.179 126.38 132.179 126.38Z" fill="#F0F0F0"/>
<path d="M251.775 28.9073C251.775 28.9073 248.496 26.8037 246.176 29.7952C248.056 27.9315 251.624 29.7952 251.624 29.7952C251.624 29.7952 255.703 27.9475 257.063 29.7952C255.639 26.8197 251.775 28.9073 251.775 28.9073Z" fill="#F5F5F5"/>
<path d="M332.003 100.72C332.003 100.72 328.715 98.6161 326.403 101.608C328.275 99.7519 331.843 101.608 331.843 101.608C331.843 101.608 335.922 99.7519 337.282 101.608C335.858 98.6321 332.003 100.72 332.003 100.72Z" fill="#F5F5F5"/>
<path d="M199.968 298C285.62 298 355.055 293.946 355.055 288.945C355.055 283.945 285.62 279.891 199.968 279.891C114.316 279.891 44.8808 283.945 44.8808 288.945C44.8808 293.946 114.316 298 199.968 298Z" fill="#F5F5F5"/>
<path d="M147.464 241.377C150.192 257.167 137.458 264.941 125.068 261.022C116.629 258.342 108.271 260.398 102.607 263.102C102.384 263.202 102.134 263.223 101.896 263.163C101.659 263.103 101.449 262.965 101.3 262.77C101.151 262.576 101.072 262.337 101.076 262.093C101.079 261.848 101.165 261.612 101.32 261.422C102.273 260.28 103.29 259.193 104.367 258.166C104.544 258 104.659 257.778 104.693 257.537C104.727 257.296 104.678 257.051 104.554 256.842C104.43 256.632 104.239 256.471 104.012 256.385C103.785 256.299 103.535 256.292 103.303 256.367C98.3762 257.87 91.1133 259.278 84.1065 257.631C83.8958 257.582 83.7045 257.471 83.5575 257.313C83.4104 257.154 83.3142 256.955 83.2815 256.742C83.2488 256.528 83.2809 256.309 83.3738 256.114C83.4667 255.919 83.616 255.756 83.8025 255.647C90.8014 251.503 101.48 240.617 111.486 237.082C111.731 236.995 111.937 236.822 112.065 236.596C112.193 236.37 112.235 236.105 112.183 235.85C112.132 235.595 111.99 235.367 111.784 235.209C111.578 235.05 111.322 234.971 111.062 234.986C109.484 235.076 107.913 235.268 106.359 235.562C106.106 235.625 105.839 235.595 105.607 235.476C105.375 235.358 105.193 235.16 105.096 234.918C104.999 234.677 104.992 234.408 105.077 234.162C105.162 233.915 105.333 233.708 105.559 233.578C119.589 224.868 143.977 221.212 147.464 241.377Z" fill="#0560FA"/>
<path opacity="0.7" d="M147.464 241.377C150.192 257.167 137.458 264.941 125.068 261.022C116.629 258.342 108.271 260.398 102.607 263.102C102.384 263.202 102.134 263.223 101.896 263.163C101.659 263.103 101.449 262.965 101.3 262.77C101.151 262.576 101.072 262.337 101.076 262.093C101.079 261.848 101.165 261.612 101.32 261.422C102.273 260.28 103.29 259.193 104.367 258.166C104.544 258 104.659 257.778 104.693 257.537C104.727 257.296 104.678 257.051 104.554 256.842C104.43 256.632 104.239 256.471 104.012 256.385C103.785 256.299 103.535 256.292 103.303 256.367C98.3762 257.87 91.1133 259.278 84.1065 257.631C83.8958 257.582 83.7045 257.471 83.5575 257.313C83.4104 257.154 83.3142 256.955 83.2815 256.742C83.2488 256.528 83.2809 256.309 83.3738 256.114C83.4667 255.919 83.616 255.756 83.8025 255.647C90.8014 251.503 101.48 240.617 111.486 237.082C111.731 236.995 111.937 236.822 112.065 236.596C112.193 236.37 112.235 236.105 112.183 235.85C112.132 235.595 111.99 235.367 111.784 235.209C111.578 235.05 111.322 234.971 111.062 234.986C109.484 235.076 107.913 235.268 106.359 235.562C106.106 235.625 105.839 235.595 105.607 235.476C105.375 235.358 105.193 235.16 105.096 234.918C104.999 234.677 104.992 234.408 105.077 234.162C105.162 233.915 105.333 233.708 105.559 233.578C119.589 224.868 143.977 221.212 147.464 241.377Z" fill="white"/>
<path d="M130.251 264.421L124.892 223.164C124.865 222.942 124.886 222.717 124.956 222.505C125.025 222.293 125.14 222.098 125.292 221.935C125.445 221.771 125.631 221.644 125.838 221.56C126.046 221.477 126.269 221.44 126.492 221.452L152.487 223.308C152.837 223.333 153.168 223.478 153.423 223.718C153.678 223.959 153.842 224.28 153.887 224.628L157.887 255.655C157.923 255.998 157.841 256.344 157.655 256.634C157.469 256.925 157.19 257.144 156.863 257.255L132.203 265.677C131.991 265.742 131.769 265.76 131.55 265.729C131.331 265.699 131.121 265.622 130.936 265.502C130.75 265.383 130.592 265.224 130.474 265.037C130.356 264.851 130.28 264.64 130.251 264.421Z" fill="black"/>
<path d="M125.076 256.679L121.876 231.931C121.849 231.719 121.867 231.504 121.929 231.299C121.991 231.095 122.095 230.906 122.234 230.745C122.374 230.583 122.546 230.453 122.739 230.362C122.933 230.272 123.143 230.223 123.356 230.219L153.207 229.659C153.582 229.652 153.946 229.784 154.229 230.029C154.513 230.274 154.696 230.615 154.743 230.987L157.143 249.216C157.189 249.587 157.097 249.963 156.885 250.271C156.672 250.579 156.354 250.798 155.991 250.888L126.988 257.958C126.777 258.015 126.557 258.026 126.342 257.99C126.127 257.955 125.922 257.874 125.741 257.753C125.56 257.631 125.407 257.473 125.292 257.288C125.178 257.102 125.104 256.895 125.076 256.679Z" fill="#263238"/>
<path d="M255.227 252.248L239.631 254.815L239.764 255.62L255.359 253.053L255.227 252.248Z" fill="#0560FA"/>
<path d="M235.576 255.486L230.99 256.241L231.123 257.046L235.708 256.291L235.576 255.486Z" fill="#0560FA"/>
<path d="M301.415 221.236C301.415 221.236 279.907 201.088 249.096 205.079L152.048 214.253C150.268 214.421 148.541 214.946 146.968 215.795C145.396 216.645 144.011 217.803 142.896 219.2C141.78 220.596 140.958 222.203 140.477 223.925C139.996 225.646 139.867 227.447 140.097 229.219L143.393 254.655C143.622 256.428 144.207 258.136 145.111 259.678C146.015 261.22 147.22 262.564 148.655 263.63C150.09 264.696 151.724 265.462 153.462 265.882C155.199 266.303 157.003 266.369 158.766 266.077L254.951 250.2C285.754 246.208 301.415 221.236 301.415 221.236Z" fill="#0560FA"/>
<path d="M249.988 230.792C250.395 221.674 243.335 213.953 234.217 213.545C225.099 213.137 217.378 220.198 216.97 229.316C216.562 238.433 223.623 246.155 232.741 246.563C241.858 246.97 249.58 239.91 249.988 230.792Z" fill="white"/>
<path opacity="0.3" d="M244.601 230.939C244.391 233.488 243.314 235.888 241.55 237.741C239.787 239.593 237.442 240.786 234.906 241.121C234.746 241.121 234.578 241.161 234.41 241.169C233.703 241.237 232.99 241.237 232.283 241.169C232.035 241.169 231.779 241.113 231.539 241.073L231.003 240.969C228.775 240.458 226.757 239.277 225.22 237.586C223.683 235.894 222.701 233.773 222.404 231.507C222.339 230.976 222.31 230.442 222.316 229.907C222.458 227.151 223.612 224.543 225.558 222.586C227.504 220.629 230.104 219.459 232.86 219.301C235.616 219.144 238.332 220.009 240.489 221.732C242.645 223.455 244.09 225.913 244.545 228.635C244.645 229.399 244.664 230.171 244.601 230.939Z" fill="#0560FA"/>
<path opacity="0.3" d="M244.601 230.939C244.391 233.488 243.314 235.888 241.55 237.741C239.787 239.593 237.442 240.786 234.906 241.121C234.746 241.121 234.578 241.161 234.41 241.169C233.702 241.233 232.99 241.233 232.283 241.169C232.035 241.169 231.779 241.113 231.539 241.073L231.003 240.969C228.775 240.458 226.757 239.277 225.22 237.586C223.683 235.894 222.701 233.773 222.404 231.507C222.339 230.976 222.31 230.442 222.316 229.907C222.573 227.448 223.674 225.154 225.434 223.416C227.193 221.679 229.5 220.606 231.963 220.38C238.082 219.653 243.689 223.708 244.505 229.435C244.572 229.933 244.604 230.436 244.601 230.939Z" fill="#0560FA"/>
<path d="M210.262 205.071L215.261 204.575L215.965 193.153L210.966 193.649L210.262 205.071Z" fill="#CF7A64"/>
<path d="M181.563 208.038L186.482 207.551L187.53 195.928L182.611 196.416L181.563 208.038Z" fill="#CF7A64"/>
<path d="M186.762 206.447L181.227 206.999C181.131 207.009 181.041 207.052 180.973 207.12C180.904 207.189 180.861 207.278 180.851 207.375L180.427 211.838C180.419 211.945 180.433 212.053 180.471 212.154C180.508 212.255 180.567 212.346 180.643 212.422C180.719 212.498 180.81 212.557 180.911 212.594C181.012 212.631 181.12 212.646 181.227 212.638C183.155 212.414 184.074 212.206 186.506 211.966C188.002 211.814 190.009 211.678 192.105 211.47C194.201 211.262 194.193 209.198 193.321 209.07C189.426 208.622 188.946 207.599 187.594 206.631C187.348 206.472 187.052 206.406 186.762 206.447Z" fill="#263238"/>
<path d="M215.405 203.543L210.03 204.087C209.933 204.094 209.842 204.136 209.773 204.205C209.704 204.274 209.662 204.366 209.654 204.463L209.23 208.926C209.22 209.034 209.234 209.142 209.271 209.244C209.308 209.345 209.366 209.437 209.443 209.514C209.519 209.59 209.611 209.649 209.713 209.685C209.814 209.722 209.923 209.736 210.03 209.726C211.966 209.502 214.749 209.102 217.189 208.862C220.045 208.574 220.061 208.726 223.404 208.39C225.42 208.182 225.724 206.087 224.86 205.991C220.9 205.535 220.213 205.519 216.621 203.807C216.246 203.614 215.827 203.523 215.405 203.543Z" fill="#263238"/>
<path d="M196.232 44.7448C197.48 44.8568 198.888 44.9928 200.232 45.0567C201.576 45.1207 202.919 45.1687 204.231 45.1687C205.495 45.1657 206.759 45.0909 208.014 44.9448C209.011 44.8413 209.987 44.5906 210.91 44.2009L209.438 46.4565C209.438 46.7205 209.494 46.7205 209.438 46.5605C209.371 46.3153 209.274 46.079 209.15 45.8566C208.776 45.1743 208.333 44.5312 207.831 43.9369C206.679 42.5571 205.442 41.2508 204.127 40.0255C202.783 38.7378 201.368 37.49 199.936 36.2502C198.504 35.0104 197.016 33.7786 195.576 32.5867L197.496 29.5952C199.28 30.5071 200.96 31.4989 202.655 32.5308C204.351 33.5626 205.983 34.6824 207.599 35.8822C209.267 37.0954 210.842 38.4323 212.31 39.8816C213.125 40.7046 213.861 41.6017 214.509 42.5611C214.908 43.1526 215.235 43.7889 215.485 44.4568C215.847 45.3931 215.974 46.4039 215.853 47.4004L215.677 48.8081L214.365 49.68C212.786 50.6852 211.025 51.3726 209.182 51.7037C207.601 52.0279 205.996 52.2258 204.383 52.2956C202.831 52.3836 201.304 52.3676 199.792 52.2956C198.28 52.2236 196.816 52.1116 195.217 51.8716L196.232 44.7448Z" fill="#CE7A63"/>
<path d="M199.168 31.195L196.224 27.5076L194.017 32.7947C194.017 32.7947 196.688 35.9382 199.52 34.3945L199.168 31.195Z" fill="#CF7A64"/>
<path d="M192.321 25.5719L191.825 31.5709L194.017 32.7547L196.216 27.4916L192.321 25.5719Z" fill="#CF7A64"/>
<path d="M188.714 26.3398L193.193 24.4841C193.265 24.4462 193.345 24.4246 193.427 24.4205C193.509 24.4164 193.59 24.43 193.666 24.4604C193.742 24.4908 193.811 24.5372 193.867 24.5965C193.923 24.6558 193.966 24.7266 193.993 24.804L196.88 34.0105C196.915 34.1724 196.892 34.3414 196.814 34.4876C196.736 34.6339 196.61 34.7482 196.456 34.8104L191.977 36.6661C191.905 36.7039 191.825 36.7256 191.743 36.7297C191.661 36.7338 191.58 36.7202 191.504 36.6898C191.428 36.6594 191.359 36.613 191.303 36.5536C191.247 36.4943 191.204 36.4236 191.177 36.3461L188.29 27.1956C188.24 27.0258 188.256 26.8434 188.334 26.6848C188.413 26.5262 188.548 26.403 188.714 26.3398Z" fill="#263238"/>
<path d="M191.353 53.5274C194.609 57.4627 207.951 53.7753 207.951 53.7753L206.823 44.7928C206.823 44.7928 203.455 43.7849 196.776 43.577C189.929 43.329 187.786 49.2161 191.353 53.5274Z" fill="#0560FA"/>
<path opacity="0.2" d="M215.965 193.161L215.597 199.048L210.606 199.544L210.966 193.657L215.965 193.161Z" fill="black"/>
<path opacity="0.2" d="M182.603 196.424L187.53 195.928L186.986 201.919L182.067 202.415L182.603 196.424Z" fill="black"/>
<path d="M201.608 46.0486C203.543 51.0718 208.294 66.0454 206.639 88.6497L180.307 91.2973C179.619 87.2979 179.507 65.3095 173.204 46.6965C176.051 45.8471 178.95 45.1819 181.883 44.7048C185.591 44.113 189.33 43.7364 193.081 43.577C194.997 43.5743 196.912 43.6838 198.816 43.9049C199.433 43.9726 200.019 44.2083 200.512 44.5863C201.004 44.9643 201.383 45.4701 201.608 46.0486Z" fill="#0560FA"/>
<path opacity="0.2" d="M191.489 50.1519L190.457 50.2879C190.561 59.0865 190.689 61.4861 182.747 69.7087C181.312 71.1682 180.011 72.7529 178.859 74.444C178.963 75.4838 179.067 76.4917 179.163 77.4675C181.219 75.5878 183.962 73.1242 186.01 71.4125C195.249 63.7017 191.753 50.0399 191.489 50.1519Z" fill="black"/>
<path opacity="0.2" d="M179.515 50.8158C180.315 53.8953 180.315 61.4781 178.395 70.4206C177.509 63.0112 175.976 55.6937 173.812 48.5522C175.516 48.1602 178.731 47.9283 179.515 50.8158Z" fill="black"/>
<path d="M182.035 34.1145C183.194 37.6339 184.106 42.0492 181.883 44.7048C181.883 44.7048 183.786 48.2002 190.481 47.5283C196.592 46.9124 193.081 43.577 193.081 43.577C188.938 43.0251 188.53 38.0499 188.882 35.1863L182.035 34.1145Z" fill="#CF7A64"/>
<path d="M190.769 47.1924L192.369 48.6482C192.425 48.6989 192.466 48.763 192.49 48.8344C192.514 48.9058 192.519 48.9822 192.505 49.0561L192.177 50.5199C192.161 50.6006 192.12 50.6741 192.059 50.7301C191.999 50.7861 191.923 50.8217 191.841 50.8318L190.281 51.0638C190.209 51.0749 190.135 51.0675 190.067 51.0423C189.998 51.0171 189.937 50.975 189.889 50.9198L188.818 49.64C188.76 49.5656 188.729 49.4742 188.729 49.3801C188.729 49.2859 188.76 49.1945 188.818 49.1201L190.153 47.2484C190.189 47.2027 190.234 47.1648 190.285 47.1371C190.335 47.1093 190.392 47.0923 190.449 47.087C190.507 47.0818 190.565 47.0884 190.62 47.1065C190.675 47.1247 190.726 47.1539 190.769 47.1924Z" fill="#263238"/>
<path d="M190.273 47.1444C189.602 48.8912 188.718 50.5488 187.642 52.0796C187.642 52.0796 181.139 49.1201 180.747 44.8808C180.74 44.8035 180.752 44.7256 180.783 44.6544C180.814 44.5831 180.862 44.5207 180.923 44.4728C181.171 44.2809 181.619 43.9289 182.043 43.577C182.092 43.5321 182.151 43.4987 182.214 43.4794C182.278 43.46 182.345 43.4552 182.411 43.4651C182.477 43.4751 182.54 43.4996 182.595 43.537C182.651 43.5743 182.697 43.6235 182.731 43.681C183.25 44.6008 184.93 46.3925 190.273 47.1444Z" fill="white"/>
<path d="M190.505 47.0964C191.864 48.1223 192.999 49.4153 193.841 50.8958C194.462 49.8127 194.836 48.6055 194.935 47.3609C195.035 46.1163 194.858 44.8651 194.417 43.697C194.388 43.628 194.345 43.5663 194.29 43.5165C194.234 43.4666 194.168 43.4299 194.097 43.409C193.817 43.337 193.297 43.209 192.761 43.1051C192.69 43.0934 192.617 43.0984 192.549 43.1196C192.48 43.1409 192.417 43.1777 192.365 43.2274C192.313 43.277 192.274 43.338 192.249 43.4056C192.225 43.4733 192.217 43.5456 192.225 43.617C192.359 44.3052 192.264 45.0186 191.953 45.6472C191.642 46.2759 191.134 46.7851 190.505 47.0964Z" fill="white"/>
<path d="M191.441 50.0959C191.697 49.9839 194.289 62.222 185.346 69.6528C181.699 72.6843 175.836 78.0994 175.844 78.0914C176.388 75.9398 178.099 72.6203 182.395 68.269C190.161 60.4063 190.153 58.2706 190.473 50.2719L191.441 50.0959Z" fill="#263238"/>
<path opacity="0.2" d="M188.882 35.1943C188.596 37.1955 188.873 39.2367 189.681 41.0894C189.045 41.0602 188.417 40.9361 187.818 40.7214C185.418 39.9216 184.098 38.3218 182.619 35.9222C182.451 35.2903 182.267 34.6824 182.075 34.0905L188.882 35.1943Z" fill="black"/>
<path d="M186.186 23.1962C187.138 15.6695 192.673 23.6362 191.137 27.3796C190.193 29.6672 185.954 25.012 186.186 23.1962Z" fill="#263238"/>
<path d="M178.571 30.0272C180.467 34.6024 181.347 37.378 184.514 39.0097C189.274 41.4813 194.241 37.482 193.729 32.4588C193.273 27.9395 190.249 21.2126 185.082 20.8286C183.948 20.7345 182.809 20.9378 181.778 21.4184C180.746 21.899 179.858 22.6402 179.201 23.569C178.543 24.4978 178.139 25.582 178.029 26.7146C177.919 27.8471 178.106 28.9889 178.571 30.0272Z" fill="#CF7A64"/>
<path d="M180.707 34.4504C181.311 34.3446 181.872 34.0674 182.323 33.6519C182.774 33.2365 183.096 32.7001 183.25 32.1068C181.886 31.5588 180.702 30.6387 179.835 29.4512C179.835 29.4512 181.867 26.5317 181.651 24.844C184.258 24.844 190.369 22.3244 188.986 19.5408C187.602 16.7573 182.115 15.3735 178.915 17.3412C176.898 18.7156 174.509 19.4387 172.068 19.4129C172.796 19.8441 173.587 20.1572 174.412 20.3407C173.511 21.2215 172.805 22.2821 172.341 23.4534C171.876 24.6247 171.664 25.8807 171.716 27.1396C171.868 30.715 169.925 32.1548 169.925 32.1548C169.925 32.1548 172.324 32.5148 173.06 31.4589C172.732 32.6267 174.708 36.7221 179.051 37.29C183.914 37.9219 180.707 34.4504 180.707 34.4504Z" fill="#263238"/>
<path d="M178.715 36.6421C180.515 37.442 181.915 37.7139 182.843 37.17C183.77 36.6261 183.506 34.7704 182.323 33.7066C181.259 32.7707 179.163 31.8829 177.947 32.9067C176.732 33.9305 176.859 35.7942 178.715 36.6421Z" fill="#CF7A64"/>
<path d="M206.639 88.6497C206.639 88.6497 217.965 125.892 218.765 139.977C219.645 155.391 217.421 196.352 217.421 196.352L208.518 197.256C208.518 197.256 206.855 158.255 204.599 143.169C202.151 126.796 189.857 90.3774 189.857 90.3774L206.639 88.6497Z" fill="#263238"/>
<path opacity="0.2" d="M198.84 106.207L197.44 114.382C199.4 120.997 201.36 128.043 202.791 134.162C203.219 124.679 201.879 115.2 198.84 106.207Z" fill="black"/>
<path d="M207.783 195.033L208.07 198.32L218.029 197.32L218.317 193.601L207.783 195.033Z" fill="#0560FA"/>
<path d="M197.296 89.5856C197.296 89.5856 200.984 122.884 199.696 137.258C198.264 152.991 189.154 200.056 189.154 200.056L180.139 200.96C180.139 200.96 185.098 155.575 185.098 140.169C185.098 123.412 180.299 91.3293 180.299 91.3293L197.296 89.5856Z" fill="#263238"/>
<path d="M179.827 198.08L179.699 201.176L189.61 200.176L190.617 196.672L179.827 198.08Z" fill="#0560FA"/>
<path d="M186.034 29.0513C186.162 29.4352 186.474 29.6752 186.714 29.5952C186.954 29.5152 187.058 29.1393 186.922 28.7954C186.786 28.4514 186.49 28.1715 186.242 28.2514C185.994 28.3314 185.898 28.6674 186.034 29.0513Z" fill="#263238"/>
<path d="M190.289 27.6675C190.417 28.0515 190.729 28.2914 190.969 28.2114C191.209 28.1315 191.313 27.7555 191.177 27.4116C191.041 27.0676 190.745 26.7877 190.497 26.8677C190.249 26.9477 190.161 27.2916 190.289 27.6675Z" fill="#263238"/>
<path d="M189.002 28.2994C189.852 29.3128 190.834 30.2086 191.921 30.963C191.728 31.2333 191.477 31.4569 191.187 31.6175C190.896 31.778 190.573 31.8714 190.241 31.8909L189.002 28.2994Z" fill="#BA4D3C"/>
<path d="M189.298 33.4506C189.326 33.4383 189.348 33.4156 189.36 33.3874C189.372 33.3591 189.372 33.3273 189.362 33.2986C189.349 33.2703 189.327 33.2474 189.299 33.2342C189.271 33.2209 189.239 33.2183 189.21 33.2266C188.745 33.4018 188.245 33.4663 187.751 33.4149C187.257 33.3636 186.781 33.1978 186.362 32.9307C186.34 32.9087 186.309 32.8964 186.278 32.8964C186.247 32.8964 186.216 32.9087 186.194 32.9307C186.174 32.954 186.163 32.9838 186.163 33.0147C186.163 33.0455 186.174 33.0754 186.194 33.0987C186.644 33.4042 187.162 33.5959 187.702 33.6572C188.243 33.7185 188.79 33.6476 189.298 33.4506Z" fill="#263238"/>
<path d="M184.274 28.0835C184.308 28.072 184.338 28.0531 184.363 28.0281C184.388 28.0032 184.407 27.9729 184.418 27.9395C184.498 27.6598 184.644 27.4037 184.845 27.1933C185.046 26.9829 185.295 26.8244 185.57 26.7317C185.6 26.7244 185.628 26.711 185.653 26.6922C185.678 26.6735 185.698 26.6498 185.713 26.6228C185.728 26.5957 185.738 26.5658 185.74 26.535C185.743 26.5042 185.74 26.4731 185.73 26.4437C185.713 26.3839 185.674 26.3329 185.62 26.3016C185.566 26.2703 185.503 26.261 185.442 26.2758C185.093 26.3873 184.776 26.5827 184.519 26.8448C184.263 27.1069 184.074 27.4278 183.97 27.7795C183.956 27.8219 183.954 27.8674 183.964 27.9109C183.974 27.9544 183.997 27.9941 184.028 28.0257C184.06 28.0573 184.1 28.0795 184.143 28.0897C184.187 28.0999 184.232 28.0977 184.274 28.0835Z" fill="#263238"/>
<path d="M191.673 25.5239C191.707 25.5101 191.738 25.4881 191.761 25.4599C191.803 25.4154 191.826 25.3568 191.826 25.2959C191.826 25.235 191.803 25.1764 191.761 25.1319C191.489 24.8756 191.161 24.6864 190.802 24.5795C190.444 24.4726 190.066 24.4508 189.697 24.516C189.668 24.5243 189.64 24.5384 189.616 24.5574C189.592 24.5764 189.572 24.5999 189.558 24.6267C189.543 24.6535 189.533 24.6829 189.53 24.7134C189.526 24.7438 189.529 24.7746 189.538 24.804C189.545 24.8342 189.558 24.8626 189.577 24.8875C189.596 24.9124 189.619 24.9333 189.646 24.949C189.673 24.9647 189.702 24.9748 189.733 24.9787C189.764 24.9827 189.796 24.9804 189.825 24.972C190.113 24.9276 190.407 24.95 190.684 25.0374C190.962 25.1248 191.215 25.2748 191.425 25.4759C191.458 25.5062 191.499 25.5267 191.542 25.5352C191.586 25.5436 191.631 25.5397 191.673 25.5239Z" fill="#263238"/>
<path d="M170.069 54.8152L176.772 57.5267C176.772 57.5267 171.252 73.9401 172.444 76.1637C174.044 79.1872 178.371 84.0105 180.939 87.2179C180.704 88.4257 180.151 89.5492 179.339 90.4734C173.948 87.9138 165.453 79.8751 165.013 76.7956C164.046 69.7728 170.069 54.8152 170.069 54.8152Z" fill="#CF7A64"/>
<path d="M173.204 46.6965C167.725 48.4722 166.957 60.6542 166.957 60.6542L175.436 65.0055C177.873 62.1038 179.623 58.6885 180.555 55.0151C182.035 48.8321 178.019 45.1367 173.204 46.6965Z" fill="#0560FA"/>
<path d="M188.498 207.167C188.832 207.162 189.155 207.04 189.41 206.823C189.489 206.739 189.546 206.636 189.575 206.524C189.605 206.412 189.606 206.295 189.577 206.183C189.568 206.115 189.541 206.052 189.499 205.998C189.456 205.945 189.401 205.904 189.338 205.879C188.762 205.655 187.29 206.783 187.122 206.911C187.111 206.93 187.105 206.952 187.105 206.975C187.105 206.997 187.111 207.019 187.122 207.039C187.127 207.061 187.139 207.08 187.157 207.095C187.174 207.109 187.195 207.117 187.218 207.119C187.641 207.186 188.071 207.202 188.498 207.167ZM189.098 206.079C189.15 206.066 189.205 206.066 189.258 206.079C189.282 206.09 189.304 206.108 189.319 206.131C189.335 206.153 189.344 206.179 189.346 206.207C189.366 206.283 189.367 206.363 189.349 206.44C189.33 206.516 189.294 206.588 189.242 206.647C188.717 206.951 188.097 207.045 187.506 206.911C187.975 206.521 188.515 206.228 189.098 206.047V206.079Z" fill="#0560FA"/>
<path d="M187.21 207.095C187.21 207.095 187.21 207.095 187.266 207.095C187.746 206.767 188.594 205.591 188.418 205.055C188.389 204.971 188.334 204.9 188.259 204.852C188.185 204.804 188.097 204.783 188.01 204.791C187.92 204.788 187.831 204.804 187.748 204.839C187.665 204.873 187.591 204.925 187.53 204.991C187.018 205.511 187.082 206.943 187.082 206.999C187.08 207.021 187.085 207.042 187.097 207.061C187.108 207.08 187.126 207.094 187.146 207.103L187.21 207.095ZM187.954 204.999H188.01C188.162 204.999 188.186 205.071 188.194 205.095C188.298 205.415 187.77 206.295 187.314 206.695C187.276 206.134 187.413 205.575 187.706 205.095C187.779 205.031 187.873 204.997 187.97 204.999H187.954Z" fill="#0560FA"/>
<path d="M217.565 204.199C217.987 204.198 218.395 204.048 218.717 203.775C218.79 203.699 218.843 203.605 218.869 203.503C218.896 203.401 218.896 203.293 218.869 203.191C218.857 203.127 218.829 203.066 218.789 203.015C218.749 202.963 218.696 202.922 218.637 202.895C217.997 202.623 216.141 203.823 215.933 203.959C215.915 203.974 215.9 203.994 215.892 204.017C215.884 204.039 215.881 204.063 215.885 204.087C215.892 204.111 215.905 204.132 215.924 204.147C215.942 204.163 215.965 204.173 215.989 204.175C216.513 204.232 217.04 204.24 217.565 204.199ZM218.325 203.087C218.398 203.07 218.475 203.07 218.549 203.087C218.573 203.097 218.594 203.114 218.609 203.135C218.625 203.156 218.634 203.181 218.637 203.207C218.655 203.274 218.655 203.344 218.638 203.412C218.622 203.479 218.588 203.541 218.541 203.591C218.277 203.895 217.469 204.015 216.357 203.951C216.972 203.55 217.651 203.258 218.365 203.087H218.325Z" fill="#0560FA"/>
<path d="M216.013 204.175H216.061C216.621 203.855 217.661 202.671 217.509 202.127C217.469 201.999 217.357 201.847 217.029 201.847C216.913 201.844 216.799 201.866 216.692 201.912C216.586 201.957 216.491 202.026 216.413 202.111C216.028 202.692 215.842 203.383 215.885 204.079C215.885 204.099 215.891 204.118 215.901 204.135C215.91 204.151 215.924 204.165 215.941 204.175C215.952 204.181 215.965 204.184 215.977 204.184C215.99 204.184 216.002 204.181 216.013 204.175ZM216.965 202.063H217.037C217.253 202.063 217.277 202.143 217.285 202.167C217.381 202.495 216.685 203.415 216.117 203.839C216.101 203.271 216.264 202.711 216.581 202.239C216.685 202.138 216.821 202.076 216.965 202.063Z" fill="#0560FA"/>
<path d="M179.731 86.5301L184.442 86.69L181.571 91.6013C181.571 91.6013 177.451 91.3213 177.036 88.1058L179.731 86.5301Z" fill="#CF7A64"/>
<path d="M186.65 88.3298L183.794 92.6491L181.531 91.6012L184.442 86.69L186.65 88.3298Z" fill="#CF7A64"/>
</svg>
