<svg width="34" height="25" viewBox="0 0 34 25" fill="none" xmlns="http://www.w3.org/2000/svg">
<path d="M33.3649 5.01537C33.3679 4.61625 33.2593 4.22423 33.0513 3.88357C32.8434 3.5429 32.5443 3.26716 32.1879 3.08747C31.8501 2.90605 31.4678 2.82407 31.0852 2.85101C30.7027 2.87794 30.3357 3.0127 30.0266 3.23967L25.2474 6.29388V2.64101C25.2474 2.10278 25.0336 1.5866 24.653 1.20602C24.2725 0.825441 23.7563 0.611633 23.2181 0.611633H4.95371C3.87727 0.611633 2.84491 1.03925 2.08375 1.80041C1.32258 2.56157 0.894966 3.59393 0.894966 4.67038V20.9054C0.894966 21.9818 1.32258 23.0142 2.08375 23.7753C2.84491 24.5365 3.87727 24.9641 4.95371 24.9641H23.2181C23.7563 24.9641 24.2725 24.7503 24.653 24.3697C25.0336 23.9891 25.2474 23.473 25.2474 22.9347V19.2819L29.9556 22.3259C30.2705 22.5671 30.6473 22.7141 31.0424 22.7501C31.4375 22.786 31.8346 22.7093 32.1879 22.5289C32.5506 22.3462 32.8538 22.0641 33.0622 21.7155C33.2706 21.367 33.3756 20.9663 33.3649 20.5604V5.01537ZM31.2645 20.672C31.2036 20.672 31.1529 20.672 31.0717 20.6111L23.2181 15.5985V22.9347H4.95371C4.41549 22.9347 3.89931 22.7209 3.51873 22.3403C3.13815 21.9598 2.92434 21.4436 2.92434 20.9054V4.67038C2.92434 4.13216 3.13815 3.61598 3.51873 3.2354C3.89931 2.85481 4.41549 2.64101 4.95371 2.64101H23.2181V9.97719L31.1326 4.90376C31.1518 4.88974 31.1749 4.88218 31.1986 4.88218C31.2223 4.88218 31.2454 4.88974 31.2645 4.90376C31.2867 4.91236 31.3056 4.92783 31.3184 4.94791C31.3311 4.96799 31.3372 4.99163 31.3356 5.01537V20.5604C31.3372 20.5841 31.3311 20.6077 31.3184 20.6278C31.3056 20.6479 31.2867 20.6634 31.2645 20.672Z" fill="#3A3A3A"/>
</svg>
